/* XPM */
static char *uhooi_dancing_0[] = {
/* columns rows colors chars-per-pixel */
"64 64 256 2 ",
"   c black",
".  c black",
"X  c black",
"o  c black",
"O  c black",
"+  c black",
"@  c #010101",
"#  c #020302",
"$  c #040504",
"%  c #050605",
"&  c #060806",
"*  c #080A07",
"=  c #090C09",
"-  c #0D0F0B",
";  c #0E110E",
":  c #10130F",
">  c #111410",
",  c #131612",
"<  c #151814",
"1  c #171B16",
"2  c #1B1E19",
"3  c #1E201C",
"4  c #1F211D",
"5  c #1F221E",
"6  c #20241E",
"7  c #20261F",
"8  c #24271F",
"9  c #27291F",
"0  c #2A2B20",
"q  c #2F2D20",
"w  c #322E20",
"e  c #382E1F",
"r  c #3C2E1F",
"t  c #402F1F",
"y  c #422F1F",
"u  c #423020",
"i  c #413221",
"p  c #3E3322",
"a  c #3B3523",
"s  c #383724",
"d  c #363824",
"f  c #343C27",
"g  c #323E29",
"h  c #2F412B",
"j  c #32412D",
"k  c #33402F",
"l  c #353F32",
"z  c #363F33",
"x  c #383F35",
"c  c #394036",
"v  c #3B4138",
"b  c #3D423A",
"n  c #3F433C",
"m  c #41443E",
"M  c #43453F",
"N  c #454641",
"B  c #454742",
"V  c #464842",
"C  c #474943",
"Z  c #474B43",
"A  c #484F44",
"S  c #485344",
"D  c #485844",
"F  c #475C43",
"G  c #465F42",
"H  c #486443",
"J  c #496B43",
"K  c #4A7043",
"L  c #4B7544",
"P  c #4C7A44",
"I  c #4D7D46",
"U  c #4E7F47",
"Y  c #4F7F48",
"T  c #517C4A",
"R  c #53794C",
"E  c #55734F",
"W  c #576D52",
"Q  c #596554",
"!  c #596355",
"~  c #5C6357",
"^  c #5E6459",
"/  c #60655B",
"(  c #62685C",
")  c #636A5E",
"_  c #656C60",
"`  c #676F62",
"'  c #6A7265",
"]  c #6A7665",
"[  c #6B7966",
"{  c #6C7C67",
"}  c #6B7F67",
"|  c #6B8167",
" . c #6A8466",
".. c #6A8565",
"X. c #698764",
"o. c #688963",
"O. c #678B61",
"+. c #668E5F",
"@. c #64925C",
"#. c #619758",
"$. c #619B57",
"%. c #619B57",
"&. c #619C57",
"*. c #619D57",
"=. c #619F58",
"-. c #62A058",
";. c #62A259",
":. c #63A359",
">. c #64A55A",
",. c #66A95C",
"<. c #68AC5E",
"1. c #6AAF5F",
"2. c #6BB260",
"3. c #6CB462",
"4. c #6DB662",
"5. c #6EB763",
"6. c #6EB863",
"7. c #6FB863",
"8. c #6FB964",
"9. c #6FB964",
"0. c #70BA65",
"q. c #71BD66",
"w. c #73BF67",
"e. c #75C369",
"r. c #76C56A",
"t. c #77C66B",
"y. c #78C86C",
"u. c #7ACB6E",
"i. c #7CCE6F",
"p. c #7ED271",
"a. c #7FD473",
"s. c #80D573",
"d. c #80D573",
"f. c #80D573",
"g. c #80D573",
"h. c #80D573",
"j. c #80D573",
"k. c #80D573",
"l. c #80D573",
"z. c #80D573",
"x. c #80D573",
"c. c #81D574",
"v. c #81D574",
"b. c #81D574",
"n. c #81D574",
"m. c #81D574",
"M. c #81D574",
"N. c #81D574",
"B. c #81D574",
"V. c #81D374",
"C. c #81CD75",
"Z. c #81C777",
"A. c #81C278",
"S. c #82BD79",
"D. c #83B77B",
"F. c #84B17D",
"G. c #85AB7F",
"H. c #87A582",
"J. c #889F85",
"K. c #899D86",
"L. c #8A9987",
"P. c #8B9789",
"I. c #8B9789",
"U. c #8C968A",
"Y. c #8D968C",
"T. c #8E968D",
"R. c #90968F",
"E. c #929691",
"W. c #939693",
"Q. c #959794",
"!. c #979896",
"~. c #999998",
"^. c #9C9B9B",
"/. c #9E9D9D",
"(. c #9F9E9E",
"). c #A2A1A1",
"_. c #A6A5A5",
"`. c #A9A9A9",
"'. c #ADACAC",
"]. c gray69",
"[. c #B2B2B2",
"{. c #B4B4B4",
"}. c gray71",
"|. c #B6B6B6",
" X c #B7B7B7",
".X c #B7B7B7",
"XX c gray72",
"oX c #B9B9B9",
"OX c #BBBBBB",
"+X c gray74",
"@X c gray",
"#X c gray75",
"$X c #C1C1C1",
"%X c gray76",
"&X c #C3C3C3",
"*X c gray77",
"=X c #C8C8C8",
"-X c gray80",
";X c gray81",
":X c LightGray",
">X c #D7D7D7",
",X c #DADADA",
"<X c gray87",
"1X c #E2E2E2",
"2X c #E6E6E6",
"3X c #E7E7E7",
"4X c #E9E9E9",
"5X c #EAEAEA",
"6X c gray92",
"7X c gray92",
"8X c #ECECEC",
"9X c gray93",
"0X c #EEEEEE",
"qX c #EFEFEF",
"wX c #F1F1F1",
"eX c gray95",
"rX c #F3F3F3",
"tX c #F3F3F3",
"yX c #F4F4F4",
"uX c gray96",
"iX c gray96",
"pX c #F6F6F6",
"aX c #F6F6F6",
"sX c gray97",
"dX c gray97",
"fX c #F8F8F8",
"gX c #F9F9F9",
"hX c gray98",
"jX c #FBFBFB",
"kX c #FBFBFB",
"lX c gray99",
"zX c #FDFDFD",
"xX c #FDFDFD",
"cX c #FEFEFE",
"vX c #FEFEFE",
"bX c #FEFEFE",
"nX c #FEFEFE",
"mX c #FEFEFE",
"MX c #FEFEFE",
"NX c #FEFEFE",
"BX c #FEFEFE",
"VX c #FEFEFE",
"CX c #FEFEFE",
"ZX c #FEFEFE",
"AX c None",
"SX c #FEFEFE",
"DX c #FEFEFE",
"FX c #FEFEFE",
"GX c #FEFEFE",
"HX c #FEFEFE",
"JX c #FEFEFE",
"KX c #FEFEFE",
"LX c #FEFEFE",
"PX c #FEFEFE",
"IX c #FEFEFE",
"UX c #FEFEFE",
/* pixels */
"AXAXAXAXAXAXAXAXAXAXAXAXAXAXAXAXAXAXAXAXAXAXAXAXAXAXAXAXAXAXAXAXAXAXAXAXAXAXAXAXAXAXAXAXAXAXAXAXAXAXAXAXAXAXAXAXAXAXAXAXAXAXAXAX",
"AXAXAXAXAXAXAXAXAXAXAXAXAXAXAXAXAXAXAXAXAXAXAXAXAXAXAXAXAXAXAXAXAXAXAXAXAXAXAXAXAXAXAXAXAXAXAXAXAXAXAXAXAXAXAXAXAXAXAXAXAXAXAXAX",
"AXAXAXAXAXAXAXAXAXAXAXAXAXAXAXAXAXAXAXAXAXAXAXAXAXAXAXAXAXAXAXAXAXAXAXAXAXAXAXAXAXAXAXAXAXAXAXAXAXAXAXAXAXAXAXAXAXAXAXAXAXAXAXAX",
"AXAXAXAXAXAXAXAXAXAXAXAXAXAXAXAXAXAXAXAXAXAXAXAXAXAXAXAXAXAXAXAXAXAXAXAXAXAXAXAXAXAXAXAXAXAXAXAXAXAXAXAXAXAXAXAXAXAXAXAXAXAXAXAX",
"AXAXAXAXAXAXAXAXAXAXAXAXAXAXAXAXAXAXAXAXAXAXAXAXAXAXAXAXAXAXAXAXAXAXAXAXAXAXAXAXAXAXAXAXAXAXAXAXAXAXAXAXAXAXAXAXAXAXAXAXAXAXAXAX",
"AXAXAXAXAXAXAXAXAXAXAXAXAXAXAXAXAXAXAXAXAXAXAXAXAXAXAXAXAXAXAXAXAXAXAXAXAXAXAXAXAXAXAX&X^.,XAXAXAXAXAXAXAXAXAXAXAXAXAXAXAXAXAXAX",
"AXAXAXAXAXAXAXAXAXAXAXAXAXAXAXAXAXAXAXAXAXAXAXAXAXAXAXAXAXAXAXAXAXAXAXAXAXAXAXAXAXAXAX^ o E.yXAXAXAXAXAXAXAXAXAXAXAXAXAXAXAXAXAX",
"AXAXAXAXAXAX].-XAXAXAXAXAXAXAXAXAXAXAXAXAXAXAXAXAXAXAXAXAXAXAXAXAXAXAXAXAXAXAXAXAXAX<XA ; A @XAXAXAXAXAXAXAXAXAXAXAXAXAXAXAXAXAX",
"AXAXAXAXAXAX' ! ;XAXAXAXAXAXAXAXAXAXAXAXAXAXAXAXAXAXAXAXAXAXAXAXAXAXAXAXAXAXAXAXAXAXT., < : P.AXAXAXAXAXAXAXAXAXAXAXAXAXAXAXAXAX",
"AXAXAXAXAXAX[ : W.AXAXAXAXAXAXAXAXAXAXAXAXAXAXAXAXAXAXAXAXAXAXAXAXAXAXAXAXAXAXAXAXAXL.= r > N XXAXAXAXAXAXAXAXAXAXAXAXAXAXAXAXAX",
"AXAXAXAXAXAXL.o { AXAXAXAXAXAXAXAXAXAXAXAXAXAXAXAXAXAXAXAXAXAXAXAXAXAXAXAXAXAXAXAXAXR., y y < ' AXAXAXAXAXAXAXAXAXAXAXAXAXAXAXAX",
"AXAXAXAXAX3X' o q ).AXAXAXAXAXAXAXAXAXAXAXAXAXAXAXAXAXAXAXAXAXAXAXAXAXAXAXAXAXAXAXAX^.o o r y q ).AXAXAXAX].3 9 P.AXAXAXAXAXAXAX",
"AXAXAXAXAXoX2 o o / AXAXAXAXAXAXAXAXAXAXAXAXAXAXAXAXAXAXAXAXAXAXAXAXAXAXAXAXAXAXAX7X' < : < u o ! AXAXAX+X9 m / S AXAXAXAXAXAXAX",
"AXAXAXAXAX`.o - r 4 U.AXAXAXAXAXAXAXAXAXAXAXAXAXAXAXAXAXAXAXAXAXAXAXAXAXAXAXAXAXwXT.: i i , i o C AXAXAXXX# * * N AXAXAXAXAXAXAX",
"AXAXAXAXAX|.o * , o 1 [ AXAXAXAXAXAXAXAXAXAXAXAXAXAXAXAXAXAXAXAXAXAXAXAXAXAXAXdX(.& e = y ; i o v AXAXAX*X2 L.] c AXAXAXAXAXAXAX",
"AXAXAXAXAX;X1 * y y o : x ~ AXAXAXxX7X2XAXAXAXAXAXAXAXAXAX<X] AXAXAXAXAXAXgXkX{.# r i o $ y y o q AXAXAX:X2 J...0 AXAXAXAXAXAXAX",
"AXAXAXAXAX,Xm % y , * i y * 4 v AX;X= 8 ,XAXAXwX(.).AX5X' A 2 ].AXAX<X> % 8 =Xo & i i < t y o o < AXAXAX<X> J.L.> AXAXAXAXAXAXAX",
"AXAXAXAXAXoX8 o o o # > - o o # % : w.: 3 9X=X~.o : L.' 1 L $ 9 c 0 2 o o o % * = & C B y # y o 3 AXAXwX9 = J.L.% AXAXAXAXAXAXAX",
"AXAXAXAXAX`.o o o o o o $ i i f i - v.u.7 T.q h h z H K #.i.h o & 2.0.t.y.# C C N # C i @ y N o c AXAXfX# X.J.K.# AXAXAXAXAXAXAX",
"AXAXAXAXAX|.o o o @ u i i C C B % v.v.v.a.7 g v.v.v.v.v.v.v.3.%.>.v.v.v.v.@ f C C ; V < e V y @ v AXAXAX% K.J.; o fXAXAXAXAXAXAX",
"AXAXAXAXAX;Xq o o o < V : - * % o i.v.v.v.v.v.v.v.v.v.v.v.v.v.v.v.v.v.v.v.= @ i i i i e N y # o q AXAXAX: L.J.- o 8XAXAXAXAXAXAX",
"AXAXAXAXAXeX! o o o o : @ :.0.= 7 u.v.v.v.v.v.v.v.v.v.v.v.v.v.v.v.v.v.v.v.v.1 : # 2 y u y $ o o 5 AXAXAX2 L.J.> 2 AXAXAXAXAXAXAX",
"AXAXAXAXAXAX2 G P Y #.%.>.p.v.> 5.v.v.v.v.v.v.v.v.v.v.v.v.v.v.v.v.v.v.v.v.v.v.v.h q.j 1 $ o o % ! AXAXwX= ..J.2 : AXAXAXAXAXAXAX",
"AXAXAXAXAXAX9 2.v.v.v.v.v.v.v.y.d.v.v.v.v.v.v.v.v.v.v.v.v.v.v.v.v.v.v.v.v.d.v.v.v.v.v.*.G - o % -XAXAXfXo { J.7 % AXAXAXAXAXAXAX",
"AXAXAXAXAXAXx P y.v.v.v.v.v.v.v.v.d.v.v.v.v.v.v.v.v.v.v.v.v.v.v.v.v.h - $ -.v.v.v.v.v.:.Y < o o hXAXAXAX# ] J.0 o fXAXAXAXAXAXAX",
"AXAXAXAXAXAX^.v ,.v.v.v.v.v.v.J - #.u.p.v.v.v.v.v.v.v.v.v.v.v.Y g 1 & _.Z #.v.v.v.v.v.h o o o { fXAXAXL.@ > , $ o 8XAXAXAXAXAXAX",
"AXAXAXAXAXAXR.9 #.v.v.v.v.v.v.h + $ 2 R 2.,.e.v.v.v.v.v.v.v.L , L.;X<XfX~ T v.v.v.v.r.h o o ' wXAX^.! 2 o A d o L.AXAXAXAXAXAXAX",
"AXAXAXAXAXAX3 o 8 >.v.v.v.v.H $ ~.AX' 3 0 < G #.T 3.v.v.R j ( _.3XAXAXAX` U v.v.v.v.,.8 o o >X[.' N S ` h ~ U.v [ AXAXAXAXAXAXAX",
"AXAXAXAXAXAX0 o o I v.v.v.v.z o E.AXAXAXAXT.v 2 2 =.v.v.G ! -XdXAXAXAXL.$ L v.v.v.v.v.H o o c ~ F ` L.J.Z ; , % ` AXAXAXAXAXAXAX",
"AXAXAXAXAX*X3 0 0 2 #.v.v.v.1.h L.xXqXwXAX1X_.! #.v.v.v.J l '.oX! w 6 = H v.v.v.v.v.v.K o 3 Z [ J.J.) 0 > o o o {.AXAXAXAXAXAXAX",
"AXAXAXAX:XA 6 [ S g 1.v.v.v.p.K ~ ) o ' >X' : Y v.v.v.v.<.h 9 l * o o k p.v.v.v.v.v.v.L 1 ( J.X.S z 2 9 ; o o o '.AXAXAXAXAXAXAX",
"AXAXAX<X~ 2 _ J.F z v.v.v.v.v.i.P # * ; < 2 P v.v.v.v.v.v.3.K h K <.7.u.v.v.v.v.v.v.v.R k ! D k l A x < o o o o (.AXAXAXAXAXAXAX",
"AXAX2X{ 0 Q J.J.! j v.v.v.v.v.v.a.v.v.v.v.v.v.v.v.v.v.v.v.v.y.5.t.v.v.v.v.v.v.v.v.v.v.q.G o 9 ~ Z 8 o o o o o o E.AXAXAXAXAXAXAX",
"AX9XL.n L.J.J.J.( 7 >.v.v.v.v.v.v.v.v.v.v.v.v.v.v.v.v.v.v.v.v.v.v.v.v.v.v.v.v.v.v.v.v.v.#.o 9 v o o o o o o o o L.AXAXAXAXAXAXAX",
"tXR.1 F [ L.D A h 7 q.v.v.v.v.v.v.v.v.v.v.v.v.v.v.v.v.v.v.v.v.9.j 7 K v.v.v.v.v.v.v.v.v.4.h o o o o o o o o o ' hXAXAXAXAXAXAXAX",
"$X* 0 9 < M o o o 7 v.v.v.v.v.v.v.v.v.v.v.v.v.v.v.v.v.v.q.j h 7 q _.7 v.v.v.v.v.v.v.v.v.v.1.o o o o o A %X;X<XeXAXAXAXAXAXAXAXAX",
";X1 ' ~ % o o o o = h z v.v.v.v.v.v.v.v.v.i.-.#.T U L J h - R U = 0 $ 7 v.v.v.v.v.v.v.v.v.9.o o 9 L.`.;XAXAXAXAXAXAXAXAXAXAXAXAX",
",X$ 8 8 o o o o o o o & h v.v.v.v.v.v.v.v.q.& N & k G J L T v.e.1 : E.- v.v.v.v.v.v.a.7.v.r.# ) '.qXAXAXAXAXAXAXAXAXAXAXAXAXAXAX",
"4X- J.L.o o o o o o o o # 7 v.v.v.v.v.v.v.y.> qX* v.v.v.v.v.v.a.:.# 6 e.v.v.v.v.v.a.*.h T P # %XAXAXAXAXAXAXAXAXAXAXAXAXAXAXAXAX",
"4X% J.K.o o o o o o o @ 2 <.v.v.v.v.v.v.v.a.8 ].@ w.v.v.v.v.v.v.d.o 5.v.v.v.v.v.v.v.@ o o o 2 xXAXAXAXAXAXAXAXAXAXAXAXAXAXAXAXAX",
"$Xo J.J.# o 2 / o o o o * p.v.v.v.v.v.v.v.v.v.h # z p.v.v.v.v.v.v.<.a.v.v.v.v.v.v.1.& o o o q AXAXAXAXAXAXAXAXAXAXAXAXAXAXAXAXAX",
";Xo ` J.= 3 L.4XY.} o o o 1 y.v.v.v.v.v.v.v.v.v.k j u.v.v.v.v.v.v.v.v.v.v.v.v.v.i.; 6 0 k & > L.qXAXAXAXAXAXAXAXAXAXAXAXAXAXAXAX",
",Xo o L.b & 1XAXAXeXE.o o o > w.v.v.v.v.v.v.v.v.v.v.v.v.v.v.v.v.v.v.v.v.v.v.v.r.R - Q L.J.S n - / L.5XAXAXAXAXAXAXAXAXAXAXAXAXAX",
"4Xo o X.J.1 >XAXAXAXfX_.o o o - 2.v.v.v.v.v.v.v.v.v.v.v.v.v.v.v.v.v.v.v.v.v.u.1 o o o D ( ! L.! D 9 A ' <XAXAXAXAXAXAXAXAXAXAXAX",
"yXo o | J.5 =XAXAXAXhXZ o o o #.a.v.v.v.v.v.v.v.v.v.v.v.v.v.v.v.v.v.v.v.v.7 o o o o o < 4 = v S M ; o ; #XAXAXAXAXAXAXAXAXAXAXAX",
"AX# o S L.0 E.0XAXAXAX% o o o = *.v.a.v.v.v.v.v.v.v.v.v.v.v.v.v.v.v.v.v.2.7 o o o o o `._.! ' { 0 o M 8 '.AXAXAXAXAXAXAXAXAXAXAX",
"AX; o o _ h q &XAXAXAXXX- o o o & @ #.v.v.v.v.v.v.v.v.v.v.v.v.v.v.v.v.v.j o o o o o o o o o { L.! o 8 > ).AXAXAXAXAXAXAXAXAXAXAX",
"AXC $ o b 6 o ).AXAXAXAX].* S L.L.l U e.u.v.v.v.v.v.v.v.v.v.v.v.v.v.J ; $ o o o o o o o o o o o 9 k Q 0 W.AXAXAXAXAXAXAXAXAXAXAX",
"AXAX9 o 3 v 2 L.wXAXAXAXP.D L.J.] 5 o o J 1.w.v.<.U L ,.v.v.v.v.v.v.G o o o o o < q - o o o o o o D ( < ] AXAXAXAXAXAXAXAXAXAXAX",
"AXAXz o ! R.N l ].AXAX).A | J.L.l o o o o o J 1.h o o 8 H k h R v.U = o o o * 1 (.eX' Z ! 2 o o 9 | S % _.AXAXAXAXAXAXAXAXAXAXAX",
"AXAXM o d ~ q o { AX].9 n K.J.F $ o o o o o 8 g o o o o o o o , 8 : o o o o }.AXAXAXAXAXAXQ.~ 0 S J.F o '.AXAXAXAXAXAXAXAXAXAXAX",
"AXAX~ $ o o < / OXAXE.o : 5 1 = o o o o o o o o o o o o o o o o o o o o o _.AXAXAXAXAXAXAXaXY.7 } { 6 o ).AXAXAXAXAXAXAXAXAXAXAX",
"AXAX).0 o o o ).AXAX(.0 ' Z o o o o o o o o o o o o o o o o o o o o o o o ~.AXAXAXAXAXAXAX;XS A J.( o o W.AXAXAXAXAXAXAXAXAXAXAX",
"AXAXAX' o o o L.wXAX`.: 0 < o o o o = : * o o o o o o o o o o o o o o o L.AXAXAXAXAXAXAXAX}.3  .o.0 o o L.AXAXAXAXAXAXAXAXAXAXAX",
"AXAXAX] o o o l ].AX Xo ; 0 o o o L.AX&X! 1 o o = n x o o o o o o o o ' dXAXAXAXAXAXAXAX7X[ 7 J.{ o o ! <XAXAXAXAXAXAXAXAXAXAXAX",
"AXAXAXL.o o o o { AXP.1 { _ o o ' xXAXAXAX(.4 o b $X+X{ P.Q.! o o o / qXAXAXAXAXAXAXAXAX;X= D J. .o o ' AXAXAXAXAXAXAXAXAXAXAXAX",
"AXAXAX].! ) ' { OXAX[ 2 J...o b aXAXAXAXAXAX'.C ^.AXAXAXAXAX,X].OX=X2XAXAXAXAXAXAXAXAXAX,X, J.L.v o q [.AXAXAXAXAXAXAXAXAXAXAXAX",
"AXAXAXAXAXAXAXAXAXAXU., J.K.] > AXAXAXAXAXAXAXAXAXAXAXAXAXAXAXAXAXAXAXAXAXAXAXAXAXAXAXgX^.* F A o o A eXAXAXAXAXAXAXAXAXAXAXAXAX",
"AXAXAXAXAXAXAXAXAXAX^.- J.J.L.> AXAXAXAXAXAXAXAXAXAXAXAXAXAXAXAXAXAXAXAXAXAXAXAXAXAXAXiX# x n N o o C AXAXAXAXAXAXAXAXAXAXAXAXAX",
"AXAXAXAXAXAXAXAXAXAX].$ J.J.J.@ 1 AXAXAXAXAXAXAXAXAXAXAXAXAXAXAXAXAXAXAXAXAXAXAXAXAXAXAXb ^ ~ T.# > [ AXAXAXAXAXAXAXAXAXAXAXAXAX",
"AXAXAXAXAXAXAXAXAXAX*Xo 0 | 2 o o fXAXAXAXAXAXAXAXAXAXAXAXAXAXAXAXAXAXAXAXAXAXAXAXAXAXAX'.o o Z $ 6 ,XAXAXAXAXAXAXAXAXAXAXAXAXAX",
"AXAXAXAXAXAXAXAXAXAX;Xo o 1 @ ~ * 7XAXAXAXAXAXAXAXAXAXAXAXAXAXAXAXAXAXAXAXAXAXAXAXAXAXAX,Xo o o o 4 AXAXAXAXAXAXAXAXAXAXAXAXAXAX",
"AXAXAXAXAXAXAXAXAXAX<Xo o o o - ;XAXAXAXAXAXAXAXAXAXAXAXAXAXAXAXAXAXAXAXAXAXAXAXAXAXAXgX^.o o o - ^.AXAXAXAXAXAXAXAXAXAXAXAXAXAX",
"AXAXAXAXAXAXAXAXAXAX5Xo o o o ; lXAXAXAXAXAXAXAXAXAXAXAXAXAXAXAXAXAXAXAXAXAXAXAXAXAXAXiXo o o o = AXAXAXAXAXAXAXAXAXAXAXAXAXAXAX"
};
