/* XPM */
static char *uhooi_dancing_3[] = {
/* columns rows colors chars-per-pixel */
"64 64 256 2 ",
"   c black",
".  c black",
"X  c black",
"o  c black",
"O  c black",
"+  c black",
"@  c #010101",
"#  c #020201",
"$  c #030302",
"%  c #040302",
"&  c #050403",
"*  c #050604",
"=  c #070806",
"-  c #080A08",
";  c #0A0C09",
":  c #0D0F0C",
">  c #0F120E",
",  c #11140F",
"<  c #121511",
"1  c #141712",
"2  c #151812",
"3  c #161912",
"4  c #171912",
"5  c #181912",
"6  c #191912",
"7  c #1A1912",
"8  c #1B1912",
"9  c #1D1911",
"0  c #221911",
"q  c #281810",
"w  c #2B1810",
"e  c #2E1910",
"r  c #301A11",
"t  c #2F1B11",
"y  c #2E1C13",
"u  c #2C1D15",
"i  c #27221A",
"p  c #24241D",
"a  c #24271F",
"s  c #242A21",
"d  c #252C23",
"f  c #273024",
"g  c #283425",
"h  c #2E3426",
"j  c #323426",
"k  c #373327",
"l  c #3B3229",
"z  c #403229",
"x  c #473329",
"c  c #42342C",
"v  c #3E3730",
"b  c #3C3832",
"n  c #3A3935",
"m  c #3B3B36",
"M  c #3D3D37",
"N  c #3F3F38",
"B  c #414039",
"V  c #42423B",
"C  c #42443A",
"Z  c #424739",
"A  c #41493A",
"S  c #414D39",
"D  c #404F39",
"F  c #405139",
"G  c #405338",
"H  c #405438",
"J  c #405639",
"K  c #40583A",
"L  c #415A3A",
"P  c #425B3C",
"I  c #44593E",
"U  c #455841",
"Y  c #475743",
"T  c #485645",
"R  c #4B5648",
"E  c #4E574C",
"W  c #50584E",
"Q  c #51574F",
"!  c #525750",
"~  c #535851",
"^  c #545852",
"/  c #555854",
"(  c #575955",
")  c #595A57",
"_  c #5B5B59",
"`  c #5D5E5B",
"'  c #5F605D",
"]  c #636361",
"[  c #666563",
"{  c #686866",
"}  c #6C6B68",
"|  c #6E6C6A",
" . c #6F6E6A",
".. c #706F6B",
"X. c #72716C",
"o. c #73726D",
"O. c #73736D",
"+. c #72736C",
"@. c #71736B",
"#. c #6F7468",
"$. c #6B7665",
"%. c #677C61",
"&. c #64835E",
"*. c #618B5A",
"=. c #609258",
"-. c #609658",
";. c #629B5A",
":. c #66A45C",
">. c #69AC5F",
",. c #6DB562",
"<. c #70BA64",
"1. c #72BE67",
"2. c #75C369",
"3. c #77C56B",
"4. c #78C86C",
"5. c #79C96D",
"6. c #7ACA6D",
"7. c #7ACB6E",
"8. c #7BCD6F",
"9. c #7CCE6F",
"0. c #7DCF70",
"q. c #7DD071",
"w. c #7DD171",
"e. c #7ED171",
"r. c #7ED272",
"t. c #7FD372",
"y. c #7FD473",
"u. c #7FD473",
"i. c #80D473",
"p. c #80D573",
"a. c #80D573",
"s. c #80D573",
"d. c #80D573",
"f. c #80D573",
"g. c #80D573",
"h. c #80D573",
"j. c #80D573",
"k. c #80D573",
"l. c #80D573",
"z. c #80D573",
"x. c #80D573",
"c. c #80D573",
"v. c #80D573",
"b. c #80D573",
"n. c #80D574",
"m. c #81D574",
"M. c #81D574",
"N. c #81D574",
"B. c #81D574",
"V. c #81D574",
"C. c #81D574",
"Z. c #81D275",
"A. c #83C478",
"S. c #85B97A",
"D. c #86B17C",
"F. c #87AB7E",
"G. c #8AA282",
"H. c #8B9B85",
"J. c #8C9687",
"K. c #8E948B",
"L. c #91938D",
"P. c #92948F",
"I. c #939491",
"U. c #959593",
"Y. c #969694",
"T. c #989997",
"R. c #9B9C9A",
"E. c #9F9F9F",
"W. c gray63",
"Q. c #A2A2A2",
"!. c #A2A2A2",
"~. c gray64",
"^. c #A4A4A4",
"/. c #A5A5A5",
"(. c gray65",
"). c #A7A7A7",
"_. c gray66",
"`. c #AAAAAA",
"'. c #ACACAC",
"]. c #AEAEAE",
"[. c #B1B1B1",
"{. c gray70",
"}. c #B4B4B4",
"|. c #B6B6B6",
" X c gray72",
".X c gray73",
"XX c #BBBBBB",
"oX c gray",
"OX c gray",
"+X c gray75",
"@X c gray75",
"#X c #C0C0C0",
"$X c #C0C0C0",
"%X c #C1C1C1",
"&X c gray76",
"*X c #C3C3C3",
"=X c gray77",
"-X c #C5C5C5",
";X c #C6C6C6",
":X c #C8C8C8",
">X c #C8C8C8",
",X c #CACACA",
"<X c #CBCBCB",
"1X c #CDCDCD",
"2X c #CECECE",
"3X c gray81",
"4X c gray82",
"5X c #D2D2D2",
"6X c gray83",
"7X c #D5D5D5",
"8X c #D7D7D7",
"9X c gray86",
"0X c #DDDDDD",
"qX c #DFDFDF",
"wX c #E1E1E1",
"eX c gray90",
"rX c #E7E7E7",
"tX c #EAEAEA",
"yX c #ECECEC",
"uX c #EEEEEE",
"iX c #EFEFEF",
"pX c gray94",
"aX c #F1F1F1",
"sX c gray95",
"dX c #F4F4F4",
"fX c gray96",
"gX c gray96",
"hX c #F6F6F6",
"jX c gray97",
"kX c #F8F8F8",
"lX c #F9F9F9",
"zX c gray98",
"xX c gray98",
"cX c #FBFBFB",
"vX c #FBFBFB",
"bX c #FBFBFB",
"nX c #FBFBFB",
"mX c gray99",
"MX c gray99",
"NX c gray99",
"BX c #FDFDFD",
"VX c #FDFDFD",
"CX c #FEFEFE",
"ZX c #FEFEFE",
"AX c #FEFEFE",
"SX c #FEFEFE",
"DX c #FEFEFE",
"FX c #FEFEFE",
"GX c #FEFEFE",
"HX c #FEFEFE",
"JX c #FEFEFE",
"KX c #FEFEFE",
"LX c #FEFEFE",
"PX c white",
"IX c None",
"UX c white",
/* pixels */
"IXIXIXIXIXIXIXIXIXIXIXIXIXIXIXIXIXIXIXIXIXIXIXIXIXIXIXIXIXIXIXIXIXIXIXIXIXIXIXIXIXIXIXIXIXIXIXIXIXIXIXIXIXIXIXIXIXIXIXIXIXIXIXIX",
"IXIXIXIXIXIXIXIXIXIXIXIXIXIXIXIXIXIXIXIXIXIXIXIXIXIXIXIXIXIXIXIXIXIXIXIXIXIXIXIXIXIXIXIXIXIXIXIXIXIXIXIXIXIXIXIXIXIXIXIXIXIXIXIX",
"IXIXIXIXIXIXIXIXIXIXIXIXIXIXIXIXIXIXIXIXIXIXIXIXIXIXIXIXIXIXIXIXIXIXIXIXIXIXIXIXIXIXIXIXIXIXIXIXIXIXIXIXIXIXIXIXIXIXIXIXIXIXIXIX",
"IXIXIXIXIXIXIXIXIXIXIXIXIXIXIXIXIXIXIXIXIXIXIXIXIXIXIXIXIXIXIXIXIXIXIXIXIXIXIXIXIXIXIXIXIXIXIXIXIXIXIXIXIXIXIXIXIXIXIXIXIXIXIXIX",
"IXIXIXIXIXIXIXIXIXIXIX-XVXIXIXIX-XVXIXIXIXIXIXIXIXIXIXIXIXIXIXIXIXIXIXIXIXIXIXIXIXIXIXIXIXIXIXIXIXIXIXIXIXIXIXIXIXIXIXIXIXIXIXIX",
"IXIXIXIXIXIXIXIXIXIXyXV 8XIXIXyXV 8XIXIXIXIXIXIXIXIXIXIXIXIXIXIXIXIXIXIXIXIXIXIXIXIXIXIXIXIXIXIXIXIXIXIXIXIXIXIXIXIXIXIXIXIXIXIX",
"IXIXIXIXIXIXIXIXIXFX9X: E.IXFX9X: E.IXIXIXIXIXIXIXIXIXIXIXIXIXIXIXIXIXIXIXIXIXIXIXIXIXIXIXIXIXbX.XgXIXIXbX.XgXIXIXIXIXIXIXIXIXIX",
"IXIXIXIXIXIXIXIXIXbX=X; ] IXbX=X; ] IXIXIXIXIXIXIXIXIXIXIXIXIXIXIXIXIXIXIXIXIXIXIXIXIXIXIXIXMX3Xd J.FXMX3Xd J.FXIXIXIXIXIXIXIXIX",
"IXIXIXIXIXIXIXIXIXgX^.% n yXgX^.$ n yXIXIXIXIXIXIXIXIXIXIXIXIXIXIXIXIXIXIXIXIXIXIXIXIXIXIXIXgX^.& j .XgX^.# d .XIXIXIXIXIXIXIXIX",
"IXIXIXIXIXIXIXIXIXeXO.; k `.eXo.o p `.IXIXIXIXIXIXIXIXIXIXIXIXIXIXIXIXIXIXIXIXIXIXIXIXIXIXIXrXX.; q ' eX .o ; ' bXIXIXIXIXIXIXIX",
"IXIXIXIXIXIXIXIXIX8X/ = 8 ] 1X~ o ; ] dXIXIXIXIXIXIXIXIXIXIXIXIXIXIXIXIXIXIXIXIXIXIXIXIXIXIX8XR q 9 n [.Z o # n 5XIXIXIXIXIXIXIX",
"IXIXIXIXIXIXIXIXIX2XR & ; j K.T o @ h ].kXIXIXIXIXIXIXIXIXIXIXIXIXIXIXIXIXIXIXIXIXIXIXIXIXIXoXa x x l { 7 o o 6 K.IXIXIXIXIXIXIX",
"IXIXIXIXIXIXIXIXIX;XT = - ; j h o o - V [.iXIXIXIXIXIXIXIXIXIXIXIXIXIXIXIXIXIXIXIXIXIXIXIXgXY.; y x x j $ o o * / rXIXIXIXIXIXIX",
"IXIXIXIXIXIXIXIXIX:XE q e ; = > o o o * n T.wXMXIXIXbXMXIXIXIXIXIXIXIXIXIXIXIXIXIXIXIXIXIX6X' ; w t x i o o o o n Q.<X9XsXhX9X<X",
"IXIXIXIXIXIXIXIXIXwX[ : e e w q - # o o @ p _ }.wXyX:X&XdXIXIXIXIXIXIXIXIXIXIXIXIXIXIXIXeXO.u x y e x q o o o o p T m T /.$X` d ",
"IXIXIXIXIXIXIXIXIXxXI.i q t y y e & & & @ * & , ( o.j < O.eXIXIXwX'.@XgXIXsX,X3XgXIXIXjXK.i w x t y x 0 o o o o 1 8 k 9 } ..# o ",
"IXIXIXIXIXIXIXIXIXIX5XQ 9 e t t e w t e = h F ; o o o o : O.8XL.n 4 ~ .XW.} B { :XsXeXJ.j t e ; e x x 9 o o o o 1 7 a ; { ) o o ",
"IXIXIXIXIXIXIXIXIXIXlXU.p t x x x x x x u =.2.h & o @ s 3 < d f G g 3 a 7 = - p M ) j = r x x w y x e * o o o o 1 A $.f } T o o ",
"IXIXIXIXIXIXIXIXIXFXrX}.B y x x x x x w L 1.m.:.s : L :.:.*.*.;.<.*.s , s g L L , = e q q x x x r e 0 & o o o o p ] H.h } n o o ",
"IXIXIXIXIXIXIXIXIXE.( R h 4 t 9 g g , 3 :.n.m.m.>.,.4.t.i.0.r.n.m.,.&.&.:.4.n.,.f x x x q x x t q x t & o o o o f #.O.d { p o o ",
"IXIXIXIXIXIXIXIXiXV L *.*.R L g :.8.H L 1.m.m.m.g.g.m.m.m.m.m.m.m.m.m.m.m.m.m.,.s x x x q x x ; y x w # o o o o C J.$.f / > o o ",
"IXIXIXIXIXIXIXIXeXp -.q.m.m.8.,.q.m.=.:.0.m.m.m.m.m.m.m.m.m.m.m.m.m.m.m.m.m.m.0.H 9 x x x x 0 t x t & o o o o > E J.( V C - o o ",
"IXIXIXIXIXIXIXIXjXn R 9.m.m.m.m.m.m.m.m.m.m.m.m.m.m.m.m.m.m.m.m.m.m.m.m.m.m.m.m.8.P : o * y x x e & o o o o N n W H.T ( Z = o o ",
"IXIXIXIXIXIXIXIXIXO.g 8.m.m.m.m.m.m.2.1.q.m.m.m.m.m.m.m.m.m.m.m.m.m.m.m.m.m.8.q.m.g.;.h P 5 0 e % o o o o j &XV ^ H.n ..N * o o ",
"IXIXIXIXIXIXIXIXIX>X: ,.m.m.m.m.m.0.L H -.5.g.m.m.m.m.m.m.m.m.m.m.m.m.y.2.:.&.-.t.m.m.m.e.<.L - o o o o o T eXd _ H.5 T.d # o o ",
"IXIXIXIXIXIXIXIXIXuXB L m.m.m.m.i.;.3 E p L <.m.m.m.m.m.m.m.m.m.m.q.:.&.L m j > 7.m.m.m.m.g.2.L o o o o o < O.< $.H.- @X< o o o ",
"IXIXIXIXIXIXIXIXkX[.n 3 <.m.m.m.8.L E kXoXn : 6 J =.8.m.m.m.m.r.;.P A T _ T.:X, ;.m.m.m.g.,.g > o o o o = C Q.< $.J.- <X> o o = ",
"IXIXIXIXIXIXVXwX .n m 3 *.m.m.m.3.L { FXMXdXXXL.E 3 s =.m.m.8.&.h Q J.:XhXFXqXf =.m.m.m.8.I & o o o & n @X].L.: A R 6 L.- o @ p ",
"IXIXIXIXIXlX-XQ b ) ~ 3 =.m.m.m.4.U Z wX>X4XMXFX0X` , -.m.m.<.g O.,XbXbXMXpXT.4 >.m.m.m.3.L o o o o - N O.! d , h , 5 8 o o = Q ",
"IXIXIXIXiXR.h C @.H.' 5 ,.m.m.m.r.;.g / > d oXW.n s =.7.m.m.>.f R.dXoXY.]./.m L m.m.m.m.8.&.o o o o @ 5 B S b h O.h o o o o : { ",
"IXIXFXeXJ.d R J.G.G.$.g >.m.m.m.m.4.&.5 : : : > L ,.9.m.m.m.1.L T K.V * 7 m L 4.m.m.m.m.g.:.< o & 4 A ` O.J.! i ' l o o o o , O.",
"IXFXqX..1 Y J.G.H.J.^ g ;.m.m.m.m.m.e.,.=.=.;.4.q.i.m.m.m.m.q.:.L S g g h R 4.m.m.m.m.m.t.=.= 5 W $.J.J.$.E b = 6 : o & < p N ^.",
"IXdXJ.= : 6 T _ n d s L <.m.m.m.m.m.m.m.m.m.m.m.m.m.m.m.m.m.m.0.,.;.;.:.2.m.m.m.m.m.m.m.g.=.a ) J.@.W m p ; @ o $ 1 C ] J.T.}.sX",
"IXtXo.k Q a : p * o = H ,.i.m.m.m.m.m.m.m.m.m.m.m.m.m.m.m.m.m.m.m.m.m.m.m.m.m.m.m.m.m.m.m.:.h f b p , & o o > n  .^.>XrXVXIXIXIX",
"IXrX{ # = - _ Q o o & f K ;.q.m.m.m.m.m.m.m.m.m.m.m.m.m.m.m.m.g.3.>.=.-.2.m.m.m.m.m.m.m.m.5.L - * o o o 8 [ (.=XwXFXIXIXIXIXIXIX",
"IXrX` m T d J.` o o : | ' G ;.8.m.m.m.m.m.m.m.m.m.m.m.i.3.>.=.I K g h h &.8.m.m.m.m.m.m.m.g.=.3 o o o o p R.kXIXIXIXIXIXIXIXIXIX",
"IXrX/ W O.h J.! o o # L.{.M H ,.m.m.m.m.m.m.r.L < 3 s g g g g F L g C R G >.m.m.m.m.m.m.m.m.1.h @ o o o - ..eXIXIXIXIXIXIXIXIXIX",
"IXlX/ R J.n O.Q o o o o.O.m P 1.m.m.m.m.m.m.m.K m p h U *.=.;.>.2.U T [ S -.m.m.m.m.m.m.m.m.t.L $ o o o o { 0XIXIXIXIXIXIXIXIXIX",
"IXIX{ T J.Z } ) ; o o ( V g :.y.m.m.m.m.m.m.m.D j a =.5.9.i.m.m.m.=.j m F :.m.m.m.m.m.m.m.m.m.L = o o o o ] 9XIXIXIXIXIXIXIXIXIX",
"IXIXJ.C O.W R  .1 o o n K.A L >.r.m.m.m.m.m.m.=.4 & L 2.m.m.m.m.m.-.f g =.5.m.m.m.m.m.1.=.=.;.D - o o o o ` 9XIXIXIXIXIXIXIXIXIX",
"IXIX].h O.$.p J.p o o : $X`.T L >.r.m.m.m.m.m.g.>.F L 1.m.m.m.m.m.<.R :.q.m.m.m.m.m.g.L > ; > ; $ ; 6 8 p J.rXIXIXIXIXIXIXIXIXIX",
"IXIX0Xp $.H.5 I.p o o @ _.jX].p P 5.m.m.m.m.m.m.i.4.2.e.m.m.m.m.m.m.m.m.m.m.m.m.m.m.>.3 @ o o o $ W.0X9X4XeXxXIXIXIXIXIXIXIXIXIX",
"IXIXIXj E H.a L.j $ o o L.qXL.f Y 8.m.m.m.m.m.m.m.m.m.m.m.m.m.m.m.m.m.m.m.m.m.m.m.0.F = o o o o $ a Z O.oXhXIXIXIXIXIXIXIXIXIXIX",
"IXIXIX| M H.h J.} * o o O...1 g -.6.m.m.m.m.m.m.m.m.m.m.m.m.m.m.m.m.m.m.m.m.m.5.2.I : E ) T f = o # * , a ` <XbXIXIXIXIXIXIXIXIX",
"IXIXIXO.p H.h [ O.o o o [ Q : f 4 &.>.q.m.m.m.m.m.m.m.m.m.m.m.m.m.m.m.m.m.m.1.I 4 $ - m $.J.J.$.h $ o o o ; B W.dXIXIXIXIXIXIXIX",
"IXIXbX(.$ > ; R (.o o $ R I.> n m a s >.m.m.m.m.m.m.m.m.m.m.m.m.m.m.m.m.m.<.h o o o o $ - 1 m $.$.Y - o o o # d ..%XFXIXIXIXIXIX",
"IXIXhXY.: { ~ p  .o o @ 5 n m J.H.] > P 2.q.m.m.m.m.m.m.m.m.m.m.m.m.m.g.1.F o o o o & m oX(._ p a f - 5 # o o o ; R uXIXIXIXIXIX",
"IXIXiXO.a L.L.N B o o o ; h O.H.#.h + = g *.r.m.m.m.m.m.m.m.m.m.m.t.1.-.L # o o o & j :XFXhXeX-XR.n - V > J.j o o < 7XIXIXIXIXIX",
"IXIXbX$Xp p j d { 8 o $ 7 $.H.#.j $ o o o - L 6.-.g h L ;.3.m.m.m.6.Y 4 ; o o o @ p ~.IXIXIXIXFXwXR * a p ,XR o o p eXIXIXIXIXIX",
"IXIXIXxX5XT.J.U.7X<X[ > 2 T ) M - o o o : V p h s ] ` : 4 g P -.1.<.h o o o o * p ..dXIXIXIXIXlXoXd S h n oX5 o # n IXIXIXIXIXIX",
"IXIXIXIXMXdXuXiXMXuXK.8 C a p d o o o - R @XL.> ) uX0XO.; j ( S J L f d p $ o p K.eXIXIXIXIXIX0X] b @.Z _ _ o o > { IXIXIXIXIXIX",
"IXIXIXIXIXIXIXIXIXiXK.p ~ h a ) o o o d ~.IXyX&X7XIXIXyX$X;X1X^.X._ O. X^.| / J.eXIXIXIXIXIXtXK.j $.] n ] > o o h {.IXIXIXIXIXIX",
"IXIXIXIXIXIXIXIXIXyXO.1 b i Z } o o o R 8XIXIXVXMXIXIXIXVXMXIXxXrX8XiXIXxXrX8XiXIXIXIXIXIXVX|.N W O.T N a o o & / yXIXIXIXIXIXIX",
"IXIXIXIXIXIXIXIXIXtXO.h $.C Q ] o o o ! 9XIXIXIXIXIXIXIXIXIXIXIXIXIXIXIXIXIXIXIXIXIXIXIXIX8X{ C J.$.m m * o o p Y.IXIXIXIXIXIXIX",
"IXIXIXIXIXIXIXIXIXrX{ T G.~ Q / o o o R 1XIXIXIXIXIXIXIXIXIXIXIXIXIXIXIXIXIXIXIXIXIXIXIXIX(.V ' J.T M p o o @ / 8XIXIXIXIXIXIXIX",
"IXIXIXIXIXIXIXIXIXwX` R G.' C V o o o h {.IXIXIXIXIXIXIXIXIXIXIXIXIXIXIXIXIXIXIXIXIXIXIXuXo.C J.$.C V & o o 6 I.lXIXIXIXIXIXIXIX",
"IXIXIXIXIXIXIXIXIXaX' T H.O.n n # o o : L.hXIXIXIXIXIXIXIXIXIXIXIXIXIXIXIXIXIXIXIXIXIXIX{.T ( G.~ B d o o o B @XIXIXIXIXIXIXIXIX",
"IXIXIXIXIXIXIXIXIXVX| S J.H.Z h - o o o ] 9XIXIXIXIXIXIXIXIXIXIXIXIXIXIXIXIXIXIXIXIXIXMXo.C O.J.m n ; o o o O.eXIXIXIXIXIXIXIXIX",
"IXIXIXIXIXIXIXIXIXIXJ.n ) $.m d < o o o M <XIXIXIXIXIXIXIXIXIXIXIXIXIXIXIXIXIXIXIXIXIXeXE R H.' n n @ o o p ].xXIXIXIXIXIXIXIXIX",
"IXIXIXIXIXIXIXIXIXIXK.p d b p p 1 o o o h <XIXIXIXIXIXIXIXIXIXIXIXIXIXIXIXIXIXIXIXIXIXJ.8 : s p n 4 o o o ` 8XIXIXIXIXIXIXIXIXIX",
"IXIXIXIXIXIXIXIXIXIX].p 9 j i n p @ o # T 9XIXIXIXIXIXIXIXIXIXIXIXIXIXIXIXIXIXIXIXIXIX[ V ` R 4 b : o o o O.tXIXIXIXIXIXIXIXIXIX",
"IXIXIXIXIXIXIXIXIXIXrXJ.) Q _ `.J.T M (  XhXIXIXIXIXIXIXIXIXIXIXIXIXIXIXIXIXIXIXIXIXIXE.a V ~ 4 _ 6 o o o L.iXIXIXIXIXIXIXIXIXIX",
"IXIXIXIXIXIXIXIXIXIXIXeX X{.wXMXeX X{.wXMXIXIXIXIXIXIXIXIXIXIXIXIXIXIXIXIXIXIXIXIXIXIXxXE.Q j R <XR.T p C 3XbXIXIXIXIXIXIXIXIXIX",
"IXIXIXIXIXIXIXIXIXIXIXIXIXIXIXIXIXIXIXIXIXIXIXIXIXIXIXIXIXIXIXIXIXIXIXIXIXIXIXIXIXIXIXIXhXeX6X8XxXhXeX6X8XxXIXIXIXIXIXIXIXIXIXIX"
};
