/* XPM */
static char *uhooi_dancing_2[] = {
/* columns rows colors chars-per-pixel */
"64 64 256 2 ",
"   c black",
".  c black",
"X  c black",
"o  c black",
"O  c black",
"+  c #010101",
"@  c #030302",
"#  c #040504",
"$  c #070806",
"%  c #0A0B09",
"&  c #0D0E0B",
"*  c #0F110E",
"=  c #10120F",
"-  c #111410",
";  c #131612",
":  c #151813",
">  c #181B14",
",  c #1A1D15",
"<  c #1C1F16",
"1  c #1D1F16",
"2  c #1E1F17",
"3  c #202017",
"4  c #211E16",
"5  c #231D15",
"6  c #261B13",
"7  c #2A1912",
"8  c #2C1912",
"9  c #301A11",
"0  c #311A12",
"q  c #321B13",
"w  c #311C15",
"e  c #311E17",
"r  c #2D1F1A",
"t  c #2B221E",
"y  c #292321",
"u  c #2A2523",
"i  c #292624",
"p  c #2A2826",
"a  c #2B2A28",
"s  c #2D2B2A",
"d  c #2D2C2B",
"f  c #2F2E2C",
"g  c #302F2D",
"h  c #35302C",
"j  c #39322C",
"k  c #3C332C",
"l  c #3D332C",
"z  c #3B342C",
"x  c #3A362E",
"c  c #36392F",
"v  c #323B31",
"b  c #323D31",
"n  c #323F30",
"m  c #324130",
"M  c #334330",
"N  c #334530",
"B  c #334730",
"V  c #334930",
"C  c #334B30",
"Z  c #344F30",
"A  c #355330",
"S  c #375332",
"D  c #385334",
"F  c #3B5237",
"G  c #3E503B",
"H  c #414E3E",
"J  c #434F41",
"K  c #464E44",
"L  c #494F47",
"P  c #4C514A",
"I  c #50544D",
"U  c #52554F",
"Y  c #535650",
"T  c #555851",
"R  c #565952",
"E  c #565953",
"W  c #565A53",
"Q  c #565B54",
"!  c #565C54",
"~  c #575D55",
"^  c #575E55",
"/  c #586055",
"(  c #586156",
")  c #596457",
"_  c #5A6758",
"`  c #5B6D58",
"'  c #5C7159",
"]  c #5C7B58",
"[  c #5C8057",
"{  c #5E8358",
"}  c #5F8859",
"|  c #61895B",
" . c #63885E",
".. c #658361",
"X. c #687F65",
"o. c #697F66",
"O. c #6D816A",
"+. c #70826E",
"@. c #738471",
"#. c #758573",
"$. c #778675",
"%. c #788777",
"&. c #7A8878",
"*. c #7B8879",
"=. c #7B897A",
"-. c #7C8A7A",
";. c #7C8C7A",
":. c #7D8E7B",
">. c #7D907B",
",. c #7D927A",
"<. c #7C9479",
"1. c #7C9678",
"2. c #7B9B77",
"3. c #79A273",
"4. c #78A771",
"5. c #78AC70",
"6. c #77B36E",
"7. c #78B96E",
"8. c #78BF6D",
"9. c #79C56D",
"0. c #7AC96E",
"q. c #7ACA6E",
"w. c #7BCB6F",
"e. c #7CCD6F",
"r. c #7CCE70",
"t. c #7DCF70",
"y. c #7DD070",
"u. c #7ED071",
"i. c #7ED171",
"p. c #7ED171",
"a. c #7ED271",
"s. c #7FD272",
"d. c #7FD372",
"f. c #7FD372",
"g. c #7FD372",
"h. c #7FD473",
"j. c #80D473",
"k. c #80D573",
"l. c #80D573",
"z. c #80D573",
"x. c #80D573",
"c. c #80D573",
"v. c #80D573",
"b. c #80D573",
"n. c #80D573",
"m. c #80D573",
"M. c #80D573",
"N. c #81D574",
"B. c #81D574",
"V. c #81D574",
"C. c #81D574",
"Z. c #81D574",
"A. c #81D574",
"S. c #81D175",
"D. c #82CD77",
"F. c #83C879",
"G. c #84C27B",
"H. c #86BC7E",
"J. c #87B581",
"K. c #8AAE85",
"L. c #8CAA88",
"P. c #8DA58A",
"I. c #8FA28D",
"U. c #91A18F",
"Y. c #93A092",
"T. c #979E96",
"R. c #9B9F9A",
"E. c #9D9F9D",
"W. c #9F9F9F",
"Q. c #A0A0A0",
"!. c #A0A0A0",
"~. c gray63",
"^. c gray63",
"/. c #A2A2A2",
"(. c #A2A2A2",
"). c #A5A5A5",
"_. c gray65",
"`. c gray66",
"'. c #AAAAAA",
"]. c #ACACAC",
"[. c #AEAEAE",
"{. c #B1B1B0",
"}. c #B2B2B2",
"|. c #B5B5B4",
" X c #B7B7B7",
".X c #B9B9B8",
"XX c #BBBBBA",
"oX c #BCBCBC",
"OX c gray75",
"+X c #C2C2C1",
"@X c gray77",
"#X c #C6C6C6",
"$X c gray79",
"%X c #CACACA",
"&X c gray80",
"*X c #CDCDCD",
"=X c #CECECE",
"-X c gray81",
";X c #D0D0D0",
":X c #D0D0D0",
">X c #D0D0D0",
",X c gray82",
"<X c #D2D2D2",
"1X c #D2D2D2",
"2X c LightGray",
"3X c #D5D5D5",
"4X c #D7D7D7",
"5X c #D8D8D8",
"6X c #DADADA",
"7X c gray86",
"8X c gainsboro",
"9X c #DDDDDD",
"0X c gray87",
"qX c gray87",
"wX c #DFDFDF",
"eX c #DFDFDF",
"rX c gray88",
"tX c gray88",
"yX c #E1E1E1",
"uX c #E2E2E2",
"iX c gray89",
"pX c gray90",
"aX c #E6E6E6",
"sX c #E7E7E7",
"dX c gray91",
"fX c #E9E9E9",
"gX c #EAEAEA",
"hX c gray92",
"jX c #ECECEC",
"kX c gray93",
"lX c #EEEEEE",
"zX c gray94",
"xX c #F3F3F3",
"cX c gray96",
"vX c #F8F8F8",
"bX c gray98",
"nX c gray99",
"mX c #FDFDFD",
"MX c #FDFDFD",
"NX c #FEFEFE",
"BX c #FEFEFE",
"VX c #FEFEFE",
"CX c #FEFEFE",
"ZX c #FEFEFE",
"AX c None",
"SX c #FEFEFE",
"DX c #FEFEFE",
"FX c #FEFEFE",
"GX c #FEFEFE",
"HX c #FEFEFE",
"JX c #FEFEFE",
"KX c #FEFEFE",
"LX c #FEFEFE",
"PX c #FEFEFE",
"IX c #FEFEFE",
"UX c #FEFEFE",
/* pixels */
"AXAXAXAXAXAXAXAXAXAXAXAXAXAXAXAXAXAXAXAXAXAXAXAXAXAXAXAXAXAXAXAXAXAXAXAXAXAXAXAXAXAXAXAXAXAXAXAXAXAXAXAXAXAXAXAXAXAXAXAXAXAXAXAX",
"AXAXAXAXAXAXAXAXAXAXAXAXAXAXAXAXAXAXAXAXAXAXAXAXAXAXAXAXAXAXAXAXAXAXAXAXAXAXAXAXAXAXAXAXAXAXAXAXAXAXAXAXAXAXAXAXAXAXAXAXAXAXAXAX",
"AXAXAXAXAXAXAXAXAXAXAXAXAXAXAXAXAXAXAXAXAXAXAXAXAXAXAXAXAXAXAXAXAXAXAXAXAXAXAXAXAXAXAXAXAXAXAXAXAXAXAXAXAXAXAXAXAXAXAXAXAXAXAXAX",
"AXAXAXAXAXAXAXAXAXAXAXAXAXAXAXAXAXAXAXAXAXAXAXAXAXAXAXAXAXAXAXAXAXAXAXAXAXAXAXAXAXAXAXAXAXAXAXAXAXAXAXAXAXAXAXAXAXAXAXAXAXAXAXAX",
"AXAXAXAXAXAXAXAXAXAXAXAXAXAXAXAXAXAXAXAXAXAXAXAXAXAXAXAXAXAXAXAXAXAXAXAXAXAXAXAXAXAXAXAXAXAXAXAXAXAXAXAXAXAXAXAXAXAXAXAXAXAXAXAX",
"AXAXAXAXAXAXAXAXAXAXAXAXAXAXAXAXAXAXAXAXAXAXAXAXAXAXAXAXAXAXAXAXAXAXAXAXAXAXAXAXAXAXAXcX=XvXAXAXAXAXAXAXAXAXAXAXAXAXAXAXAXAXAXAX",
"AXAXAXAXAXAXAXAXAXAXAXAXAXAXAXAXAXAXAXAXAXAXAXAXAXAXAXAXAXAXAXAXAXAXAXAXAXAXAXAXAXAXMX4XL Y.AXAXAXAXAXAXAXAXAXAXAXAXAXAXAXAXAXAX",
"AXAXAXAXAXAXvXOXMXAXAXAXAXAXAXAXAXAXAXAXAXAXAXAXAXAXAXAXAXAXAXAXAXAXAXAXAXAXAXAXAXAXnXXX@ p [.cX=XvXAXAXAXAXAXAXAXAXAXAXAXAXAXAX",
"AXAXAXAXAXAXaXg %XAXAXAXAXAXAXAXAXAXAXAXAXAXAXAXAXAXAXAXAXAXAXAXAXAXAXAXAXAXAXAXAXAXnXT.$ 6 v <XL Y.AXAXAXAXAXAXAXAXAXAXAXAXAXAX",
"AXAXAXAXAXAXhX@ *.AXvXOXMXAXAXAXAXAXAXAXAXAXAXAXAXAXAXAXAXAXAXAXAXAXAXAXAXAXAXAXAXAXAXO.6 6 $ *.@ i [.AXAXAXAXAXAXAXAXAXAXAXAXAX",
"AXAXAXAXAXAXpX$ c bXaXg %XAXAXAXAXAXAXAXAXAXAXAXAXAXAXAXAXAXAXAXAXAXAXAXAXAXAXAXAXAXAXJ e l 0 a X + v bXAXAXAXAXAXAXAXAXAXAXAXAX",
"AXAXAXAXAXAX-X= $ #XfX@ *.AXAXAXAXAXAXAXAXAXAXAXAXAXAXAXAXAXAXAXAXAXAXAXAXAXAXAXAXAXxXp q l l & @ X $ }.MXnXjXqXuXbXAXAXAXAXAXAX",
"AXAXAXAXAXAX/.r 6 W 2X$ c bXAXAXAXAXAXAXAXAXAXAXAXAXAXAXAXAXAXAXAXAXAXAXAXAXAXAXAXAX@Xy 9 & l 9 # X X K zXOXY c W 9XAXAXAXAXAXAX",
"AXAXAXAXAXAXI.2 # & T.= $ #XnXAXAXAXAXAXAXAXAXAXAXAXAXAXAXAXAXAXAXAXAXAXAXAXAXAXAXgXo.e l & e q $ X X % (.c s x & {.dXqXuXbXAXAX",
"AXAXAXAXAXAXY., & $ 2 & X E gXAXAXAXAXAXAXAXAXAXAXAXAXAXAXAXAXAXAXAXAXAXAXAXAXAXnXE.u q l 6 l e $ X X X W c , > $ %.P s E 9XAXAX",
"AXAXAXAXAXAXT.y % @ @ @ X % |.bXAXAXzXxXnXAXAXAXAXAXAXAXAXAXAXAXAXAXAXAXAXAXAXAX#XK q 7 8 9 l l % X X X H c H ' i y + X X }.bXAX",
"AXAXAXAXAXAX'.j 0 q & @ X + 2 Q.qXeXE.T.6XMXAXAXzX8XzXAXAXaXT.].kXAXbXjXuX8XqX+XQ e l q 6 q e 7 @ X X X c H ` 2.v 3 X X X W.cXAX",
"AXAXAXAXAXAX6XU & 7 9 e e 9 @ $ x W c 3 %.qXzXqXU.~ |.,X*.c - U %XkX|.%._ ^ X.K - 9 l l l q 8 6 $ X X X g H ' >.v y X X X T.cXAX",
"AXAXAXAXAXAXbXY.i 9 q q 0 & % 9 9 % A J B #.#.L n 3 g c N ] J M J a ; N S < & q q 8 l V l 7 e q $ X X X p G X.#.m y X X X I.cXAX",
"AXAXAXAXAXAXAXeXo.& 7 q q e l M l e { q.[ i & 3 [ } } } 6.q.| Z i ] 7.j.8.A q B l q e l q 9 l q @ X X X y b @.O.G y X X @ I.nXAX",
"AXAXAXAXAXAXAXnXoXK q l B l l l q V 6.C.9.[ F } 0.j.y.p.V.C.s.t.C.C.C.C.8.F q l l l l l 7 e e % X X X X p b O.o.n : X X & I.AXAX",
"AXAXAXAXAXAXAXzX+XO.4 q q & - - * J j.C.C.w.0.j.C.C.C.C.C.C.C.C.C.C.C.C.f.} n r q e e e e e & + X X X X J m o.X.v & X X , T.AXAX",
"AXAXAXAXAXAX-X~ d i , ; # C 9.} N } C.C.C.C.C.C.C.C.C.C.C.C.C.C.C.C.C.C.C.f.6.F 2 , t 0 q 8 + X X X X < o.v o.X.f = X X i Q.AXAX",
"AXAXAXAXAXbX_.i } 7.9.9.6.6.C.7.} 8.C.C.C.C.C.C.C.C.C.C.C.C.C.C.C.C.C.j.t.p.C.q.} } } F 3 # X X X X , *.{.a +.o.a > X X s '.AXAX",
"AXAXAXAXAXcX/.2 8.C.C.C.C.C.C.C.C.C.C.C.C.C.C.C.C.C.C.C.C.C.C.C.C.V.r.6.} | V.C.C.C.b.9.} m X X X = X.pX&Xi O.X.y ; X X g OXAXAX",
"AXAXAXAXAXnX@Xa } C.C.C.C.C.C.f.9.8.t.C.C.C.C.C.C.C.C.C.C.C.C.C.b.8.] i y i 9.C.C.C.j.7.F > X X X : %.xX3X, _ / y & X X v 2XAXAX",
"AXAXAXAXAXAXaXX.C C.C.C.C.C.C.9.F D } 6.y.C.C.C.C.C.C.C.C.C.b.8.D - i *.|.< } C.C.C.r.{ % X X X X $ d ^ c + % & v & X X d qXAXAX",
"AXAXAXAXAXAXvX|.; 6.C.C.C.C.f.| > U c A ] } } 5.y.C.C.C.C.r.[ > p ).xXAXaXi } C.C.C.r.G X X X X + $ = & < 3 $.f J % X + f xXAXAX",
"AXAXAXAXAXAXAXhXL A C.C.C.C.t.F K bX%XO.P I H B A } C.C.a.G > *.cXAXAXnX X* 6.C.C.C.j.} X X X @ % > K >.` % *.L * X X # L AXAXAX",
"AXAXAXAXAXAXAX Xg $ | C.C.C.j.D E AXbXxX4X@X_.L + } C.C.C.- R.cXAXhXiXtXv A j.C.C.C.C.8.: O X & J @.1.P.%.# y : + X X # I AXAXAX",
"AXAXAXAXAXcX*.g H ; D s.C.C.C.] p 6X{.Y.pXpXW.H A 7.b.C.C.< ( cXT.% ; H i 7.b.C.C.C.C.p.> # G X.,.2.` a $ @ @ X X X X + L AXAXAX",
"AXAXAXAXkX*.g ( o.& { p.C.C.C.9.< ( > + @.+.M F 6.f.C.C.C.} < H 2 $ % m 6.f.C.C.C.C.C.p.> c #.>.) a - = @ X X X X + $ * #.bXAXAX",
"AXAXAXtX#.v _ 1.<.- } p.C.C.C.C.| N < < i A { 8.j.C.C.C.C.t.} J G ] | t.C.C.C.C.C.C.C.b.D a H p - $ # X X X X X X i X.*.uXMXAXAX",
"AXAX9X@.v ` 1.P.P.i J 0.C.C.C.C.C.q.| | | 9.j.C.C.C.C.C.C.C.a.y.j.C.C.C.C.C.C.C.C.C.C.C.| 2 % @ X X X X X X = _ |.xXAXAXAXAXAXAX",
"AXuX#.p ) 1.P.1.$.i D 8.C.C.C.C.C.C.C.C.C.C.C.C.C.C.C.C.C.C.C.C.C.p.q.s.C.C.C.C.C.C.C.C.y.F % X X X X X i ) &XcXAXAXAXAXAXAXAXAX",
"vX=.2 ; G X.Y d , < } s.C.C.C.C.C.C.C.C.C.C.C.C.C.C.C.C.C.C.j.5.J < B | s.C.C.C.C.C.C.C.C.| 3 O X X a *.$XdXnXAXAXAXAXAXAXAXAXAX",
"dXL p h > y a * X $ S 6.f.C.C.C.C.C.C.C.C.C.C.C.C.C.j.9.| J i & @ K g D 6.C.C.C.C.C.C.C.C.t.A @ X X g +XnXAXAXAXAXAXAXAXAXAXAXAX",
"tXP y p = g = X X O $ ; [ 0.j.C.C.C.C.C.C.j.} G F A C 3 < i F } F P O.H } C.C.C.C.C.C.C.C.C.G % X X & *.dXAXAXAXAXAXAXAXAXAXAXAX",
"iXE , p , a X X X @ a K > F 8.C.C.C.C.C.C.j.F i < 3 F { | 7.0.f.} G P G } C.C.C.C.C.r.6.| 5.F & X X X O.tXAXAXAXAXAXAXAXAXAXAXAX",
"aX) G ..v p X X # ~ XX@XY i | C.C.C.C.C.C.C.J f d F 8.w.j.C.C.C.| n % D 7.C.C.C.C.C.5.A i i ; # X X X E <XAXAXAXAXAXAXAXAXAXAXAX",
"zX#.G >.J y X X & T.uX+.2 } b.C.C.C.C.C.C.C.} i ; C 6.C.C.C.C.C.6.D G 9.C.C.C.C.C.e.] & X X X X X X X K @XAXAXAXAXAXAXAXAXAXAXAX",
"nXT.v @.) i X X $ *.hXI.2 G 8.s.C.C.C.C.C.C.9.} C N } C.C.C.C.C.V.C.C.C.C.C.C.C.C.6.B X X X X # & ; , ( 2XAXAXAXAXAXAXAXAXAXAXAX",
"AX|.H ` o.g X X X / uXzX).a M | r.C.C.C.C.C.C.y.6.| 8.C.C.C.C.C.C.C.C.C.C.C.C.C.q.[ < g v a : = L T..X3XcXAXAXAXAXAXAXAXAXAXAXAX",
"AX,X^ K ;.H @ X X H +XAXnX2XU 2 | C.C.C.C.C.C.C.C.C.C.C.C.C.C.C.C.C.C.C.C.C.y.6.[ 3 , I X.+.X.Y d i +.4XAXAXAXAXAXAXAXAXAXAXAXAX",
"AXfX*.d <._ % X X y T.AXAXxXR.2 } C.C.C.C.C.C.C.C.C.C.C.C.C.C.C.C.C.C.C.C.y.| C & @ % y c G I X.' J & = Y eXAXAXAXAXAXAXAXAXAXAX",
"AXbX Xi o.+.> X X % ( vXxXE., D 8.u.C.C.C.C.C.C.C.C.C.C.C.C.C.C.C.C.C.C.f.| i X X X X X X @ = < < < % 1 @ v /.cXAXAXAXAXAXAXAXAX",
"AXAX9XJ I ;.a X X + c 4X=X$ * i i } 6.r.C.C.C.C.C.C.C.C.C.C.C.C.C.C.C.V.8.Z X X X X + $ : g v : @ @ & R @ # : H _.AXAXAXAXAXAXAX",
"AXAXkXo.v :.v $ X X i |.xXY.= > i < 3 | C.C.C.C.C.C.C.C.C.C.C.C.C.C.s.8.[ + X X X + & I *.|.+X~.*.y + $ X X X @ p tXAXAXAXAXAXAX",
"AXAXvXI.= c ; = X X : R.vX*.: #.P.X.& S } 6.C.C.C.C.C.C.C.C.C.C.C.j.} i & X X X X $ P tXAXAXAXAX5X= ' ( & v X X : *XAXAXAXAXAXAX",
"AXAXMX_.@ L L & X X & &.oX$ ..P.<.n @ @ ; Z } h.7.G F S } 8.C.C.C.C.J + X X X X @ p $XAXAXAXAXAX$.2 1.c T I X X = AXAXAXAXAXAXAX",
"AXAXAXW.= *.=.j + X # P y J P.P.J > X X X X : } A & % $ - : i D } w.Z @ X X X X $ I.AXAXAXAXAX#Xp ' ,.= R.= X X ; AXAXAXAXAXAXAX",
"AXAXAX@Xa b K 4 @ X X % > o.1.) < @ X X X @ ; < % # X X X X @ # # & + X X X X $ g jXAXAXAXAXbX^ b >.' < X.# X X W bXAXAXAXAXAXAX",
"AXAXAXcX).#.#.P @ X X X + + i = : + X X + f _._ T ) * + X c ) P : + X X X X X K %XnXAXAXAXAXOXg X.P.c I 2 + X X {.bXAXAXAXAXAXAX",
"AXAXAXAXnXpXeX[.y @ X X +._ = < $ X X X < oXnXdXfXkX+.& = {.9X4X%X X*.P * @ =  XbXAXAXAXAXAX#.m %.&.y H $ X X = 9XAXAXAXAXAXAXAX",
"AXAXAXAXAXAXAXcX).@.~ : f 3 $ ; X X X $ Y.xXAXAXAXAXyX%.*.kXAXAXAXbXzXzXqX].=XbXAXAXAXAXAXlXL Y 1.) c 2 + X X ) sXAXAXAXAXAXAXAX",
"AXAXAXAXAXAXAXAXnXpX+Xc i H > : X X X K tXAXAXAXAXAXAXdXfXnXAXAXAXAXAXAXAXAXAXAXAXAXAXAXAX.XH ' P.J v & X X @ '.vXAXAXAXAXAXAXAX",
"AXAXAXAXAXAXAXAXAXAXtXK _ P.b , X X X Y.zXAXAXAXAXAXAXAXAXAXAXAXAXAXAXAXAXAXAXAXAXAXAXAXMX*.H @.<.v p # X X f $XAXAXAXAXAXAXAXAX",
"AXAXAXAXAXAXAXAXAXAXyXI ) P.I 3 X X X *.jXAXAXAXAXAXAXAXAXAXAXAXAXAXAXAXAXAXAXAXAXAXAXAXzX) H ,.' v 2 X X X E 4XAXAXAXAXAXAXAXAX",
"AXAXAXAXAXAXAXAXAXAXtXE P P.X.a X X X @.uXAXAXAXAXAXAXAXAXAXAXAXAXAXAXAXAXAXAXAXAXAXAXAX+XH : g i f * X X X *.zXAXAXAXAXAXAXAXAX",
"AXAXAXAXAXAXAXAXAXAXvX%.m ;.2.H # X X J @XAXAXAXAXAXAXAXAXAXAXAXAXAXAXAXAXAXAXAXAXAXAXAX(.x H L i y @ X X 2 _.AXAXAXAXAXAXAXAXAX",
"AXAXAXAXAXAXAXAXAXAXAXR.G O.P._ : X X = T.bXAXAXAXAXAXAXAXAXAXAXAXAXAXAXAXAXAXAXAXAXAXAXoXL x Y x ; X X X L %XAXAXAXAXAXAXAXAXAX",
"AXAXAXAXAXAXAXAXAXAXAXXXH a H i & X X X E 2XAXAXAXAXAXAXAXAXAXAXAXAXAXAXAXAXAXAXAXAXAXAXhX_.Q H s ; X X X U 2XAXAXAXAXAXAXAXAXAX",
"AXAXAXAXAXAXAXAXAXAXAX#XH % i h : X X X a _.AXAXAXAXAXAXAXAXAXAXAXAXAXAXAXAXAXAXAXAXAXAXAXxX<X@XT.c X X X P 2XAXAXAXAXAXAXAXAXAX",
"AXAXAXAXAXAXAXAXAXAXAXaX*.: a y = X X X < U.AXAXAXAXAXAXAXAXAXAXAXAXAXAXAXAXAXAXAXAXAXAXAXAXAXAXhX).I p d I.vXAXAXAXAXAXAXAXAXAX"
};
