/* XPM */
static char *uhooi_dancing_10[] = {
/* columns rows colors chars-per-pixel */
"64 64 256 2 ",
"   c black",
".  c black",
"X  c black",
"o  c black",
"O  c #010100",
"+  c #010101",
"@  c #020201",
"#  c #030201",
"$  c #040302",
"%  c #060302",
"&  c #090504",
"*  c #090605",
"=  c #0A0705",
"-  c #0A0706",
";  c #0B0807",
":  c #0B0807",
">  c #0B0908",
",  c #0C0A09",
"<  c #0C0B0A",
"1  c #0D0C0A",
"2  c #0D0C0B",
"3  c #0D0D0B",
"4  c #0F100D",
"5  c #11120D",
"6  c #11140F",
"7  c #131811",
"8  c #151B13",
"9  c #181F16",
"0  c #1B2219",
"q  c #1D251B",
"w  c #1E261C",
"e  c #20271E",
"r  c #222920",
"t  c #232920",
"y  c #242921",
"u  c #252822",
"i  c #262823",
"p  c #272724",
"a  c #282724",
"s  c #282724",
"d  c #292723",
"f  c #2A2723",
"g  c #2C2822",
"h  c #2F2720",
"j  c #33271F",
"k  c #37261D",
"l  c #3B261B",
"z  c #3E261B",
"x  c #45281A",
"c  c #4C2A1A",
"v  c #502F1D",
"b  c #503220",
"n  c #4C3824",
"m  c #463E29",
"M  c #42442D",
"N  c #3B4430",
"B  c #3A4232",
"V  c #3C4134",
"C  c #3E4137",
"Z  c #404339",
"A  c #42463C",
"S  c #43483E",
"D  c #43493F",
"F  c #444A40",
"G  c #454C42",
"H  c #464D44",
"J  c #474F44",
"K  c #495446",
"L  c #4A5848",
"P  c #4C5A4A",
"I  c #515E4E",
"U  c #565C53",
"Y  c #5A5C57",
"T  c #5C5D58",
"R  c #5E605A",
"E  c #5F615B",
"W  c #60625C",
"Q  c #61635C",
"!  c #61655E",
"~  c #62655F",
"^  c #626560",
"/  c #636561",
"(  c #646662",
")  c #656764",
"_  c #666765",
"`  c #666866",
"'  c #686A68",
"]  c #6A6B6A",
"[  c #6C6D6C",
"{  c #6F6F6F",
"}  c #717171",
"|  c #737472",
" . c #757674",
".. c #757875",
"X. c #757B74",
"o. c #757F73",
"O. c #738171",
"+. c #728470",
"@. c #71876D",
"#. c #6F8B6B",
"$. c #6D9168",
"%. c #699863",
"&. c #689B61",
"*. c #68A060",
"=. c #68A45F",
"-. c #67A75E",
";. c #67AA5E",
":. c #67AB5E",
">. c #68AC5E",
",. c #68AD5E",
"<. c #68AD5E",
"1. c #69AF5F",
"2. c #6AB05F",
"3. c #6AB160",
"4. c #6BB260",
"5. c #6BB361",
"6. c #6CB461",
"7. c #6DB662",
"8. c #6FB964",
"9. c #71BC66",
"0. c #72BE67",
"q. c #74C169",
"w. c #76C46A",
"e. c #77C56B",
"r. c #78C76B",
"t. c #78C86C",
"y. c #79C96D",
"u. c #7ACB6E",
"i. c #7BCC6E",
"p. c #7BCD6F",
"a. c #7CCE6F",
"s. c #7DCF70",
"d. c #7DD071",
"f. c #7ED272",
"g. c #7FD372",
"h. c #80D573",
"j. c #80D573",
"k. c #80D573",
"l. c #80D573",
"z. c #80D573",
"x. c #80D573",
"c. c #81D574",
"v. c #81D574",
"b. c #81D574",
"n. c #81D574",
"m. c #81D574",
"M. c #81D574",
"N. c #81D474",
"B. c #81D075",
"V. c #82CA77",
"C. c #83C07A",
"Z. c #84B87D",
"A. c #86B080",
"S. c #87AA83",
"D. c #89A785",
"F. c #8AA587",
"G. c #8CA18A",
"H. c #8E9F8C",
"J. c #909D8F",
"K. c #929D91",
"L. c #939D92",
"P. c #959D94",
"I. c #979D96",
"U. c #989D98",
"Y. c #9A9E9A",
"T. c #9C9E9C",
"R. c #9E9F9E",
"E. c #A0A0A0",
"W. c #A2A2A2",
"Q. c gray64",
"!. c #A4A4A4",
"~. c #A5A5A5",
"^. c gray65",
"/. c gray65",
"(. c #A7A7A7",
"). c gray66",
"_. c #A9A9A9",
"`. c gray67",
"'. c #ACACAC",
"]. c gray68",
"[. c gray68",
"{. c #AEAEAE",
"}. c #AFAFAF",
"|. c #AFAFAF",
" X c gray69",
".X c #B2B2B2",
"XX c gray70",
"oX c #B7B7B7",
"OX c gray73",
"+X c #BCBCBC",
"@X c gray",
"#X c #C0C0C0",
"$X c gray76",
"%X c #C3C3C3",
"&X c gray77",
"*X c #C5C5C5",
"=X c #C5C5C5",
"-X c #C6C6C6",
";X c gray78",
":X c gray78",
">X c #C8C8C8",
",X c #C8C8C8",
"<X c gray79",
"1X c gray79",
"2X c gray79",
"3X c #CACACA",
"4X c #CACACA",
"5X c #CBCBCB",
"6X c gray80",
"7X c #D0D0D0",
"8X c #D2D2D2",
"9X c gray83",
"0X c #D8D8D8",
"qX c #DADADA",
"wX c #DDDDDD",
"eX c gray88",
"rX c #E2E2E2",
"tX c gray90",
"yX c #E6E6E6",
"uX c #E9E9E9",
"iX c #EAEAEA",
"pX c #ECECEC",
"aX c #EEEEEE",
"sX c gray94",
"dX c gray95",
"fX c #F3F3F3",
"gX c #F4F4F4",
"hX c gray96",
"jX c #F6F6F6",
"kX c #F8F8F8",
"lX c #F8F8F8",
"zX c #F9F9F9",
"xX c #F9F9F9",
"cX c gray98",
"vX c #FBFBFB",
"bX c gray99",
"nX c #FDFDFD",
"mX c #FDFDFD",
"MX c #FDFDFD",
"NX c #FDFDFD",
"BX c #FEFEFE",
"VX c #FEFEFE",
"CX c #FEFEFE",
"ZX c #FEFEFE",
"AX c #FEFEFE",
"SX c #FEFEFE",
"DX c #FEFEFE",
"FX c #FEFEFE",
"GX c #FEFEFE",
"HX c #FEFEFE",
"JX c white",
"KX c white",
"LX c None",
"PX c white",
"IX c white",
"UX c white",
/* pixels */
"LXLXLXLXLXLXLXLXLXLXLXLXLXLXLXLXLXLXLXLXLXLXLXLXLXLXLXLXLXLXLXLXLXLXLXLXLXLXLXLXLXLXLXLXLXLXLXLXLXLXLXLXLXLXLXLXLXLXLXLXLXLXLXLX",
"LXLXLXLXLXLXLXLXLXLXLXLXLXLXLXLXLXLXLXLXLXLXLXLXLXLXLXLXLXLXLXLXLXLXLXLXLXLXLXLXLXLXLXLXLXLXLXLXLXLXLXLXLXLXLXLXLXLXLXLXLXLXLXLX",
"LXLXLXLXLXLXLXLXLXLXLXLXLXLXLXLXLXLXLXLXLXLXLXLXLXLXLXLXLXLXLXLXLXLXLXLXLXLXLXLXLXLXLXLXLXLXLXLXLXLXLXLXLXLXLXLXLXLXLXLXLXLXLXLX",
"LXLXLXLXLXLXLXLXLXLXLXLXLXLXLXLXLXLXLXLXLXLXLXLXLXLXLXLXLXLXLXLXLXLXLXLXLXLXLXLXLXLXLXLXLXLXLXLXLXLXLXLXLXLXLXLXLXLXLXLXLXLXLXLX",
"LXLXLXLXLXLXLXLXLXLXLXLXLXLXLXLXLXLXLXLXLXLXLXLXLXLXLXLXLXLXLXLXLXLXLXLXLXLXLXLXLXLXLXLXxXxXSXLXLXLXLXLXLXLXLXLXLXLXLXLXLXLXLXLX",
"LXLXLXLXLXLXLXLXLXLXLXLXLXLXLXLXLXLXLXLXLXLXLXLXLXLXLXLXLXLXLXLXLXLXLXLXLXLXLXLXLXLXLXSXOXOXpXLXLXLXLXLXLXLXLXLXLXLXLXLXLXLXLXLX",
"LXLXLXLXLXLXLXdXfXLXLXLXLXLXLXLXLXLXLXLXLXLXLXLXLXLXLXLXLXLXLXLXLXLXLXLXLXLXLXLXxXxXSXiXW i Y.dXLXLXLXLXLXLXLXLXLXLXLXLXLXLXLXLX",
"LXLXLXLXLXLXMXXXXXfXLXLXLXLXLXLXLXLXLXLXLXLXLXLXLXLXLXLXLXLXLXLXLXLXLXLXLXLXLXSXOXOXpXqXT * Z XXSXLXLXLXLXLXLXLXLXLXLXLXLXLXLXLX",
"LXLXLXdXfXLXkX..U 7XLXLXLXLXLXLXLXLXLXLXLXLXLXLXLXLXLXLXLXLXLXLXLXLXLXLXLXLXLXiXW i Y.OXH 4 6 } aXLXLXLXLXLXLXLXLXLXLXLXLXLXLXLX",
"LXLXMXXXXXfXkXo.g ~.LXLXLXLXLXLXLXLXLXLXLXLXLXLXLXLXLXLXLXLXLXLXLXLXLXLXLXLXLXqXY X C o.V 7 5 Z XXLXLXLXLXLXLXLXLXLXLXLXLXLXLXLX",
"LXLXkX..U 7XsXo.< { gXLXLXLXLXLXLXLXLXLXLXLXLXLXLXLXLXLXLXLXLXLXLXLXLXLXLXLXLX%XA X : H h b b x ' sXLXLXLXLXLXLXLXLXLXLXLXLXLXLX",
"LXLXkXo.g ~.tX .& A #XLXLXLXLXLXLXLXLXLXLXLXLXLXLXLXLXLXLXLXLXLXLXLXLXLXLXLXLXOXg X X e : l c v V @XLXLXLXgX$Xo.o.OXLXLXLXLXLXLX",
"LXLXsXo.< { 7XR 3 9 [ gXLXLXLXLXLXLXLXLXLXLXLXLXLXLXLXLXLXLXLXLXLXLXLXLXLXLXLX'.4 X X * 3 k 4 v x J.LXLXbX6XH Z V U jXLXLXLXLXLX",
"LXLXtX| X C /.U % : g /.hXLXLXLXLXLXLXLXLXLXLXLXLXLXLXLXLXLXLXLXLXLXLXLXLXLXjXU.X X X , v b 3 b c X.$Xo.X.o., a 5 g uXLXLXLXLXLX",
"LXLX0XY X 5 ^ U & 4 : g L.eXLXLXLXLXLXLXLXLXLXLXLXLXLXLXLXLXLXLXLXLXLXLXLXLXrX( X X # 5 l c 4 n c W F 8 6 C 3 F C e tXLXLXLXLXLX",
"LXLXqXU X + p F > 5 < * 9 ( oXfXLXLXhX-XsXLXLXLXLXxXhXLXLXMXuX#XiXLXLXLXLXfXY.@ X # 5 c * 3 c b k J @ X X 0 8 o.O.6 rXLXLXLXLXLX",
"LXLXrXY X X & 0 , z k 5 6 k C Y o. XH.e H gXLXLXhXOX].xXrXoXX.A {.LXhX-XT.X.5 X X % v n z k c 5 3 G X X X 5 e G.+., sXLXLXLXLXLX",
"LXLXiX( X X X @ $ < j x c x > % l j 0 V q ^ hXkX).0 p F.{ B N 0 T E.' S A i X & j 3 6 m m c , x 4 Z X X X : B G.' 3 cXLXLXLXLXLX",
"LXLXgXJ.+ X X X X : 7 z z l z c b x > q.-.6 Y } 3 C w 0 N I 0.Z 0 N B I -.%.$ b n c , m m * z n 3 U X X X @ P F.Y g dXLXLXLXLXLX",
"LXLXMXqX0 X X X X X & c v b v b n 5 V s.g.I = 9 &.g.p.q.d.b.b.;.P &.9.g.b.-.3 n m b , n c : b v 0 U + X X $ U D.L J pXLXLXLXLXLX",
"LXLXLXLXo.& X X X X # x n c k 8 7 6 <.h.b.f.<.i.m.b.b.b.b.b.b.b.b.b.b.b.b.w.q 6 v n n n 1 c v f ..C $ X X 2 I S.D ^ yXLXLXLXLXLX",
"LXLXLXLXpXF $ X X $ > 6 k , V I 0 N q.b.b.b.m.b.b.b.b.b.b.b.b.b.b.b.b.b.b.g.<.N 5 & & z v b 7  .iXC $ X X 8 P S.B ..uXLXLXLXLXLX",
"LXLXLXLXdX!.0 + 9 N Z L Z N 7.f.Z I y.b.b.b.b.b.b.b.b.b.b.b.b.b.b.b.b.b.b.b.h.w.%.N A w 7 3 C 6XMXH - X X q I S.g G.pXLXLXLXLXLX",
"LXLXLXqXT.| e X I p.b.b.a.0.d.b.8.w.g.b.b.b.b.b.b.b.b.b.b.b.b.b.b.b.b.b.q.0.d.b.d.p.h.a.I q B Y.pXU : X X s P o.g H.sXLXLXLXLXLX",
"LXLXvXT , X X X L e.b.b.b.b.b.b.b.b.b.b.b.b.b.b.b.b.b.b.b.b.b.b.b.h.9.P N u =.j.b.b.b.m.y.I e H 6XU * X X V J +.g K.hXLXLXLXLXLX",
"LXLXiXC X X X X t ;.b.b.b.b.b.b.2.I -.i.b.b.b.b.b.b.b.b.b.b.b.g.6.P N A } C A w.b.b.b.w.B e Y .XsXY & X X i 0 f u E.MXLXLXLXLXLX",
"LXLXpXH $ X X X > P a.b.b.b.b.a.D y e N =.s.b.g.g.m.b.b.b.b.q.%.B J ...XeX..Z 7.b.b.b.*.N Y.xXLXMXT $ + > 8 j B g /.LXLXLXLXLXLX",
"LXLXLXo.9 X X X X N >.b.b.b.b.:.B X.].Q q 8 y Z &.0.a.b.b.q.L B `  XyXbXdX .N 8.b.b.b.*.Z U.vXwXK.p 5 g A d H _ F R.LXLXLXLXLXLX",
"LXLXLX-XA + X X X 3 L u.b.b.b.&.L (.kXyX=XR. .C 2 r -.b.b.%.B o.qXvXxXvXOXF L f.b.b.b.q.B Y P.J 0 i L +.o.A f A Z E.LXLXLXLXLXLX",
"LXLXLXfX..4 X + < 5 s -.b.b.b.-.A K.lXuXpXxXcX#XF N 7.b.b.I F +XuXQ.{ ..Y B 7.b.b.b.b.b.%.8 2 w J +.S.] P s p H X.qXLXLXLXLXLXLX",
"LXLXLXgXY.p @ 5 C B t &.b.b.b.q.D H X.V ^ 1XJ.p N 2.b.b.b.*.N ^ D.B $ 8 B -.g.b.b.b.b.f.I > B +.S.O.L y 7 H (.&XwXcXLXLXLXLXLXLX",
"LXSXsX{.H , 7 P o.P r 7.b.b.b.g.;.B 9 $ 2 9 7 D e.b.b.b.b.u.%.N B B N L 1.d.b.b.b.b.b.j.&.y U O.P t 4 u Y ;XMXLXLXLXLXLXLXLXLXLX",
"SXaXP.e @ 8 I D.G.! r 2.b.b.b.b.s.5.I D L I w.b.b.b.b.b.b.b.a.4.&.=.5.t.b.b.b.b.b.b.b.b.9.B 7 8 6 C o.%XwXcXLXLXLXLXLXLXLXLXLXLX",
"pXJ.9 X 7 Y G.G.D.) w %.b.b.b.b.b.j.a.t.u.f.b.b.b.b.b.b.b.b.b.b.b.b.b.b.b.b.b.b.b.b.b.b.f.*.6 C  XuXMXLXLXLXLXLXLXLXLXLXLXLXLXLX",
"o., X > V o.S.+.T D t -.b.b.b.b.b.b.b.b.b.b.b.b.b.b.b.b.b.b.b.d.6.%.D &.b.b.b.b.b.b.b.b.b.w.B I pXLXLXLXLXLXLXLXLXLXLXLXLXLXLXLX",
": X # 4 4 i P 8 + $ t 3.g.b.b.b.b.b.b.b.b.b.b.b.b.b.b.h.u.9.=.P N e C y :.b.b.b.b.b.b.b.b.g.;.7  XLXLXLXLXLXLXLXLXLXLXLXLXLXLXLX",
"X X < W C X X X X X - N I y.b.b.b.b.b.b.b.b.b.g.y.0.7.=.P N N i N 7 [ G B b.b.b.b.b.b.b.b.b.u.8 `.LXLXLXLXLXLXLXLXLXLXLXLXLXLXLX",
"X X X $ $ @ X X X X X O 3 Z 9.b.b.b.b.b.b.b.y.6 5 - 8 9 w N P -.u.N Y ( t b.b.b.b.b.b.b.d.a.u.9 H.LXLXLXLXLXLXLXLXLXLXLXLXLXLXLX",
"X $ + E S 4 C > X X X X X = P m.b.b.b.b.b.b.b.3 Y $ %.<.y.b.b.b.b.L e g L g.b.b.b.b.b.7.D I I r G.cXLXLXLXLXLXLXLXLXLXLXLXLXLXLX",
"+ 8 : o.+.- Q.} u X X X X q &.g.b.b.b.b.b.b.b.7 C 7 9.j.b.b.b.b.b.I 7 Z 8.h.b.b.b.b.b.N 6 C F Y #XcXLXLXLXLXLXLXLXLXLXLXLXLXLXLX",
"X 9 8 ' F.7 E.fXo.$ X X X s 0.j.b.b.b.b.b.b.b.I 7 = A u.b.b.b.b.b.7.%.q.h.b.b.b.b.b.>.6 E eXtXaXbXLXLXLXLXLXLXLXLXLXLXLXLXLXLXLX",
"X X C P S.B [ 9X[ - X X X 6 N -.f.b.b.b.b.b.b.b.8.V D e.b.b.b.b.b.b.b.b.b.b.b.b.b.j.B > 9 B U F.OXrXvXLXLXLXLXLXLXLXLXLXLXLXLXLX",
"X X H C o.I C  Xu @ X X X X $ r %.i.b.b.b.b.b.b.b.b.b.b.b.b.b.b.b.b.b.b.b.b.b.b.b.%.9 G ! Y G p f | OXpXMXLXLXLXLXLXLXLXLXLXLXLX",
"X X H B O.+.e ~.G.g & X X X X + N 9.b.b.b.b.b.b.b.b.b.b.b.b.b.b.b.b.b.b.b.b.b.;.N 7 > f U +.o.o.Y B A o.oXaXLXLXLXLXLXLXLXLXLXLX",
"X X f V U S.g o.eX{.U 4 X X X 7 I u.b.b.b.b.b.b.b.b.b.b.b.b.b.b.b.b.b.b.b.b.&.r - + X X $ 2 u H I P e 6 C  XlXLXLXLXLXLXLXLXLXLX",
"X X $ H A o.F ' qXLX#XV @ X $ q N &.p.b.b.b.b.b.b.b.b.b.b.b.b.b.b.b.b.b.b.>.N $ + X X X X @ e g g g 5 f 0 X.pXLXLXLXLXLXLXLXLXLX",
"X X X I G ' I T 1XpXJ.u + X $ 6 8 0 N %.u.b.b.b.b.b.b.b.b.b.b.b.b.b.b.b.w.N B I f 9 8 > + X X - B ] p i 0 X.fXLXLXLXLXLXLXLXLXLX",
"< X X G Z P K Z  XU.p $ X X $ d Y E B N 1.b.b.b.b.b.b.b.b.b.b.b.b.b.r.&.B Z R.kXxXqXR.Y C g 2 X X H g d 9 o.LXLXLXLXLXLXLXLXLXLX",
"d X X C F * 5 i G.J.g $ X X 0 ! D.+.g 3 q C <.j.j.u.0.6.7.w.d.b.b.b.4.N 6 _ rXLXLXLXLXLXgXU.p X X V A ) A K.LXLXLXLXLXLXLXLXLXLX",
"C X X d Z C X.H H L.H $ X 4 L S.o.A < X $ = 9 P 8.Z 9 8 t Z I %.;.w.=.N I +XbXLXLXLXLXLXcXU.0 X $ g R R H +XLXLXLXLXLXLXLXLXLXLX",
"U X X 6 C S o.E G R e X $ f +.S.P 4 X X X X + 8 r = X X X X = 7 y B N S XXhXLXLXLXLXLXLXeX^ X X 5 A o.L U pXLXLXLXLXLXLXLXLXLXLX",
"Y X X X d u a B C g + X $ 0 F J d p - X X $ 5 4 + @ X X X X X < g I ` E.dXLXLXLXLXLXLXlX~.i X + e ' o.Z X.LXLXLXLXLXLXLXLXLXLXLX",
"Y @ X X s K.oXT.I - X X 8 S g 0 R 7XH.4 + g H.Y./ H S g 8 @ + V .XeXqXdXLXLXLXLXLXLXLX0XY X X > C D.( V $XLXLXLXLXLXLXLXLXLXLXLX",
"(.f 9 e H OXlX).0 X X X 0 Y g i }.SXtXo.9  .LXLXLXkXqX XH.' ^ E.dXLXLXLXLXLXLXLXLXLXlX~.5 X X 7 ! S.I H fXLXLXLXLXLXLXLXLXLXLXLX",
"bXrXoXXX3XlXsXH.X X X > < B s p 6XLXSXaX3XeXLXLXLXLXLXLXvXuXqXdXLXLXLXLXLXLXLXLXLXLXeXT X X + 9 S.o.V X.LXLXLXLXLXLXLXLXLXLXLXLX",
"LXLXLXLXLXLXfXT.X X X 9 4 ~ E e $XLXLXLXLXLXLXLXLXLXLXLXLXLXLXLXLXLXLXLXLXLXLXLXLXSX6X0 X X - V G.o.e XXLXLXLXLXLXLXLXLXLXLXLXLX",
"LXLXLXLXLXLXjX(.X X X 0 4 G.S.u I.LXLXLXLXLXLXLXLXLXLXLXLXLXLXLXLXLXLXLXLXLXLXLXLXkX_.X X X * ^ G.E u pXLXLXLXLXLXLXLXLXLXLXLXLX",
"LXLXLXLXLXLXlX XX X X 8 - F.F.Z H LXLXLXLXLXLXLXLXLXLXLXLXLXLXLXLXLXLXLXLXLXLXLXLXaXU X X X + ! O.s ^ LXLXLXLXLXLXLXLXLXLXLXLXLX",
"LXLXLXLXLXLXcXOXX X X 2 @ o.G.' 4 6XSXLXLXLXLXLXLXLXLXLXLXLXLXLXLXLXLXLXLXLXLXLXLXuX3 X X X > 8 t , T.cXLXLXLXLXLXLXLXLXLXLXLXLX",
"LXLXLXLXLXLXbX$XX X X $ , Y F.D.t  .kXLXLXLXLXLXLXLXLXLXLXLXLXLXLXLXLXLXLXLXLXLXLX-XX X X X C ' U 2 E.kXLXLXLXLXLXLXLXLXLXLXLXLX",
"LXLXLXLXLXLXLXqX$ X X X $ B ( U e H pXLXLXLXLXLXLXLXLXLXLXLXLXLXLXLXLXLXLXLXLXLXLXU $ X X X e A H p oXlXLXLXLXLXLXLXLXLXLXLXLXLX",
"LXLXLXLXLXLXLXvXi + X X X 3 g B e B wXLXLXLXLXLXLXLXLXLXLXLXLXLXLXLXLXLXLXLXLXLXLXH * X X X  .| Y G.pXLXLXLXLXLXLXLXLXLXLXLXLXLX",
"LXLXLXLXLXLXLXLXY - X X X > 0 g 8 [ yXLXLXLXLXLXLXLXLXLXLXLXLXLXLXLXLXLXLXLXLXLXLX!.s 4 > 0 oXlXLXLXLXLXLXLXLXLXLXLXLXLXLXLXLXLX",
"LXLXLXLXLXLXLXLXX.4 X X X 8 U R o.8XcXLXLXLXLXLXLXLXLXLXLXLXLXLXLXLXLXLXLXLXLXLXLXLXOX .Y G.pXLXLXLXLXLXLXLXLXLXLXLXLXLXLXLXLXLX"
};
