/* XPM */
static char *uhooi_dancing_8[] = {
/* columns rows colors chars-per-pixel */
"64 64 256 2 ",
"   c black",
".  c black",
"X  c black",
"o  c black",
"O  c black",
"+  c #010101",
"@  c #020202",
"#  c gray1",
"$  c #040404",
"%  c #060504",
"&  c #070705",
"*  c #090806",
"=  c #0B0907",
"-  c #0D0B08",
";  c #0F0D09",
":  c #120F0A",
">  c #15120C",
",  c #19120C",
"<  c #1D140D",
"1  c #20140D",
"2  c #23160E",
"3  c #26170F",
"4  c #28180F",
"5  c #2A1810",
"6  c #2A1911",
"7  c #291A13",
"8  c #271B16",
"9  c #291E18",
"0  c #281F1A",
"q  c #27201B",
"w  c #27211C",
"e  c #27221D",
"r  c #26221E",
"t  c #26241E",
"y  c #24261E",
"u  c #23271E",
"i  c #21281E",
"p  c #21281E",
"a  c #22281E",
"s  c #22281F",
"d  c #242821",
"f  c #272A24",
"g  c #292A26",
"h  c #2B2C28",
"j  c #2C2E29",
"k  c #323029",
"l  c #383129",
"z  c #37342D",
"x  c #363932",
"c  c #3A3D36",
"v  c #3D3D38",
"b  c #3E3F3A",
"n  c #40403B",
"m  c #41433D",
"M  c #43433F",
"N  c #454542",
"B  c #464744",
"V  c #484E46",
"C  c #495248",
"Z  c #4C544B",
"A  c #4E524D",
"S  c #505450",
"D  c #525651",
"F  c #535753",
"G  c #555954",
"H  c #565A55",
"J  c #565A56",
"K  c #575A57",
"L  c #585B58",
"P  c #5A5E59",
"I  c #5B5F5B",
"U  c #5D615C",
"Y  c #5E635E",
"T  c #5F645E",
"R  c #5F645E",
"E  c #60655F",
"W  c #60665F",
"Q  c #616660",
"!  c #626661",
"~  c #626761",
"^  c #636762",
"/  c #646763",
"(  c #656764",
")  c #666865",
"_  c #676A66",
"`  c #696D67",
"'  c #6A7169",
"]  c #6D756A",
"[  c #6D7B6A",
"{  c #6E836A",
"}  c #6E876A",
"|  c #6F8B6A",
" . c #6F8E6A",
".. c #6E9069",
"X. c #6D9168",
"o. c #6B9265",
"O. c #679461",
"+. c #67955F",
"@. c #64955C",
"#. c #62965A",
"$. c #63995A",
"%. c #649E5B",
"&. c #65A15B",
"*. c #66A35C",
"=. c #67A55D",
"-. c #68A75E",
";. c #69A95F",
":. c #6AAC60",
">. c #6BB061",
",. c #6DB362",
"<. c #6FB764",
"1. c #70B965",
"2. c #71BB66",
"3. c #72BD67",
"4. c #73BF67",
"5. c #74C169",
"6. c #76C46A",
"7. c #78C76B",
"8. c #79C96D",
"9. c #7ACB6E",
"0. c #7BCD6F",
"q. c #7CCE6F",
"w. c #7CCF70",
"e. c #7DD070",
"r. c #7ED171",
"t. c #7ED272",
"y. c #7FD372",
"u. c #7FD372",
"i. c #7FD372",
"p. c #7FD473",
"a. c #80D473",
"s. c #80D473",
"d. c #80D573",
"f. c #80D573",
"g. c #80D573",
"h. c #80D573",
"j. c #80D573",
"k. c #80D573",
"l. c #80D573",
"z. c #80D573",
"x. c #80D573",
"c. c #80D574",
"v. c #80D574",
"b. c #80D574",
"n. c #81D574",
"m. c #81D574",
"M. c #81D574",
"N. c #81D574",
"B. c #81D574",
"V. c #81D175",
"C. c #81CC76",
"Z. c #82C778",
"A. c #83C17A",
"S. c #84B87D",
"D. c #85AF7F",
"F. c #86A882",
"G. c #889F85",
"H. c #899A87",
"J. c #899788",
"K. c #8A9589",
"L. c #8B938A",
"P. c #8B908B",
"I. c #8C8F8C",
"U. c #8D8F8D",
"Y. c #8F908F",
"T. c #909190",
"R. c #919291",
"E. c #939392",
"W. c gray58",
"Q. c #959595",
"!. c #969796",
"~. c #979897",
"^. c gray60",
"/. c #9B9C9B",
"(. c #9F9F9F",
"). c #A1A2A1",
"_. c #A4A4A4",
"`. c #A7A7A7",
"'. c gray66",
"]. c #A9A9A9",
"[. c #AAAAAA",
"{. c #AAABAA",
"}. c gray67",
"|. c #ACACAC",
" X c #ACACAC",
".X c gray68",
"XX c #AEAEAE",
"oX c #AFAFAF",
"OX c gray69",
"+X c #B1B1B1",
"@X c gray70",
"#X c #B4B4B4",
"$X c gray71",
"%X c #B6B6B6",
"&X c gray72",
"*X c gray73",
"=X c gray",
"-X c #C3C3C3",
";X c gray78",
":X c #CDCDCD",
">X c LightGray",
",X c gray85",
"<X c gray87",
"1X c gray88",
"2X c #E2E2E2",
"3X c gray89",
"4X c #E4E4E4",
"5X c gray90",
"6X c #E6E6E6",
"7X c #E7E7E7",
"8X c #E9E9E9",
"9X c #EAEAEA",
"0X c #ECECEC",
"qX c gray93",
"wX c #EEEEEE",
"eX c #EFEFEF",
"rX c gray94",
"tX c gray94",
"yX c #F1F1F1",
"uX c #F1F1F1",
"iX c gray95",
"pX c gray95",
"aX c gray95",
"sX c #F3F3F3",
"dX c #F3F3F3",
"fX c #F3F3F3",
"gX c #F4F4F4",
"hX c gray96",
"jX c gray96",
"kX c #F6F6F6",
"lX c gray97",
"zX c #F8F8F8",
"xX c #F9F9F9",
"cX c #FBFBFB",
"vX c gray99",
"bX c gray99",
"nX c #FDFDFD",
"mX c #FEFEFE",
"MX c #FEFEFE",
"NX c #FEFEFE",
"BX c #FEFEFE",
"VX c #FEFEFE",
"CX c #FEFEFE",
"ZX c #FEFEFE",
"AX c #FEFEFE",
"SX c #FEFEFE",
"DX c #FEFEFE",
"FX c #FEFEFE",
"GX c #FEFEFE",
"HX c #FEFEFE",
"JX c #FEFEFE",
"KX c #FEFEFE",
"LX c #FEFEFE",
"PX c None",
"IX c white",
"UX c white",
/* pixels */
"PXPXPXPXPXPXPXPXPXPXPXPXPXPXPXPXPXPXPXPXPXPXPXPXPXPXPXPXPXPXPXPXPXPXPXPXPXPXPXPXPXPXPXPXPXPXPXPXPXPXPXPXPXPXPXPXPXPXPXPXPXPXPXPX",
"PXPXPXPXPXPXPXPXPXPXPXPXPXPXPXPXPXPXPXPXPXPXPXPXPXPXPXPXPXPXPXPXPXPXPXPXPXPXPXPXPXPXPXPXPXPXPXPXPXPXPXPXPXPXPXPXPXPXPXPXPXPXPXPX",
"PXPXPXPXPXPXPXPXPXPXPXPXPXPXPXPXPXPXPXPXPXPXPXPXPXPXPXPXPXPXPXPXPXPXPXPXPXPXPXPXPXzXkXSXPXPXPXPXPXPXPXPXPXPXPXPXPXPXPXPXPXPXPXPX",
"PXPXPXPXPXPXPXPXPXPXPXPXPXPXPXPXPXPXPXPXPXPXPXPXPXPXPXPXPXPXPXPXPXPXPXPXPXPXPXPXnX=X.X6XPXPXPXPXPXPXPXPXPXPXPXPXPXPXPXPXPXPXPXPX",
"PXPXPXPXuXtXSXPXPXPXPXPXPXPXPXPXPXPXPXPXPXPXPXPXPXPXPXPXPXPXPXPXPXPXPXPXPXPXPXPXqX' q P.qXPXPXPXPXPXPXPXPXPXPXPXPXPXPXPXPXPXPXPX",
"PXPXPXnX*X`.tXPXPXPXPXPXPXPXPXPXPXPXPXPXPXPXPXPXPXPXPXPXPXPXPXPXPXPXPXPXPXPXPXPX1X) X j `.zXkXSXPXPXPXPXPXPXPXPXPXPXPXPXPXPXPXPX",
"PXPXPXxXP.N ;XPXPXPXPXPXPXPXPXPXPXPXPXPXPXPXPXPXPXPXPXPXPXPXPXPXPXPXPXPXPXPXPXPX:XZ X & Y OX.X6XPXPXPXPXPXPXPXPXPXPXPXPXPXPXPXPX",
"PXPXPXzXW.d ~.PXuXtXSXPXPXPXPXPXPXPXPXPXPXPXPXPXPXPXPXPXPXPXPXPXPXPXPXPXPXPXPXPX;Xx X X f V q P.qXPXPXPXPXPXPXPXPXPXPXPXPXPXPXPX",
"PXPXPXdXR.* I uX*X`.tXPXPXPXPXPXPXPXPXPXPXPXPXPXPXPXPXPXPXPXPXPXPXPXPXPXPXPXPXPX=X> X X * t & z `.SXPXPXPXPXPXPXPXPXPXPXPXPXPXPX",
"PXPXPX9XP.X h +XP.N ;XPXPXPXPXPXPXPXPXPXPXPXPXPXPXPXPXPXPXPXPXPXPXPXPXPXPXPXPXzX].X X X X : 1 1 Y 8XlX-X[ ] oXPXPXPXPXPXPXPXPXPX",
"PXPXPX2XQ X - L U.d ~.PXPXPXPXPXPXPXPXPXPXPXPXPXPXPXPXPXPXPXPXPXPXPXPXPXPXPXPX8X` X X X X - 5 5 l `.,XM > > b jXPXPXPXPXPXPXPXPX",
"PXPXPX6XU X X 8 L * I pXPXPXPXPXPXPXPXPXPXPXPXPXPXPXPXPXPXPXPXPXPXPXPXPXPXPXlX`.@ X X X X , l l 0 G #X@ X X 8 6XPXPXPXPXPXPXPXPX",
"PXPXPXqX! X X # > & k %XPXPXPXPXPXPXPXPXPXPXPXPXPXPXPXPXPXPXPXPXPXPXPXPXPXSX2Xr X X X X X & 6 9 l g P.X X X ; oX[ ] oXPXPXPXPXPX",
"PXPXPXjX' X X X # , , v 5XPXPXcX=XqXPXPXPXPXzXpXPXPXSX9X&X6XPXPXPXPXPXPXPXjXA X X X X X + , 6 - l u L X X X @ M b c b jXPXPXPXPX",
"PXPXPXnX/.+ X X X @ * & k ] oXR., c pXPXPXlX%X).cX2X%X[ x _.SXzX;X^.R.Y.XXn # X X X X X & l v = l u N % X X X & t > 8 6XPXPXPXPX",
"PXPXPXPX7Xf + X X % 1 # X = r > + # G jXjX[., r `.] g @ X F ~./ c r 8 > > $ X X X X X @ 3 5 9 , n 9 k = X X = * V M ; 2XPXPXPXPX",
"PXPXPXPXPXT.: X + = 5 , % X X X X X @ ' F - X X X X X X X > r & X X X X X X X X X X X 1 l & , 9 l 5 r & X X 8 >  .| @ 1XPXPXPXPX",
"PXPXPXPXPXwXJ = X & 6 6 5 5 6 & X X X X X X X X X X X X X X X X # X X X X X X X X X X l M 7 6 l 5 = q & X X f i G.| & 5XSXPXPXPX",
"PXPXPXPXPXpX}.g # X - 5 6 9 6 - @ 3 & X v i + X X X = # X # > j p @ X X & p p @ % 5 1 5 N B l , 7 1 t - X X d c H.[ > 7XPXPXPXPX",
"PXPXPXPX,X^.' f $ X & 5 6 6 6 6 l l 9 : ,.:.> + + ; c f p j #.3.C > p x #.;.#.: l M l < n N , 6 v 3 c - X X r Z H.I z 2XPXPXPXPX",
"PXPXPXcX` ; X X X X X % 9 l l l l m 5 c 7.a.#.> i #.w.q.6.w.B.m.>.#.$.2.t.m.;.> l B l 1 v 9 - l l q A * X X d S J.S A <XPXPXPXPX",
"PXPXPX0XV X X X X X X + 6 l l 6 4 5 > &.i.m.a.,.8.f.m.m.m.m.m.m.m.m.m.m.m.m.7.f 2 l l b l 1 9 l e ] ! & X X j A K.V I ,XPXPXPXPX",
"PXPXPXwXU % X X X X $ - > 6 - c #.p g <.m.m.m.m.m.m.m.m.m.m.m.m.m.m.m.m.m.m.a.,.m > @ % 6 l l 8 ' 2X] & X X x Z L.b ' 1XPXPXPXPX",
"PXPXPXPXW.r X X X i x m C m c :.r.C Z 6.m.m.m.m.m.m.m.m.m.m.m.m.m.m.m.m.m.m.m.a.8.%.x m f < : c +X$XV # X > c C L.c [ 7XPXPXPXPX",
"PXPXPXPX:XS + X X C 8.m.m.w.5.q.m.4.7.i.m.m.m.m.m.m.m.m.m.m.m.m.m.m.m.m.m.6.2.0.m.t.r.m.e.#.d d N x ; X X q n V  .c [ 0XPXPXPXPX",
"PXPXPXPXjXP.> X X c 5.m.m.m.m.m.m.m.m.m.m.m.m.m.m.m.m.m.m.m.m.m.m.m.a.3.Z g p #.f.m.m.m.f.7.#.p # X X X X 8 M m { c P.dXPXPXPXPX",
"PXPXPXPXjX_.h X X p %.m.m.m.m.m.m.,.#.%.8.m.m.m.m.m.m.m.m.m.m.m.a.<.Z k c ] V c 4.m.m.m.7.v - X X X X X X > h 8 f d R.nXPXPXPXPX",
"PXPXSXeXOXA : X X * C 9.m.m.m.m.w.C s p j $.q.f.e.r.f.m.m.m.m.6.#.c V [ #X1XI.c :.m.m.m.;.f X X X X % , r r 8 k v h ~.PXPXPXPXPX",
"PXSXqX/.f X X X X X s *.m.m.m.m.>.c ] &X' r > a v #.<.9.m.m.5.Z c _ +X6XbXgXP.k ,.m.m.m.;.f X @ > x m c c N j M ` N Y.PXPXPXPXPX",
"SX0X!.r X X X X X X - c 7.m.m.m.=.C ^.xX0X>X`.[ m : p %.m.m.$.x [ ,XcXxXcX-XV b r.m.m.m.7.m - x G m z Z } L.V q n v W.PXPXPXPXPX",
"9XP.- X X X X X O - > s %.m.m.m.:.b P.xX8X8XcXnX-XZ j ,.m.m.#.c +X0X_.) ' I x ,.m.m.m.m.m.%.> > h V { J.[ Z j d A ] ,XPXPXPXPXPX",
"P.* X X X X X @ > c m p #.m.m.m.7.C v P.k A ;X!.j f :.m.m.m.:.x G P.x # > x *.i.m.m.m.m.i.#.= j { K.[ Z b D ] [.;X<XcXPXPXPXPXPX",
"@ X X X X X @ > C ..P p >.m.m.m.a.,.c 8 # * > : m 6.m.m.m.m.q.$.x c j x C >.r.m.m.m.m.m.B.;.p S [ S m V P.-X8XnXPXPXPXPXPXPXPXPX",
"X X X # , r > Z G.G.[ p ;.m.m.m.m.r.1.#.C C #.7.m.m.m.m.m.m.m.r.<.&.-.,.7.m.m.m.m.m.m.m.m.6.b > j V P.-XnXPXPXPXPXPXPXPXPXPXPXPX",
"X X # k V > G G.G.G.{ i #.m.m.m.m.m.B.r.9.q.i.m.m.m.m.m.m.m.m.m.m.m.m.m.m.m.m.m.m.m.m.m.m.a.:.> I 2XPXPXPXPXPXPXPXPXPXPXPXPXPXPX",
"X X ; P.* z  .J.{ H M p *.m.m.m.m.m.m.m.m.m.m.m.m.m.m.m.m.m.m.m.t.,.#.v #.m.m.m.m.m.m.m.m.m.0.m b 6XPXPXPXPXPXPXPXPXPXPXPXPXPXPX",
"X X > + > : i D x r $ p ;.t.m.m.m.m.m.m.m.m.m.m.m.m.m.m.a.9.1.&.C k p N p =.m.m.m.m.m.m.m.m.B.1.* [.PXPXPXPXPXPXPXPXPXPXPXPXPXPX",
"X X X # U n # x [ Q = # f C 7.m.m.m.m.m.m.m.m.m.0.6.1.>.%.Z c k g c : ' V x a.m.m.m.m.m.m.m.m.m.> ).bXPXPXPXPXPXPXPXPXPXPXPXPXPX",
"X X X @ & & ; 2X,Xx # X X - x ,.f.m.m.m.m.m.m.w.> > = > p s x Z -.9.x G / f 9.m.m.m.m.m.f.0.9.8.p P.kXPXPXPXPXPXPXPXPXPXPXPXPXPX",
"* X X % P V q 9XdX/.x * X X & C q.m.m.m.m.m.m.m.> F - #.:.7.f.m.m.m.C i g C 9.m.m.m.m.m.,.C Z Z f P.uXPXPXPXPXPXPXPXPXPXPXPXPXPX",
"8 X X $ } | > -XcXlX*XQ > X p $.r.m.m.m.m.m.m.m.p x > ;.i.m.m.m.m.m.#.p b <.i.m.m.m.m.m.x - , x J *XlXPXPXPXPXPXPXPXPXPXPXPXPXPX",
"k X X X W H.i R.tXPXPX;Xc X d >.a.m.m.m.m.m.m.m.#.p = c 6.m.m.m.m.m.2.#.3.i.m.m.m.m.m.>.> X @ f ) [.7XPXPXPXPXPXPXPXPXPXPXPXPXPX",
"S + X X V L.b ( 1XPX0XW.f + : j %.q.m.m.m.m.m.m.m.2.C C 4.m.m.m.m.m.m.m.m.m.m.m.m.m.f.v > = ; - * r P.uXPXPXPXPXPXPXPXPXPXPXPXPX",
"[ : X X z } K b -XbX).g # X X @ p #.7.m.m.m.m.m.m.m.m.m.m.m.m.m.m.m.m.m.m.m.m.m.m.m.$.p m U P C z 9 k (.6XnXPXPXPXPXPXPXPXPXPXPX",
"oXk X X 0 / } g ^.dX`.x & X X X + j ,.m.m.m.m.m.m.m.m.m.m.m.m.m.m.m.m.m.m.m.m.m.:.x > * h S [ } | U x b ] .X7XPXPXPXPXPXPXPXPXPX",
"-XN X X ; Z J.c ] 2X:XF $ X X X > Z 8.m.m.m.m.m.m.m.m.m.m.m.m.m.m.m.m.m.m.m.m.%.g i G P.' x > > c Z Z d > x ).kXPXPXPXPXPXPXPXPX",
"<X/ X X = x { Z Y -X/.d X X X @ p x #.9.m.m.m.m.m.m.m.m.m.m.m.m.m.m.m.m.m.m.>.x ) :XgXnXPX1XY X X % r > t r ` 7XPXPXPXPXPXPXPXPX",
"<X) X X X d W P D R.n + X X @ ; > > i d #.8.m.m.m.m.m.m.m.m.m.m.m.m.m.m.m.6.m A -XbXPXPXxXOXf X X j ] j 8 q ` pXPXPXPXPXPXPXPXPX",
"<X) # X X > V Z c B & X X @ f v j P ~ b j -.m.m.m.m.m.m.m.m.m.m.m.m.m.8.$.c c ^.lXPXPXPX<XY X X @ M ^.z j r ' PXPXPXPXPXPXPXPXPX",
"xX&Xx r r q & , q : X X X 8 L b I G.} x = i x =.i.a.8.<.:.>.5.w.m.m.m.<.x > L 2XPXPXPXxX@X> X X : / ] c [ m P.PXPXPXPXPXPXPXPXPX",
"PXnX8X*X(.D z [ S : X X = m V V J. .V m Y.] B i C <.C j x x m Z #.*.5.;.x Z &XbXPXPXPX8X^ X X X r P.b P ^ b %XPXPXPXPXPXPXPXPXPX",
"PXPXPXPX<X' v [ Y r X X > A j { J.F n +XpXjX0X).d d j U.}.P.Y A C b x x c +XjXPXPXPXSX<Xq X X $ x Q c  .D N 0XPXPXPXPXPXPXPXPXPX",
"PXPXPXPXxX&Xx h h & X X : 8 > b V x T.gXPXPXSXqXR.q _ PXPXPXcX1X%X!.] ` /.tXPXPXPXPXcX%XX X X & S h /  .n ' PXPXPXPXPXPXPXPXPXPX",
"PXPXPXPXPXnX8X&XP.X X X * : B k 8 J 8XPXPXPXPXPXdX:X<XPXPXPXPXPXPXbX0X,XpXPXPXPXPXPXcXL X X X $ V x G.[ f =XPXPXPXPXPXPXPXPXPXPX",
"PXPXPXPXPXPXPXSX:XX X X @ > P k , ].PXPXPXPXPXPXPXPXPXPXPXPXPXPXPXPXPXPXPXPXPXPXPXPXjX> X X X > d U H.F v dXPXPXPXPXPXPXPXPXPXPX",
"PXPXPXPXPXPXPXPX:X& X X X & x j 8 ;XPXPXPXPXPXPXPXPXPXPXPXPXPXPXPXPXPXPXPXPXPXPXPXPX;X; X X X M > L.H.x ' PXPXPXPXPXPXPXPXPXPXPX",
"PXPXPXPXPXPXPXPX1X> X X X & ~ ] > =XPXPXPXPXPXPXPXPXPXPXPXPXPXPXPXPXPXPXPXPXPXPXPXPXQ = X X X x z G.J.> OXPXPXPXPXPXPXPXPXPXPXPX",
"PXPXPXPXPXPXPXPXcXx $ X X @ G.G.q I.PXPXPXPXPXPXPXPXPXPXPXPXPXPXPXPXPXPXPXPXPXPXPXPXY - X X X - U G.W q 5XSXPXPXPXPXPXPXPXPXPXPX",
"PXPXPXPXPXPXPXPXPX) ; X X X H.G.m n lXPXPXPXPXPXPXPXPXPXPXPXPXPXPXPXPXPXPXPXPXPXPXPXoXx > - > = G [ j E dXPXPXPXPXPXPXPXPXPXPXPX",
"PXPXPXPXPXPXPXPXPXP., X X X [ G.[ > *XcXPXPXPXPXPXPXPXPXPXPXPXPXPXPXPXPXPXPXPXPXPXPXPX-XP./ x > 8 t ; T.dXPXPXPXPXPXPXPXPXPXPXPX",
"PXPXPXPXPXPXPXPXPX|.j @ X X S H.G.z ` 0XPXPXPXPXPXPXPXPXPXPXPXPXPXPXPXPXPXPXPXPXPXPXPXPXPXPXY n E G > E.uXPXPXPXPXPXPXPXPXPXPXPX",
"PXPXPXPXPXPXPXPXPX6XR.K D x x U G d N <XPXPXPXPXPXPXPXPXPXPXPXPXPXPXPXPXPXPXPXPXPXPXPXPXPXPXoXb b V h [.jXPXPXPXPXPXPXPXPXPXPXPX",
"PXPXPXPXPXPXPXPXPXPXtX,X,X[ q f x t j :XPXPXPXPXPXPXPXPXPXPXPXPXPXPXPXPXPXPXPXPXPXPXPXPXPXPXPX-XP./ P.4XPXPXPXPXPXPXPXPXPXPXPXPX",
"PXPXPXPXPXPXPXPXPXPXPXPXPX|.j 8 g , ) 1XPXPXPXPXPXPXPXPXPXPXPXPXPXPXPXPXPXPXPXPXPXPXPXPXPXPXPXPXPXPXPXPXPXPXPXPXPXPXPXPXPXPXPXPX"
};
