/* XPM */
static char *uhooi_dancing_7[] = {
/* columns rows colors chars-per-pixel */
"64 64 256 2 ",
"   c black",
".  c black",
"X  c black",
"o  c black",
"O  c black",
"+  c #010100",
"@  c #010101",
"#  c #020201",
"$  c #020202",
"%  c gray1",
"&  c #040504",
"*  c #060605",
"=  c #080806",
"-  c #090907",
";  c #0B0B08",
":  c #0C0C09",
">  c #0D0D0A",
",  c #0E0E0B",
"<  c #100F0B",
"1  c #12110C",
"2  c #13110C",
"3  c #16110D",
"4  c #18120D",
"5  c #1C120C",
"6  c #1E120C",
"7  c #20120C",
"8  c #21120B",
"9  c #22120B",
"0  c #22130B",
"q  c #24140C",
"w  c #26150D",
"e  c #27170E",
"r  c #29180F",
"t  c #2A190F",
"y  c #2A1A10",
"u  c #291B11",
"i  c #291D12",
"p  c #261F16",
"a  c #25211A",
"s  c #24251D",
"d  c #252820",
"f  c #262D22",
"g  c #293425",
"h  c #2B3828",
"j  c #303C2A",
"k  c #333D2B",
"l  c #363D2C",
"z  c #383B2D",
"x  c #3B3B2B",
"c  c #3F3A2B",
"v  c #483828",
"b  c #4F3928",
"n  c #4C3A2B",
"m  c #493C30",
"M  c #493E33",
"N  c #493E35",
"B  c #484038",
"V  c #45413B",
"C  c #44443E",
"Z  c #424640",
"A  c #434742",
"S  c #454943",
"D  c #464B45",
"F  c #474D45",
"G  c #485046",
"H  c #495347",
"J  c #485845",
"K  c #465E43",
"L  c #466441",
"P  c #476B41",
"I  c #486D43",
"U  c #496D44",
"Y  c #4A6C46",
"T  c #4D6B49",
"R  c #506F4B",
"E  c #52704E",
"W  c #546F50",
"Q  c #556B52",
"!  c #566754",
"~  c #576356",
"^  c #596458",
"/  c #5B665A",
"(  c #5C665B",
")  c #5E675D",
"_  c #5F675F",
"`  c #616760",
"'  c #626861",
"]  c #636963",
"[  c #656A65",
"{  c #686B67",
"}  c #6A6F69",
"|  c #6B706A",
" . c #6B716A",
".. c #6B726A",
"X. c #6B726B",
"o. c #6C736B",
"O. c #6C746B",
"+. c #6D746C",
"@. c #6F756D",
"#. c #70766F",
"$. c #717670",
"%. c #737872",
"&. c #757B74",
"*. c #787F77",
"=. c #7A8079",
"-. c #7B827A",
";. c #7E817D",
":. c #818380",
">. c #838582",
",. c #858884",
"<. c #888D87",
"1. c #8A9189",
"2. c #8A9389",
"3. c #8A9689",
"4. c #8A9888",
"5. c #8A9B88",
"6. c #899C87",
"7. c #889C86",
"8. c #879B85",
"9. c #839D80",
"0. c #7F9F7B",
"q. c #7BA175",
"w. c #77A371",
"e. c #75A56D",
"r. c #6FA567",
"t. c #6BA562",
"y. c #6CA963",
"u. c #6FAF65",
"i. c #6FB264",
"p. c #6FB565",
"a. c #71B766",
"s. c #73BB67",
"d. c #75C069",
"f. c #76C36A",
"g. c #78C66B",
"h. c #79C76C",
"j. c #7ACA6D",
"k. c #7BCB6E",
"l. c #7BCC6E",
"z. c #7CCD6F",
"x. c #7CCD6F",
"c. c #7CCE6F",
"v. c #7DCF70",
"b. c #7DCF70",
"n. c #7DD070",
"m. c #7DD070",
"M. c #7ED171",
"N. c #7ED271",
"B. c #7FD372",
"V. c #7FD472",
"C. c #80D473",
"Z. c #80D573",
"A. c #80D573",
"S. c #80D573",
"D. c #80D573",
"F. c #80D573",
"G. c #80D573",
"H. c #80D573",
"J. c #80D573",
"K. c #80D573",
"L. c #80D573",
"P. c #80D574",
"I. c #81D574",
"U. c #81D574",
"Y. c #81D574",
"T. c #81D574",
"R. c #81D574",
"E. c #85CF7A",
"W. c #8AC980",
"Q. c #8FC487",
"!. c #94BD8E",
"~. c #99B895",
"^. c #9DB49A",
"/. c #A1B19E",
"(. c #A4AEA2",
"). c #A7ADA6",
"_. c #A9ACA9",
"`. c #ABACAB",
"'. c #ACACAC",
"]. c gray68",
"[. c #AEAEAE",
"{. c #AFAFAF",
"}. c #B1B1B1",
"|. c #B2B2B2",
" X c gray70",
".X c gray71",
"XX c #B7B7B7",
"oX c gray72",
"OX c #B9B9B9",
"+X c gray73",
"@X c #BBBBBB",
"#X c #BCBCBC",
"$X c #BCBCBC",
"%X c gray74",
"&X c gray",
"*X c gray",
"=X c gray75",
"-X c gray75",
";X c #C0C0C0",
":X c #C1C1C1",
">X c gray76",
",X c #C3C3C3",
"<X c gray77",
"1X c #C6C6C6",
"2X c #C8C8C8",
"3X c gray80",
"4X c #CECECE",
"5X c #D0D0D0",
"6X c #D2D2D2",
"7X c gray83",
"8X c gray84",
"9X c gray85",
"0X c gray86",
"qX c gainsboro",
"wX c gainsboro",
"eX c #DDDDDD",
"rX c gray87",
"tX c #DFDFDF",
"yX c gray88",
"uX c #E1E1E1",
"iX c #E2E2E2",
"pX c #E2E2E2",
"aX c gray89",
"sX c #E4E4E4",
"dX c #E6E6E6",
"fX c gray91",
"gX c gray92",
"hX c gray93",
"jX c #EFEFEF",
"kX c gray94",
"lX c gray95",
"zX c #F3F3F3",
"xX c gray96",
"cX c gray97",
"vX c #F9F9F9",
"bX c gray98",
"nX c gray98",
"mX c #FBFBFB",
"MX c #FBFBFB",
"NX c gray99",
"BX c #FDFDFD",
"VX c #FDFDFD",
"CX c #FEFEFE",
"ZX c #FEFEFE",
"AX c #FEFEFE",
"SX c #FEFEFE",
"DX c #FEFEFE",
"FX c #FEFEFE",
"GX c #FEFEFE",
"HX c #FEFEFE",
"JX c #FEFEFE",
"KX c #FEFEFE",
"LX c #FEFEFE",
"PX c #FEFEFE",
"IX c #FEFEFE",
"UX c None",
/* pixels */
"UXUXUXUXUXUXUXUXUXUXUXUXUXUXUXUXUXUXUXUXUXUXUXUXUXUXUXUXUXUXUXUXUXUXUXUXUXUXUXUXUXUXUXUXUXUXUXUXUXUXUXUXUXUXUXUXUXUXUXUXUXUXUXUX",
"UXUXUXUXUXUXUXUXUXUXUXUXUXUXUXUXUXUXUXUXUXUXUXUXUXUXUXUXUXUXUXUXUXUXUXUXUXUXUXUXUXUXUXUXUXUXUXUXUXUXUXUXUXUXUXUXUXUXUXUXUXUXUXUX",
"UXUXUXUXUXUXUXUX*XcXUXUXUXUXUXUXUXUXUXUXUXUXUXUXUXUXUXUXUXUXUXUXUXUXUXUXUXUXUXUXUXUXUXUXUXUXUXUXUXUXUXUXUXUXUXUXUXUXUXUXUXUXUXUX",
"UXUXUXUXUXUXUXzXh >XNXUXUXUXUXUXUXUXUXUXUXUXUXUXUXUXUXUXUXUXUXUXUXUXUXUXUXUXUXUXUXUXUXUXUXUXUXUXUXUXUXUXUXUXUXUXUXUXUXUXUXUXUXUX",
"UXUXUXUXUXUXUXkX@ <.GXUXUXUXUXUXUXUXUXUXUXUXUXUXUXUXUXUXUXUXUXUXUXUXUXUXUXUXUXUXUXUXUXUXUX].jXGXUXUXUXUXUXUXUXUXUXUXUXUXUXUXUXUX",
"UXUXUXUXUXUXGX9X$ S UXUXUXUXUXUXUXUXUXUXUXUXUXUXUXUXUXUXUXUXUXUXUXUXUXUXUXUXUXUXUXUXUXUXeX; ) VXUXUXUXUXUXUXUXUXUXUXUXUXUXUXUXUX",
"UXUXUXUXUXUXvX X@ a aX*XcXUXUXUXUXUXUXUXUXUXUXUXUXUXUXUXUXUXUXUXUXUXUXUXUXUXUXUXUXUXUXMX}.X < /.UXUXUXUXUXUXUXUXUXUXUXUXUXUXUXUX",
"UXUXUXUXUXUXjX*.X 1 <.h >XNXUXUXUXUXUXUXUXUXUXUXUXUXUXUXUXUXUXUXUXUXUXUXUXUXUXUXUXUXUXlX%.X % V nXUXUXUXUXUXUXUXUXUXUXUXUXUXUXUX",
"UXUXUXUXUXUXaX) X & Z @ <.GXUXUXUXUXUXUXUXUXUXUXUXUXUXUXUXUXUXUXUXUXUXUXUXUXUXUXUXUXUXdXD X X a >.jXGXUXUXUXUXUXUXUXUXUXUXUXUXUX",
"UXUXUXUXUXUXwX~ X X 3 @ Z UXUXUXUXUXUXUXUXUXUXUXUXUXUXUXUXUXUXUXUXUXUXUXUXUXUXUXUXUXUX5X4 X X : & ) VXUXUXUXUXUXUXUXUXUXUXUXUXUX",
"UXUXUXUXUXUX8XG X X % X 1 3XUXUXUXUXUXUXUXUXUXUXUXUXUXUXUXUXUXUXUXUXUXUXUXUXUXUXUXUXcX).X X X $ # 4 /.UXUXUXUXUXUXUXUXUXUXUXUXUX",
"UXUXUXUXUXUX8X~ X X # 5 6 A 4XvXUXUXvXlXVXUXUXUXUXUXUXUXUXUXUXUXUXUXUXUXUXUXUXUXUXVX8X` X X X @ 5 0 V nXUXxX4X'.OXuXUXUXUXUXUXUX",
"UXUXUXUXUXUXhX;.$ X + & * * G 3.<X9XoX/.wXGXUXUXUXUXUXUXUXUXUXUXUXUXUXUXUXUXUXUXGXpX*.$ X X X % 9 5 a :XnX;XG s h <.NXUXUXUXUXUX",
"UXUXUXUXUXUXVX'.d X X & 5 % @ 2 Z ) k > @.hXUXGXjX6XuXUXUXlX:XOXjXUXUXUXUXUXUXUXhX1.2 X X X X - b b a | kX,.$ X X ^ zXUXUXUXUXUX",
"UXUXUXUXUXUXUXdX{ & # = ; @ X X X X X X a ^.cXwX$.f 2.7X2.~ z ) 3XNXfX5X2X6XtXeX2.d X X X X X * i b b z <X@.X X X ` hXUXUXUXUXUX",
"UXUXUXUXUXUXUXNX|.f % 9 i 9 & X X X X X X x | z % % 2 s 4 = X f =.<.| H D G { H 2 X X X X X @ ; q q b c 1.^ X X X ^ (.OXuXUXUXUX",
"UXUXUXUXUXUXGXdXOXF * = q e r t 9 % X X X X X X X X X X X X X ; a 2 $ X X X X X X X X X X X 9 b b w b n &.S X X X j x V <.NXUXUX",
"UXUXUXUXUXUX4.V f 4 % & 0 y i i e * & = # ; > $ X X X X X X X X X X X X X X X X X X X X + = 0 i i y b b { f X X $ 3 f p ^ zXUXUX",
"UXUXUXUXUXjXF & X X X @ - e i y y y b i 4 h P p @ X X X X X X X X $ $ X X X X X X X X X = i y = q b b M H 3 X X - a j 3 ` hXUXUX",
"UXUXUXUXUXdXz X X X X X # y b b b b b b d R h.P ; @ # s f & & f L l 1 X X $ > 1 = + % % e b b e i b 0 x D : X X 3 Z +.l | jXUXUX",
"UXUXUXUXUXVXH = X X X X X 7 b b i i b t K a.Y.p.j 1 P a.d.y.t.i.d.t.g p g K P P s 5 y t 9 b b b y 9 9 c D : X X s ~ 9.V =.zXUXUX",
"UXUXUXUXUXUX2.2 X X X = 1 2 e 5 j L s s t.L.Y.Y.s.f.C.T.T.B.B.T.Y.f.t.W y.j.P.a.g b b b e b b i 9 b i D Z - X X h [ -.j 2.MXUXUX",
"UXUXUXUXUXUX0X4 X X L t.t.t.R K t.c.P L p.Y.Y.Y.Y.Y.Y.Y.Y.Y.Y.Y.Y.Y.Y.Y.Y.Y.Y.s.h b b b y b b 5 i b e :.z & X X C &.O.z '.UXUXUX",
"UXUXUXUXUXUXMX~ & X R x.Y.Y.n.d.c.Y.t.y.x.Y.Y.Y.Y.Y.Y.Y.Y.Y.Y.Y.Y.Y.Y.Y.Y.Y.Y.M.I s i b b b 9 i b y x ;Xf $ X X F -.( A >XUXUXUX",
"UXUXUXUXUXUX[.j X X L f.Y.Y.Y.Y.Y.Y.Y.Y.Y.Y.Y.Y.Y.Y.Y.Y.Y.Y.Y.Y.Y.Y.Y.Y.Y.Y.Y.Y.n.E g ; , i b b w D %XxXa @ X X H 0.J ~ 7XUXUXUX",
"UXUXUXGXgX^ 3 = X X s s.Y.Y.Y.Y.Y.Y.p.y.h.L.Y.Y.Y.Y.Y.Y.Y.Y.Y.Y.Y.Y.Y.Y.Y.Y.h.k.C.L.y.P U g < 5 V 1X,X,.= X X * J 9.z | aXUXUXUX",
"UXUXcX3Xz * X X X X & t.B.Y.Y.Y.Y.x.K k I i.n.Y.Y.Y.Y.Y.Y.Y.Y.Y.Y.Y.Y.B.p.E P U j.Y.Y.Y.Y.x.P > h G z 3 X X $ < ~ 8.d 1.kXUXUXUX",
"UXVX^., $ X X X X X X j b.Y.Y.Y.Y.t.s | C k t.p.g.M.Y.Y.Y.Y.Y.Y.Y.n.t.P j Z G 1 i.C.Y.Y.Y.L.M.R - % X X X X * , ) 8.3 {.vXUXUXUX",
"MXrX= X X X X X X X X - y.Y.Y.Y.Y.L A vX7X` f h k U g.Y.Y.Y.Y.L.t.l h ^ =._.0Xa W B.Y.Y.Y.p.s & + X X X X X ; : _ -.- 2XNXUXUXUX",
"eX| X X X X X X X = V 1 P Y.Y.Y.N.L G UXvXxX3X(.{ 2 & I Y.Y.C.I s ( (.6XcXUXjXa E Y.Y.Y.Y.I X X X X X & 4 d d & j Z 3 jXUXUXUXUX",
"^.X X X X X X % d O.` , E Y.Y.Y.M.E f 4X_._.zXzXrX| - W Y.Y.j.s ,.8XNXvXMXcX2.1 i.Y.Y.Y.M.P X X & a ~ ^ V f s 1 V 4 C UXUXUXUXUX",
",.X X $ a D , k -.7.+.1 u.Y.Y.Y.C.p.h G , 3 (.3.j p t.B.Y.Y.d.s >.cX{.@.<.^.j P Y.Y.Y.Y.B.t.@ z &.| k h Z ~ Z a -.V H UXUXUXUXUX",
";.X & ~ #.4 J 8.5.5.%.s t.Y.Y.Y.Y.b.t.h s p s s L d.Y.Y.Y.Y.j.P h %.V $ 1 l P j.Y.Y.Y.Y.Y.s.s a s f J O.-.8.) < ~ B [ UXUXUXUXUX",
"$.X ; z > Z 6.5.6.-./ s E Y.Y.Y.Y.Y.B.d.t.t.t.j.Y.Y.Y.Y.Y.Y.C.a.P J j h K E h.Y.Y.Y.Y.Y.C.t.& 3 ) -.9.0./ Z h a C G _.UXUXUXUXUX",
"| X X - 4 1 l ~ d 1 p l s.Y.Y.Y.Y.Y.Y.Y.Y.Y.Y.Y.Y.Y.Y.Y.Y.Y.Y.B.f.i.y.i.f.Y.Y.Y.Y.Y.Y.Y.T.t.s ( 9.#.G g z ] :./.}.-XxXUXUXUXUXUX",
"$.$ X a H j $ f #.D > g t.B.Y.Y.Y.Y.Y.Y.Y.Y.Y.Y.Y.Y.Y.Y.Y.Y.Y.Y.Y.Y.Y.Y.Y.Y.Y.Y.Y.Y.Y.Y.Y.p.k a d s F :.;X9XhXVXUXUXUXUXUXUXUXUX",
":.< X * - = ` aXtX` * - g R l.Y.Y.Y.Y.Y.Y.Y.Y.Y.Y.Y.Y.Y.Y.Y.Y.L.f.t.U U i.Y.Y.Y.Y.Y.Y.Y.Y.b.Y a #.>XeXgXGXUXUXUXUXUXUXUXUXUXUXUX",
"^.a X h ~ h :.GXnX1XG ; % s Y g.Y.Y.Y.Y.Y.Y.T.j.f.l.Y.C.g.y.R K g f h k P f.Y.Y.Y.Y.Y.Y.Y.Y.t.z <.MXUXUXUXUXUXUXUXUXUXUXUXUXUXUX",
"*Xf X Z -.V &.xXUXnX3X] < $ g y.Y.Y.Y.Y.Y.Y.B.P 1 : - , 1 3 g l P j V ^ Z t.Y.Y.Y.Y.Y.Y.Y.Y.h.L H 8XUXUXUXUXUXUXUXUXUXUXUXUXUXUX",
"dXz X Z 0.Z { yXUXUXUX{.4 3 P s.Y.Y.Y.Y.Y.Y.Y.P z f h E t.u.p.a.h.E G ` F E Y.Y.Y.Y.Y.Y.Y.Y.Y.P ^ 8XUXUXUXUXUXUXUXUXUXUXUXUXUXUX",
"UXH X j &.J / 4XUXUXpX%.; s W N.Y.Y.Y.Y.Y.Y.Y.P h f R B.B.L.Y.Y.Y.t.j f Z t.Y.Y.Y.Y.Y.B.n.B.Y.P ^ 4XUXUXUXUXUXUXUXUXUXUXUXUXUXUX",
"UX:.X s +./ Z -XUXvX[ 3 $ = g t.x.Y.Y.Y.Y.Y.Y.t.g & j p.Y.Y.Y.Y.Y.t.g h W h.Y.Y.Y.Y.Y.p.R U W k ~ 3XUXUXUXUXUXUXUXUXUXUXUXUXUXUX",
"UX2.X , O.%.d `.MXNX=.3 @ X # g t.l.Y.Y.Y.Y.Y.Y.d.P k u.Y.Y.Y.Y.Y.f.t.u.b.Y.Y.Y.Y.Y.n.P , X & 4 &.pXUXUXUXUXUXUXUXUXUXUXUXUXUXUX",
"UX XX X / 8.f 1.jXUX^.< @ X X # l s.Y.Y.Y.Y.Y.Y.Y.Y.L.C.Y.Y.Y.Y.Y.Y.Y.Y.Y.Y.Y.Y.Y.Y.t.s X X @ 3 S ).cXUXUXUXUXUXUXUXUXUXUXUXUXUX",
"UX(.X X Z 0.h ;.gX6Xz @ X X X 1 U h.Y.Y.Y.Y.Y.Y.Y.Y.Y.Y.Y.Y.Y.Y.Y.Y.Y.Y.Y.Y.Y.Y.Y.f.k 1 ; % X X & f eXGXUXUXUXUXUXUXUXUXUXUXUXUX",
"nX3.X X h 0.V %.7XD @ X X X & g I s.C.Y.Y.Y.Y.Y.Y.Y.Y.Y.Y.Y.Y.Y.Y.Y.Y.Y.Y.Y.Y.d.y.P 1 A ) ~ l , @ X <XGXUXUXUXUXUXUXUXUXUXUXUXUX",
"VX0X& X 4 &.l ~ [ * X X X * : s p K E g.L.Y.Y.Y.Y.Y.Y.Y.Y.Y.Y.Y.Y.Y.Y.Y.Y.Y.y.P f a s z ! 0.5.-.Z - &.dXVXUXUXUXUXUXUXUXUXUXUXUX",
"UXGX{.@.& & @ f 1 X X X : z 1 Z J l p t.B.Y.Y.Y.Y.Y.Y.Y.Y.Y.Y.Y.Y.Y.Y.Y.Y.u.j D [ 3.`.{ a ; d / O.~ f D ).cXUXUXUXUXUXUXUXUXUXUX",
"UXUXUX(.% %.} - X X X = z h Z 0.5.' - k t.d.Y.Y.Y.Y.Y.Y.Y.Y.Y.Y.Y.Y.Y.Y.s.h F 8XVXUXUXUXrXZ @ * , s = a f eXGXUXUXUXUXUXUXUXUXUX",
"UXUXnX3.a <.1.V X X X a j j -.5.O.h A Z k P s.P.N.M.Y.Y.Y.Y.Y.Y.Y.T.p.R L z 4XUXUXUXUXjX<.= X X a k @ ~ % 3XGXUXUXUXUXUXUXUXUXUX",
"UXUXVX0Xk 1 a 3 X X X a a [ 6.O.j ' 4X6X3.V h s.W f s g E s.Y.Y.Y.M.R 2 a _.UXUXUXUXNX>Xa X X & Z G @ a ; gXUXUXUXUXUXUXUXUXUXUX",
"UXUXUXGXhX{.3.^ X X X & : j J k ` tXUXUXNX6Xz h p | 4.` d p j U i.g.l f =.xXUXUXUXUXwX[ $ X X a %.4 ~ Z a UXUXUXUXUXUXUXUXUXUXUX",
"UXUXUXUXUXUXgX;.X X X 4 ^ z 4 D 6XUXUXUXUXcX].s H UXVXxXrX{.+.Z g k g 2.fXUXUXUXUXGX Xa X X @ A G h -.V ` UXUXUXUXUXUXUXUXUXUXUX",
"UXUXUXUXUXUXfX#.X X X 3 D d s (.UXUXUXUXUXUXxX4XeXUXUXUXGXcXsX1X2.$.2.fXUXUXUXUXUXhX:.@ X X 4 D d +.O.f .XUXUXUXUXUXUXUXUXUXUXUX",
"UXUXUXUXUXUXcX=.% X X 1 z f z 6XUXUXUXUXUXUXUXUXUXUXUXUXUXUXUXVXkXuXlXUXUXUXUXUXUXOXz X X X f d J 0.J S lXUXUXUXUXUXUXUXUXUXUXUX",
"UXUXUXUXUXUXGX,.< X X f $.J C 5XUXUXUXUXUXUXUXUXUXUXUXUXUXUXUXUXUXUXUXUXUXUXUXUXnX:.= X X X h k 9.O.z 1.UXUXUXUXUXUXUXUXUXUXUXUX",
"UXUXUXUXUXUXUX^.s X X l 5._ D %XUXUXUXUXUXUXUXUXUXUXUXUXUXUXUXUXUXUXUXUXUXUXUXUXrX^ X X X 4 h ( 9.J F wXUXUXUXUXUXUXUXUXUXUXUXUX",
"UXUXUXUXUXUXUX^.s X X Z 6.O.Z ^.UXUXUXUXUXUXUXUXUXUXUXUXUXUXUXUXUXUXUXUXUXUXUXUX2.a X X X f j 0.@.Z ,.MXUXUXUXUXUXUXUXUXUXUXUXUX",
"UXUXUXUXUXUXUX:Xz $ X l 0.-.Z %.jXUXUXUXUXUXUXUXUXUXUXUXUXUXUXUXUXUXUXUXUXUXUXUX;.2 X X X f J 5./ G XXUXUXUXUXUXUXUXUXUXUXUXUXUX",
"UXUXUXUXUXUXUXzX_.' f l &.6.J ~ 3XUXUXUXUXUXUXUXUXUXUXUXUXUXUXUXUXUXUXUXUXUXUXUXXXk $ X X j %.9.Z { dXUXUXUXUXUXUXUXUXUXUXUXUXUX",
"UXUXUXUXUXUXUXUXlX8X;.k H ^ k C OXUXUXUXUXUXUXUXUXUXUXUXUXUXUXUXUXUXUXUXUXUXUXUXUXOX) d a Z 9._ V (.MXUXUXUXUXUXUXUXUXUXUXUXUXUX",
"UXUXUXUXUXUXUXUXUXUX^.d a z d h oXUXUXUXUXUXUXUXUXUXUXUXUXUXUXUXUXUXUXUXUXUXUXUXUXUXUX1.a $ 1 2 ) 5XUXUXUXUXUXUXUXUXUXUXUXUXUXUX",
"UXUXUXUXUXUXUXUXUXUX:Xz p d p ~ 5XUXUXUXUXUXUXUXUXUXUXUXUXUXUXUXUXUXUXUXUXUXUXUXUXUXUX;.V ' ^ a $.pXUXUXUXUXUXUXUXUXUXUXUXUXUXUX",
"UXUXUXUXUXUXUXUXUXUXzX_.| _ &.-XxXUXUXUXUXUXUXUXUXUXUXUXUXUXUXUXUXUXUXUXUXUXUXUXUXUXUXXXz z H a ;.fXUXUXUXUXUXUXUXUXUXUXUXUXUXUX"
};
