/* XPM */
static char *uhooi_dancing_4[] = {
/* columns rows colors chars-per-pixel */
"64 64 256 2 ",
"   c black",
".  c black",
"X  c black",
"o  c black",
"O  c black",
"+  c black",
"@  c #010000",
"#  c #020101",
"$  c #040303",
"%  c #080705",
"&  c #0B0906",
"*  c #0B0A08",
"=  c #0C0C09",
"-  c #0D0D0B",
";  c #0E0F0B",
":  c #10110C",
">  c #12140D",
",  c #13150E",
"<  c #14160E",
"1  c #16160F",
"2  c #19160F",
"3  c #1C1710",
"4  c #21170E",
"5  c #28190F",
"6  c #2D1B10",
"7  c #311C12",
"8  c #341F13",
"9  c #362115",
"0  c #3C2416",
"q  c #402718",
"w  c #462A19",
"e  c #482C1B",
"r  c #472E1C",
"t  c #432E1D",
"y  c #39301F",
"u  c #2D3121",
"i  c #2A3022",
"p  c #282E23",
"a  c #282F25",
"s  c #282F27",
"d  c #282F27",
"f  c #282E27",
"g  c #292E28",
"h  c #292F28",
"j  c #2B2F29",
"k  c #2C302A",
"l  c #2E332C",
"z  c #2F352E",
"x  c #32362F",
"c  c #333631",
"v  c #343732",
"b  c #353833",
"n  c #363A33",
"m  c #383C34",
"M  c #394034",
"N  c #3A3E36",
"B  c #3D3D37",
"V  c #413E3A",
"C  c #423F3B",
"Z  c #44413D",
"A  c #45423E",
"S  c #474441",
"D  c #494944",
"F  c #4B4D47",
"G  c #4C5148",
"H  c #4C5547",
"J  c #4C5848",
"K  c #4C5C48",
"L  c #4A5F46",
"P  c #496344",
"I  c #486942",
"U  c #497142",
"Y  c #497542",
"T  c #4A7743",
"R  c #4B7A44",
"E  c #4C7C45",
"W  c #4E7F46",
"Q  c #4F8147",
"!  c #508148",
"~  c #508249",
"^  c #52844A",
"/  c #53864B",
"(  c #55894D",
")  c #578B4F",
"_  c #598C50",
"`  c #5A8D52",
"'  c #5B8D53",
"]  c #5D9055",
"[  c #5E9156",
"{  c #5F9257",
"}  c #619259",
"|  c #628D5A",
" . c #63865D",
".. c #64815F",
"X. c #687963",
"o. c #6C7567",
"O. c #6E7469",
"+. c #6F726B",
"@. c #71726E",
"#. c #737370",
"$. c #757573",
"%. c #777776",
"&. c #797977",
"*. c #7A7B78",
"=. c #7B7D79",
"-. c #7B7E79",
";. c #7C807A",
":. c #7C827A",
">. c #7D877A",
",. c #7C8C79",
"<. c #7B9177",
"1. c #7A9775",
"2. c #799B74",
"3. c #78A072",
"4. c #77A470",
"5. c #76A76E",
"6. c #73AB6A",
"7. c #6FAF66",
"8. c #6DB263",
"9. c #6CB362",
"0. c #6EB563",
"q. c #6FB864",
"w. c #71BB65",
"e. c #72BE67",
"r. c #74C068",
"t. c #75C269",
"y. c #76C46A",
"u. c #77C66B",
"i. c #78C86C",
"p. c #79C96D",
"a. c #7ACB6E",
"s. c #7BCC6E",
"d. c #7BCD6F",
"f. c #7CCE6F",
"g. c #7CCE70",
"h. c #7CCF70",
"j. c #7DCF70",
"k. c #7DD070",
"l. c #7ED171",
"z. c #7ED271",
"x. c #7FD372",
"c. c #7FD372",
"v. c #80D473",
"b. c #80D573",
"n. c #80D573",
"m. c #80D573",
"M. c #80D573",
"N. c #80D573",
"B. c #80D573",
"V. c #80D573",
"C. c #80D573",
"Z. c #80D573",
"A. c #80D573",
"S. c #80D573",
"D. c #80D574",
"F. c #81D574",
"G. c #81D574",
"H. c #81D574",
"J. c #81D574",
"K. c #81D574",
"L. c #81D574",
"P. c #81D574",
"I. c #81D574",
"U. c #81D574",
"Y. c #81D574",
"T. c #81D574",
"R. c #81D574",
"E. c #81D575",
"W. c #82D476",
"Q. c #84D378",
"!. c #86D17A",
"~. c #89CF7E",
"^. c #8DCB84",
"/. c #95C58E",
"(. c #9CBE97",
"). c #A4B9A1",
"_. c #AAB5A8",
"`. c #AEB2AD",
"'. c #B1B1B1",
"]. c #B1B1B1",
"[. c #B1B1B1",
"{. c #B1B1B1",
"}. c #B1B1B1",
"|. c #B1B1B1",
" X c #B2B2B2",
".X c #B4B4B4",
"XX c #B6B6B6",
"oX c gray72",
"OX c gray73",
"+X c #BCBCBC",
"@X c gray74",
"#X c gray",
"$X c gray",
"%X c gray75",
"&X c gray75",
"*X c #C0C0C0",
"=X c #C0C0C0",
"-X c #C3C3C3",
";X c #C5C5C5",
":X c gray78",
">X c gray79",
",X c #CBCBCB",
"<X c #CECECE",
"1X c #D0D0D0",
"2X c LightGray",
"3X c gray84",
"4X c #DADADA",
"5X c gainsboro",
"6X c gray87",
"7X c #DFDFDF",
"8X c gray88",
"9X c #E1E1E1",
"0X c #E2E2E2",
"qX c gray89",
"wX c gray90",
"eX c #E7E7E7",
"rX c #EAEAEA",
"tX c #ECECEC",
"yX c gray93",
"uX c #EFEFEF",
"iX c gray94",
"pX c #F1F1F1",
"aX c #F3F3F3",
"sX c #F4F4F4",
"dX c #F6F6F6",
"fX c gray97",
"gX c #F8F8F8",
"hX c #F9F9F9",
"jX c gray98",
"kX c gray98",
"lX c #FBFBFB",
"zX c gray99",
"xX c gray99",
"cX c #FDFDFD",
"vX c #FDFDFD",
"bX c #FDFDFD",
"nX c #FEFEFE",
"mX c #FEFEFE",
"MX c #FEFEFE",
"NX c #FEFEFE",
"BX c #FEFEFE",
"VX c #FEFEFE",
"CX c #FEFEFE",
"ZX c #FEFEFE",
"AX c #FEFEFE",
"SX c #FEFEFE",
"DX c #FEFEFE",
"FX c #FEFEFE",
"GX c #FEFEFE",
"HX c #FEFEFE",
"JX c #FEFEFE",
"KX c #FEFEFE",
"LX c #FEFEFE",
"PX c #FEFEFE",
"IX c #FEFEFE",
"UX c None",
/* pixels */
"UXUXUXUXUXUXUXUXUXUXUXUXUXUXUXUXUXUXUXUXUXUXUXUXUXUXUXUXUXUXUXUXUXUXUXUXUXUXUXUXUXUXUXUXUXUXUXUXUXUXUXUXUXUXUXUXUXUXUXUXUXUXUXUX",
"UXUXUXUXUXUXUXUXUXUXUXUXUXUXUXUXUXUXUXUXUXUXUXUXUXUXUXUXUXUXUXUXUXUXUXUXUXUXUXUXUXUXUXUXUXUXSXuXxXUXUXUXUXUXUXUXUXUXUXUXUXUXUXUX",
"UXUXUXUXUXUXUXUXUXUX9XSXUXUXUXUXUXUXUXUXUXUXUXUXUXUXUXUXUXUXUXUXUXUXUXUXUXUXUXUXUXUXUXUXUXUX4X% b 3XvXUXUXUXUXUXUXUXUXUXUXUXUXUX",
"UXUXUXUXUXUXUXUXUXlX#.6XSXUXUXUXUXUXUXUXUXUXUXUXUXUXUXUXUXUXUXUXUXUXUXUXUXUXUXUXUXUXSXuXxXUXoX; o K uXUXUXUXUXUXUXUXUXUXUXUXUXUX",
"UXUXUXUXUXUXUXUXUXpX1 <.dXUXUXUXUXUXUXUXUXUXUXUXUXUXUXUXUXUXUXUXUXUXUXUXUXUXUXUXUXUXhX>.,XUX,.: o ; *XkXUXUXUXUXUXUXUXUXUXUXUXUX",
"UXUXUXUXUXUX9XSXUXuXp F eXUXUXUXUXUXUXUXUXUXUXUXUXUXUXUXUXUXUXUXUXUXUXUXUXUXUXUXUXUX4X* N 3X@.; o o o.wXUXUXUXUXUXUXUXUXUXUXUXUX",
"UXUXUXUXUXlX#.6XSX7Xg , -XlXUXUXUXUXUXUXUXUXUXUXUXUXUXUXUXUXUXUXUXUXUXUXUXUXUXUXUXUXoX1 & X.D % o o 2 XXgXUXUXUXUXUXUXUXUXUXUXUX",
"UXUXUXUXUXpX1 <.dX-Xg o %.wXUXUXUXUXUXUXUXUXUXUXUXUXUXUXUXUXUXUXUXUXUXUXUXUXUXUXUXUX,.5 5 , l o o o o @.0XUXUXUX0X(.+.>.7XUXUXUX",
"UXUXUXUXUXuXp F eX).p o p XXkXUXUXUXUXUXUXUXUXUXUXUXUXUXUXUXUXUXUXUXUXUXUXUXUXUXUXUX@.9 7 - 1 o o o o S ,XUXUXdX>.a ; 1 _.kXUXUX",
"UXUXUXUXUX7Xg , -X).f o # K >XkXUXUXUXUXUXUXUXUXUXUXUXUXUXUXUXUXUXUXUXUXUXUXUXUXUXvXF w r r & o o o o N *XUXUXeXJ # o o >.aXUXUX",
"UXUXUXUXUX-Xl & &.(.k o o - G '.uXUXUXUXUXUXUXUXUXUXUXUXUXUXUXUXUXUXUXUXUXUXUXUXUXwXB 5 7 r 7 $ o o o b ).(.+.&.F o o o *.pXUXUX",
"UXUXUXUXUX).g - a ;.v o o o % c =.,XgXUXSX5X3XdXUXUXUXlXsXgXUXUXdX<X,XaXUXUXUXUXSX`.l 7 4 w w & o o o z K V V p m o o o @.uXUXUX",
"UXUXUXUXUX).f % % F Z # o o o # 1 B X.<.).G p ,.fXUXlX3X_.>XuX,X(.G o.<XlX8X'.<.&.k 7 r 7 w w = o o o f B 3 3 % j o o o +.dXUXUX",
"UXUXUXUXUX_.l & & : k ; o o o o o # * 2 3 * # f ).dX1XX.2 K ,.F , o f #.-.F g 3 * & 6 w 6 w r 4 o o o f N a D p 3 o o % +.SXUXUX",
"UXUXUXUXUX XB 4 4 & & : # o o o o o o o o o o # z @.C # o o o o o o * 3 , # o o % 0 7 & 7 r w & o o o z D D ,.Z ; o o ; %.UXUXUX",
"UXUXUXUXUX<XH 5 7 7 6 7 5 % o o o o o o o o o o o o o o o # # o o o o o o o o o 6 r r 8 w 8 4 % o o * F K K 1.D = o o 2 >.UXUXUX",
"UXUXUXUXUXaX,.3 4 7 w w 6 % & 4 % p l ; o o o $ & # # ; i a < o o $ < i < $ - 6 4 w D r 7 6 8 & o % B >.G P <.D ; o o 3 <.UXUXUX",
"UXUXUXUXUXUX<XJ 4 7 8 7 8 w r r 7 M w.U % + % i M i p I } } j < a Y } } M 6 r r 8 w D e 4 e r % $ l `.XXC X.,.D ; o o 3 _.UXUXUX",
"UXUXUXUXUXUXgX'.x 5 r r r r r r p _ S.w.M > M 0.c.p.i.c.J.i.[ ) 9.i.D.u.U 7 D r w 8 r 6 7 r 8 o = o.hX@Xb X.>.D * o o 3 -XUXUXUX",
"UXUXUXUXUXUXkX2X@.4 w r 0 5 5 4 l a.J.G.p.q.z.J.J.J.J.J.J.J.J.J.J.J.J.k.` 1 7 r r r e 5 r w $ o % D *X>Xm X.>.C % o o , 1XUXUXUX",
"UXUXUXUXUXaXXX;.K 2 4 5 3 Q Y 2 U J.J.J.J.J.J.J.J.J.J.J.J.J.J.J.J.J.J.G.a.] i $ # 2 w e w $ o o # 3 =.2Xc X.>.z * o o = eXUXUXUX",
"UXUXUXUXSX<Xl a I T R I Y j.q.M } J.J.J.J.J.J.J.J.J.J.J.J.J.J.J.J.J.J.J.J.l.e.Q l U 2 2 & o o % b ;.5X5Xp X.,.2 % o o p kXUXUXUX",
"UXUXUXUXkX#X< 0.J.J.v.a.t.J.l.w.g.J.J.J.J.J.J.J.J.J.J.J.J.J.J.J.J.J.x.q.t.J.D.c.J.S.t.I < o o j tXUXUXqX1 o.,.$ # o o B dXUXUXUX",
"UXUXUXUXxX<X1 } J.J.J.J.J.J.J.J.J.J.J.J.J.J.J.J.J.J.J.J.J.J.J.J.k.} M p i c.J.J.J.J.z.9.M o o l eXlX7X).= X.#.o o o o N tXUXUXUX",
"UXUXUXUXUXsXD M J.J.J.J.J.J.c._ R w.J.J.J.J.J.J.J.J.J.J.J.J.k.] M i J <.= } J.J.J.J.9.< o o o # ).XXK - o p a o o o o F eXUXUXUX",
"UXUXUXUXUXSX_.> r.J.J.J.J.J.u.p d < I y.D.j.f.v.J.J.J.J.J.9.U k X.(.1XiXf / v.J.J.J.R $ o o o o ; * $ ; : G p # ; b F `.sXUXUXUX",
"UXUXUXUXUXUXtXk U z.J.J.J.J.~ g :X_.z = 1 z Y 9.r.v.J.J.9.x F <.2XfXUXwX3 ) l.J.J.J.R % o o o o $ 3 D D 1 -.F 3 ,.*X2XpXSXUXUXUX",
"UXUXUXUXUXUX9XD < 9.c.J.J.J.I H yXdXrX+X(.o.p $ I a.J.J.z G XXdXhXkXlX&.i q.G.J.J.J.9.< # o $ 3 M X.1.@.< Z k D 6XSXUXUXUXUXUXUX",
"UXUXUXUXvX3XX.p - U p.J.J.J.T N 8XiX0XfXUXsX:.p / f.J.J.i $.rX,X#.X.%.k ( g.J.J.J.J.v.k % < x X.1.>.I C , B G `.sXUXUXUXUXUXUXUX",
"UXUXUXlX2XS p K 3 P y.J.J.J.9.p ;.F 3 ).-XG 2 Q a.J.J.J.U m :.K : % p E y.D.J.J.J.J.j.i > K <.,.X.M b X.(.*X2XpXSXUXUXUXUXUXUXUX",
"UXUXkX,XA l O.,.3 E a.J.J.J.l.~ d * # : % i } k.J.J.J.J.e.I N x l P ` u.v.J.J.J.J.J.v.M M X.X.N , ; o.<XdXSXUXUXUXUXUXUXUXUXUXUX",
"UXxX=XB z #.3.2.k U u.J.J.J.J.p.9.Q T W 9.k.J.J.J.J.J.J.J.u.9.} 9.r.l.J.J.J.J.J.J.J.J.` i 1 * o o o J 2XUXUXUXUXUXUXUXUXUXUXUXUX",
"UX*XB m >.3.3.1.m M q.J.J.J.J.J.v.d.f.z.J.J.J.J.J.J.J.J.J.J.J.J.J.J.J.J.J.J.J.J.J.J.J.a.M & o o o o F <XUXUXUXUXUXUXUXUXUXUXUXUX",
",XC 1 P <.,.X.J a I t.J.J.J.J.J.J.J.J.J.J.J.J.J.J.J.J.J.J.S.t.} Y Y 9.J.J.J.J.J.J.J.J.J.] i o o o o m oXUXUXUXUXUXUXUXUXUXUXUXUX",
"X.= 1 2 N x - # < I e.v.J.J.J.J.J.J.J.J.J.J.J.J.J.G.k.t.9./ M i z x I w.J.J.J.J.J.J.J.J.a.M # $ % * B OXUXUXUXUXUXUXUXUXUXUXUXUX",
"o.c G 4 ; o o o a N P [ g.J.J.J.J.J.J.J.J.x.y.w.9.} / I M j M p C K G ) J.J.J.J.J.J.J.J.J.E = g F J >.7XUXUXUXUXUXUXUXUXUXUXUXUX",
"@.$ * = F # o o c :.X.M Q y.J.J.J.J.J.J.c.E > : > p i l I ` w.` Z K G R J.J.J.J.J.G.l.a.p./ 3 <.5X8XuXUXUXUXUXUXUXUXUXUXUXUXUXUX",
"&.f K x K 3 o o p (.,XJ i { J.J.J.J.J.J.J./ f b i } w.j.J.J.J.9.M p x { J.J.J.J.J.p._ U T x > 1 z K ,.=XyXUXUXUXUXUXUXUXUXUXUXUX",
">.x <.J D S o o = K {.D M w.J.J.J.J.J.J.J._ p k z i.J.J.J.J.J.w.M i _ a.J.J.J.J.J.} 2 o o o o o o o $ g >.>XhXUXUXUXUXUXUXUXUXUX",
"_.p ,.X.N X.o o # f >.2 U f.J.J.J.J.J.J.J.e.P ; p _ J.J.J.J.J.s.9.} d.J.J.J.J.J.p.Y o o o % % # o o o o * D ,.:XUXUXUXUXUXUXUXUX",
"-Xc X.@.C #.# o o , (.$.z I e.J.J.J.J.J.J.J.g.{ I _ J.J.J.J.J.J.J.J.J.J.J.J.J.J.9.p & > p Z c 3 p 1 $ o o # - F tXUXUXUXUXUXUXUX",
"5XH D <.D K p o o * (.wX(.D z 9.J.J.J.J.J.J.J.J.J.J.J.J.J.J.J.J.J.J.J.J.J.J.J.i.P < P X.K Z h N +.@.F F 3 o o # <XUXUXUXUXUXUXUX",
"yX:.f 2.X.g K o o # &.UXaX(.< E J.J.J.J.J.J.J.J.J.J.J.J.J.J.J.J.J.J.J.J.J.g./ p $ > C X.@.>.$.H l G ,.OXK $ o o 5XSXUXUXUXUXUXUX",
"kX#X: ,.,.3 X.% o o G dX2XJ a 0.J.J.J.J.J.J.J.J.J.J.J.J.J.J.J.J.J.J.J.J.g.I = # f >.H a f n H K D = 3 D S % o % eXUXUXUXUXUXUXUX",
"UXiXf K 2.p +.; o o f -XG : j M e.J.J.J.J.J.J.J.J.J.J.J.J.J.J.J.J.J.J.v./ = o = .XkXUXdX,X,.G F f $ S $ , o o c qXUXUXUXUXUXUXUX",
"UXvXo.c 3.k H 1 o o o @.J ; 1 < 2 l w.J.J.J.J.J.J.J.J.J.J.J.J.J.J.J.J.9.< + p :.rXSXUXUXUXUXUXuXK $ c $ * o o %.tXUXUXUXUXUXUXUX",
"UXUX>.3 X.a m p # o o G >., J X.X.< R l.J.J.J.J.J.J.J.J.J.J.J.J.J.q.T a $ # %.6XxXUXUXUXUXUXUXsXD x z % o o % `.hXUXUXUXUXUXUXUX",
"UXUXXX; 1 3 g G f p k @.D Z <.3.P = ; i E i.v.l.w.9.} 0.i.v.J.J.J.) 1 ; F *.2XkXUXUXUXUXUXUXUXoXp o.J = o o c >XUXUXUXUXUXUXUXUX",
"UXUX X2 +.&.p $.&XoX X@.z @.3.X.3 # 1 J p i 9.] z M z M U Q ` 9.f.U j ;.<XeXkXUXUXUXUXUXUXUXtXK A ,.k $ o # $.eXUXUXUXUXUXUXUXUX",
"UXUX`.c +.&.C K 0XUX{.l K 1.#.a $ o X.3XqXS l < o.`.).#.K G H M M p *.6XxXUXUXUXUXUXUXUXUXSX).c X.#.3 o o 1 ).kXUXUXUXUXUXUXUXUX",
"UXUXiXo.l b b :.eXtXJ : f H l % o o #.eXSX1XS z ,XUXUXUXiX,X`.>.+.-.2XkXUXUXUXUXUXUXUXUXUXrXG G <.K : o o m +XUXUXUXUXUXUXUXUXUX",
"UXUXUXhX<XoXOXeXxX4XB B C 3 > + o o o.6XUXUX4X2XaXUXUXUXUXUXUXdX8XeXkXUXUXUXUXUXUXUXUXUXUX_.N X.1.c $ o o J 4XUXUXUXUXUXUXUXUXUX",
"UXUXUXUXUXUXUXUXUX8XD A S , f o o o S -XUXUXUXUXUXUXUXUXUXUXUXUXUXUXUXUXUXUXUXUXUXUXUXUXlX$.A ,.O.p o o = *.dXUXUXUXUXUXUXUXUXUX",
"UXUXUXUXUXUXUXUXUXqXG p v 1 c o o o 3 <.UXUXUXUXUXUXUXUXUXUXUXUXUXUXUXUXUXUXUXUXUXUXUXUX7XJ J 2.P < o o g _.UXUXUXUXUXUXUXUXUXUX",
"UXUXUXUXUXUXUXUXUXwXK N X.N m # o o % J 7XUXUXUXUXUXUXUXUXUXUXUXUXUXUXUXUXUXUXUXUXUXUXUX`.S X.2.H % o o B ;XUXUXUXUXUXUXUXUXUXUX",
"UXUXUXUXUXUXUXUXUXeXo.G 3.K C - o o o g _.UXUXUXUXUXUXUXUXUXUXUXUXUXUXUXUXUXUXUXUXUXUXkX>.n >.,.n o o o b >XUXUXUXUXUXUXUXUXUXUX",
"UXUXUXUXUXUXUXUXUXeX@.Z 3.X.N 3 o o o 2 :.UXUXUXUXUXUXUXUXUXUXUXUXUXUXUXUXUXUXUXUXUXUXeX@.a X.J g > : : G 7XUXUXUXUXUXUXUXUXUXUX",
"UXUXUXUXUXUXUXUXUXpX>.c <.<.G 3 o o o - X.UXUXUXUXUXUXUXUXUXUXUXUXUXUXUXUXUXUXUXUXUXUX@Xv 1 p 3 B -.@.@.{.UXUXUXUXUXUXUXUXUXUXUX",
"UXUXUXUXUXUXUXUXUXSX`.c o.3.X.f $ o # 3 _.UXUXUXUXUXUXUXUXUXUXUXUXUXUXUXUXUXUXUXUXUXUX-XC F +.V N >XUXUXUXUXUXUXUXUXUXUXUXUXUXUX",
"UXUXUXUXUXUXUXUXUXUX;XA Z X.Z a b G X._.uXUXUXUXUXUXUXUXUXUXUXUXUXUXUXUXUXUXUXUXUXUXUXwX=.l D C G 7XUXUXUXUXUXUXUXUXUXUXUXUXUXUX",
"UXUXUXUXUXUXUXUXUXUX3XF > l x p K 2X6XfXUXUXUXUXUXUXUXUXUXUXUXUXUXUXUXUXUXUXUXUXUXUXUXUXyX).@.@.{.UXUXUXUXUXUXUXUXUXUXUXUXUXUXUX",
"UXUXUXUXUXUXUXUXUXUXeX$.= p p f _.UXUXUXUXUXUXUXUXUXUXUXUXUXUXUXUXUXUXUXUXUXUXUXUXUXUXUXUXUXUXUXUXUXUXUXUXUXUXUXUXUXUXUXUXUXUXUX",
"UXUXUXUXUXUXUXUXUXUXhX,X@.K +._.uXUXUXUXUXUXUXUXUXUXUXUXUXUXUXUXUXUXUXUXUXUXUXUXUXUXUXUXUXUXUXUXUXUXUXUXUXUXUXUXUXUXUXUXUXUXUXUX",
"UXUXUXUXUXUXUXUXUXUXUXxXwX2X6XfXUXUXUXUXUXUXUXUXUXUXUXUXUXUXUXUXUXUXUXUXUXUXUXUXUXUXUXUXUXUXUXUXUXUXUXUXUXUXUXUXUXUXUXUXUXUXUXUX"
};
