/* XPM */
static char *uhooi_dancing_11[] = {
/* columns rows colors chars-per-pixel */
"64 64 256 2 ",
"   c black",
".  c black",
"X  c black",
"o  c #010000",
"O  c #020101",
"+  c #040201",
"@  c #050302",
"#  c #070503",
"$  c #080604",
"%  c #0A0804",
"&  c #0B0905",
"*  c #0D0B06",
"=  c #0D0C07",
"-  c #0D0D08",
";  c #0E0E09",
":  c #0F0F0B",
">  c #11110C",
",  c #12130E",
"<  c #131510",
"1  c #151712",
"2  c #161813",
"3  c #171914",
"4  c #191B15",
"5  c #191C16",
"6  c #1B1E18",
"7  c #1D201B",
"8  c #1F201C",
"9  c #21201E",
"0  c #23211D",
"q  c #25221E",
"w  c #29221E",
"e  c #2D221B",
"r  c #322119",
"t  c #352118",
"y  c #382117",
"u  c #3B2117",
"i  c #402519",
"p  c #42271B",
"a  c #412A1E",
"s  c #382B21",
"d  c #362E24",
"f  c #363127",
"g  c #363429",
"h  c #37372B",
"j  c #363A2C",
"k  c #373D2D",
"l  c #37402E",
"z  c #374430",
"x  c #374731",
"c  c #384A32",
"v  c #384E33",
"b  c #395034",
"n  c #395134",
"m  c #385234",
"M  c #395135",
"N  c #3A4F36",
"B  c #3A4C37",
"V  c #3B4938",
"C  c #3B4739",
"Z  c #3C453A",
"A  c #3D433C",
"S  c #3F433D",
"D  c #424540",
"F  c #454641",
"G  c #474743",
"H  c #484744",
"J  c #494A44",
"K  c #4A4C45",
"L  c #4A4F45",
"P  c #4A5246",
"I  c #495646",
"U  c #4B5548",
"Y  c #4C5649",
"T  c #4E574B",
"R  c #50574C",
"E  c #51594D",
"W  c #555D52",
"Q  c #595F56",
"!  c #5A6359",
"~  c #5C655B",
"^  c #5E665D",
"/  c #60675E",
"(  c #616860",
")  c #626961",
"_  c #636A62",
"`  c #646B63",
"'  c #656B63",
"]  c #666C65",
"[  c #696F68",
"{  c #6C736A",
"}  c #6C756A",
"|  c #6C786A",
" . c #6C7B69",
".. c #6B7D68",
"X. c #6A8166",
"o. c #698564",
"O. c #688862",
"+. c #678B61",
"@. c #668E5F",
"#. c #65915E",
"$. c #62945A",
"%. c #629759",
"&. c #629859",
"*. c #63995A",
"=. c #639A5A",
"-. c #639B5A",
";. c #639C5A",
":. c #639D5A",
">. c #649E5B",
",. c #65A15C",
"<. c #66A55D",
"1. c #67A85D",
"2. c #68AA5E",
"3. c #6AAE60",
"4. c #6DB463",
"5. c #70B965",
"6. c #73BE67",
"7. c #74C168",
"8. c #75C36A",
"9. c #77C56B",
"0. c #79C96D",
"q. c #7BCC6E",
"w. c #7CCE70",
"e. c #7DD071",
"r. c #7ED272",
"t. c #7FD372",
"y. c #7FD372",
"u. c #7FD473",
"i. c #80D573",
"p. c #80D573",
"a. c #80D573",
"s. c #80D573",
"d. c #80D573",
"f. c #80D573",
"g. c #80D573",
"h. c #80D573",
"j. c #81D574",
"k. c #81D574",
"l. c #81D574",
"z. c #81D574",
"x. c #81D574",
"c. c #81D574",
"v. c #81CF75",
"b. c #81C776",
"n. c #81BF78",
"m. c #82B47A",
"M. c #83A97D",
"N. c #84A180",
"B. c #849A81",
"V. c #859583",
"C. c #859183",
"Z. c #858F84",
"A. c #868F84",
"S. c #879085",
"D. c #878F86",
"F. c #888F87",
"G. c #899089",
"H. c #8B908A",
"J. c #8D918C",
"K. c #8F928E",
"L. c #909490",
"P. c #929692",
"I. c #939693",
"U. c #949794",
"Y. c #959895",
"T. c #969896",
"R. c #979997",
"E. c #999A99",
"W. c #9B9C9B",
"Q. c #9D9D9D",
"!. c #9F9F9F",
"~. c #A0A0A0",
"^. c #A2A2A2",
"/. c #A4A4A4",
"(. c #A5A5A5",
"). c #A7A7A7",
"_. c #A9A9A9",
"`. c #AAAAAA",
"'. c gray67",
"]. c gray68",
"[. c #AFAFAF",
"{. c #B1B1B1",
"}. c gray70",
"|. c #B6B6B6",
" X c gray72",
".X c #BBBBBB",
"XX c gray74",
"oX c gray75",
"OX c gray76",
"+X c #C5C5C5",
"@X c #C5C5C5",
"#X c #C6C6C6",
"$X c gray78",
"%X c gray78",
"&X c gray78",
"*X c #C8C8C8",
"=X c #C8C8C8",
"-X c #C8C8C8",
";X c gray79",
":X c #CACACA",
">X c #CBCBCB",
",X c #CDCDCD",
"<X c gray81",
"1X c gray82",
"2X c LightGray",
"3X c gray83",
"4X c #D5D5D5",
"5X c gray84",
"6X c #D7D7D7",
"7X c #D8D8D8",
"8X c gray85",
"9X c gainsboro",
"0X c gray87",
"qX c #E1E1E1",
"wX c gray89",
"eX c #E4E4E4",
"rX c gray90",
"tX c #E6E6E6",
"yX c gray91",
"uX c #E9E9E9",
"iX c gray92",
"pX c #ECECEC",
"aX c gray93",
"sX c #EEEEEE",
"dX c gray94",
"fX c gray95",
"gX c gray96",
"hX c #F8F8F8",
"jX c gray98",
"kX c gray99",
"lX c gray99",
"zX c #FDFDFD",
"xX c #FDFDFD",
"cX c #FDFDFD",
"vX c #FDFDFD",
"bX c None",
"nX c #FEFEFE",
"mX c #FEFEFE",
"MX c #FEFEFE",
"NX c #FEFEFE",
"BX c #FEFEFE",
"VX c #FEFEFE",
"CX c #FEFEFE",
"ZX c #FEFEFE",
"AX c #FEFEFE",
"SX c #FEFEFE",
"DX c #FEFEFE",
"FX c #FEFEFE",
"GX c #FEFEFE",
"HX c #FEFEFE",
"JX c #FEFEFE",
"KX c #FEFEFE",
"LX c #FEFEFE",
"PX c #FEFEFE",
"IX c #FEFEFE",
"UX c #FEFEFE",
/* pixels */
"bXbXbXbXbXbXbXbXbXbXbXbXbXbXbXbXbXbXbXbXbXbXbXbXbXbXbXbXbXbXbXbXbXbXbXbXbXbXbXbXbXbXbXbXbXbXbXbXbXbXbXbXbXbXbXbXbXbXbXbXbXbXbXbX",
"bXbXbXbXbXbXbXbXbXbXbXbXbXbXbXbXbXbXbXbXbXbXbXbXbXbXbXbXbXbXbXbXbXbXbXbXbXbXbXbXbXbXbXbXbXbXbXbXbXbXbXbXbXbXbXbXbXbXbXbXbXbXbXbX",
"bXbXbXbXbXbXbXbXbXbXbXbXbXbXbXbXbXbXbXbXbXbXbXbXbXbXbXbXbXbXbXbXbXbXbXbXbXbXbXbXbXbXbXbXbXbXbXbXbXbXbXbXbXbXbXbXbXbXbXbXbXbXbXbX",
"bXbXbXbXbXbXbXbXbXbXbXbXbXbXbXbXbXbXbXbXbXbXbXbXbXbXbXbXbXbXbXbXbXbXbXbXbXbXbXbXbXbXbXbXbXbXbXbXbXbXbXbXbXbXbXbXbXbXbXbXbXbXbXbX",
"bXbXbXbXbXbXbXbXbXgXyXbXbXbXbXbXbXbXbXbXbXbXbXbXbXbXbXbXbXbXbXbXbXbXbXbXbXbXbXbXbXbXbXbXbXbXbXbXbXbXbXbXbXbXbXbXbXbXbXbXbXbXbXbX",
"bXbXbXbXbXbXbXbXcX>XI.dXbXbXbXbXbXbXbXbXbXbXbXbXbXbXbXbXbXbXbXbXbXbXbXbXbXbXbXbXbXbXbXbXbXbXbXbXbXbXbXbXbXbXbXbXbXbXbXbXbXbXbXbX",
"bXbXbXbXbXbXbXbXjXE.A %XbXbXbXbXbXbXbXbXbXbXbXbXbXbXbXbXbXbXbXbXbXbXbXbXbXbXbXbXbXbXbXbXbXbXdX0XkXbXbXbXbXbXbXbXbXbXbXbXbXbXbXbX",
"bXbXbXbXbXbXbXbXgXH.q ^.bXbXbXbXbXbXbXbXbXbXbXbXbXbXbXbXbXbXbXbXbXbXbXbXbXbXbXbXbXbXbXbXbXhX}.{ ;XbXbXbXbXbXbXbXbXbXbXbXbXbXbXbX",
"bXbXbXbXbXbXgXyXiX{ = Z.jXbXbXbXbXbXbXbXbXbXbXbXbXbXbXbXbXbXbXbXbXbXbXbXbXbXbXbXbXbXbXbXbXyX} < { eXbXbXbXbXbXbXbXbXbXbXbXbXbXbX",
"bXbXbXbXbXcX>XI.#XQ $ ~ 9XbXbXbXbXbXbXbXbXbXbXbXbXbXbXbXbXbXbXbXbXbXbXbXbXbXbXbXbXbXbXbXbX<XQ & f ).bXbXbXbXbXbXbXbXbXbXbXbXbXbX",
"bXbXbXbXbXjXE.A J.S ; d ).lXbXbXbXbXbXbXbXbXbXbXbXbXbXbXbXbXbXbXbXbXbXbXbXbXbXbXbXbXbXdX0X].S > > } sXbXbXbXbXbXbXbXbXbXbXbXbXbX",
"bXbXbXbXbXgXH.q [ d # $ { wXbXbXbXbXbXbXbXbXbXbXbXbXbXbXbXbXbXbXbXbXbXbXbXbXbXbXbXbXhX}.{ { a i t J #XbXbXbXbXbXbXbXbXbXbXbXbXbX",
"bXbXbXbXbXiX{ = R w = & 4 H.yXcXbXbXbXbXbXbXbXbXbXbXbXbXbXbXbXbXbXbXbXbXbXbXbXbXbXbXyX} > w r p a y W.hXbXbXbXbXbXbXbXbXbXbXbXbX",
"bXbXbXbXbX1XW X h w > * @ :  .qXbXbXbXbXbXbXbXbXbXbXbXbXbXbXbXbXbXbXbXbXbXbXbXbXbXbX<XW X * > r p y { qXbXbXbXlXlXbXbXbXbXbXbXbX",
"bXbXbXbXbX}.h X 4 0 t u > & & R =XjXbXbX1XeXkXbXbXbXbXbXbXbXbXbXbXbXbXbXbXbXbXbXbXbX{.d X , p : p i R 3XbXbXcX=X` A { 0XbXbXbXbX",
"bXbXbXbXbX).d X O 9 : , u p p > $ S L.P.h K 6XcXbXbXdXrXjXbXbXgXwXfXbXbXbXbXbXbXbXbXF.= % u a > p i R 8XbXbXiXA d S 4 .XlXbXbXbX",
"bXbXbXbXbX~.q X X - < r u u t = # r 1 < m 8 { aXbXqXZ.Z.rXwX%X^.^ [.gXbXbXbXbXbXbXfXh % u > y > a p W qXbXbX6Xw 4 & O |.jXbXbXbX",
"bXbXbXbXbX^.q X X X @ & u i i p k x p > 3.&.q Q.'.^ j 7 Z.{ D 0 , ] 0XtX{.Z.Z.G.{.W $ u a r : i p y Q uXlXlXOX8 T ! : XXjXbXbXbX",
"bXbXbXbXbXoXw X X X X + p z k a a l * M e.e.I f Z m $.M v m T 5.M g L < ; z x < 0 r * u z a i u r * Q dX=X_ w 4 V.V.: ;XlXbXbXbX",
"bXbXbXbXbXdXJ $ X X $ & : p = : - # , 9.x.x.7.I $.6.x.e.9.e.x.x.$.l M :.e.e.,.@ a k i - x c u : p > ` rXA O O q B.O.$ wXbXbXbXbX",
"bXbXbXbXbXbXQ.< @ l m m c 3 , 7.8.2 m k.x.x.k.0.u.x.x.x.x.x.x.x.x.x.x.x.x.g.:.# x x p % x a @ p l = R.6Xw X X S N._ > cXbXbXbXbX",
"bXbXbXbXbXbXpXZ : 4.x.x.u.7.<.x.0.M <.x.x.x.x.x.x.x.x.x.x.x.x.x.x.x.x.x.x.g.5., t a a p k > t a i d yXOX6 X $ ^ N.T A bXbXbXbXbX",
"bXbXbXbXbXbXpX ., 1.x.x.x.x.x.x.x.e.r.x.x.x.x.x.x.x.x.x.x.x.x.x.x.x.x.x.x.x.r.<.k = , u p u a u h ~.bX'.> X * ^ B.D ] bXbXbXbXbX",
"bXbXbXbXbX}.Z._ < I x.x.x.x.x.x.x.x.x.x.x.x.x.x.x.x.x.x.x.x.x.x.x.x.x.x.x.x.x.e.3.M 0 x e u u 4 {.bXbXZ.$ X : / C.k Z.bXbXbXbXbX",
"bXbXbXbXtXw X X # l 0.x.x.x.x.x.7.I Y 7.x.x.x.x.x.x.x.x.x.x.x.x.x.x.u.e.q.3.7.x.y.7.3.2.I q % D hXbXbXH X X 1 ' o.f '.bXbXbXbXbX",
"bXbXbXkX%XX X X X 5 -.x.x.x.x.w.$.1 7 8 $.q.x.x.x.x.x.x.x.x.x.k.w.7.3.I 1 - m u.x.x.x.g.9.$.8 D oXbXfX9 X X 6 X...j ,XbXbXbXbXbX",
"bXbXbXlX=X: X X X - m w.x.x.x.3.M } 1X .q k M $.4.r.x.x.x.x.q.4.$.c 6 d Z.Z.q 4.x.x.x.e.1.m q F ).bXyXq X X 9 X.^ S 9XbXbXbXbXbX",
"bXbXbXbX9XD X O : < j 2.x.x.x.<.I Q.lXpXXXZ.( V z I 4.x.x.9.$.v j ] OXgXbX].c <.x.x.x.6.M h J. XiXbX0Xq X X 9 ) U R dXbXbXbXbXbX",
"bXbXbXbXwX( $ 9 L l j -.x.x.x.1.b J.hXyXiXiX5XL.d q 1.x.x.$.l _ +XkXbXbXdXZ.x 4.x.x.x.2.c Z.kXbXcXdX]., @ @ $ $ 2 Z.bXbXbXbXbXbX",
"bXbXbXuXR.j j ] C.Z m 5.x.x.x.q.M H ^ d Z.2X/.W x T 9.x.x.I R >XgXqX0XsX^.k I r.x.x.x.4.b ^ gXeX XH.D 6 q 8 H Q g R.bXbXbXbXbXbX",
"bXbX0XZ.A L o.N.N.S m 7.x.x.x.x.3.z * O 7 h l M =.0.x.x.x.$.z K./.A = f f I 8.x.x.x.x.w.I h Z.{ F h P X.o.k H [ J ~.bXbXbXbXbXbX",
"bX7X[ q Y C.N.B.B.Z m 4.x.x.x.x.x.8.$.I I T ;.6.r.x.x.x.x.8.M j g 1 - 3 Y 9.g.x.x.x.x.r.M , q S ! Z.V.O. .h 3 q S  XbXbXbXbXbXbX",
"fX[ 2 > Z .._ E P d M 6.x.x.x.x.x.k.e.0.9.q.u.x.x.x.x.x.x.x.8.%.Y T =.8.k.k.x.x.x.x.x.y.m 9 ! Z.Z.' U q = @ d { |.fXbXbXbXbXbXbX",
"qXh h h 3 q 7 $ X < $.q.x.x.x.x.x.x.x.x.x.x.x.x.x.x.x.x.x.x.x.x.x.x.x.x.x.x.x.x.x.x.x.k.I j Y T k 3 @ X X 7 R.bXbXbXbXbXbXbXbXbX",
"XX3 6 8 $ X X X X @ l $.0.g.x.x.x.x.x.x.x.x.x.x.x.x.x.x.x.x.k.0.8.6.0.g.x.x.x.x.x.x.x.x.2.q , $ X X X X X 9 ~.bXbXbXbXbXbXbXbXbX",
"Q @ l f $ X X X X X X : T 9.g.x.x.x.x.x.x.x.x.x.x.x.u.0.5.2.:.Y m 8 c 5.x.x.x.x.x.x.x.x.e.m * X X X @ $ # h  XbXbXbXbXbXbXbXbXbX",
": X  .) ; X X X X X X X - $.w.x.x.x.x.x.x.r.M m m M I M m b 0 7 = Q 9 I 0.x.x.x.x.x.x.x.x.&., @ < 9 f Q { |.fXbXbXbXbXbXbXbXbXbX",
"X X ..V.: q & X X X X X ; M q.x.x.x.x.x.x.u.3 k * x n m m I &.8.l _ { l 8.x.x.x.x.x.x.x.x.0.1 w  . XiXcXbXbXbXbXbXbXbXbXbXbXbXbX",
"X X ! N.5 [ R > O X X X m q.x.x.x.x.x.x.x.x., J > 1.5.q.k.x.x.x.I A Q j 0.x.x.x.x.x.x.x.x.x.6 Z.hXbXbXbXbXbXbXbXbXbXbXbXbXbXbXbX",
"X O D N.j ` ,X{ 8 @ X X 6 2.r.x.x.x.x.x.x.x.m 4 * <.x.x.x.x.x.x.I & < $.g.x.x.x.x.x.7.&.3.3.7 Z.kXbXbXbXbXbXbXbXbXbXbXbXbXbXbXbX",
"X O d N.W f hXjXZ.: X X X - -.u.x.x.x.x.x.g.4.I 6 I x.x.x.x.x.u.%.l 4.x.x.x.x.x.x.y.M 6 c M d E.bXbXbXbXbXbXbXbXbXbXbXbXbXbXbXbX",
"X O 3 V...7 9XdXE., X X X X : %.x.x.x.x.x.x.g.9.=.<.x.x.x.x.x.x.x.x.x.x.x.x.x.x.y.<.: X ^ L.R.8XbXbXbXbXbXbXbXbXbXbXbXbXbXbXbXbX",
"O X 5 | O.w  X>X> X X X X O > I x.x.x.x.x.x.x.x.x.x.x.x.x.x.x.x.x.x.x.x.x.x.x.x.9.v X X R ].qXbXbXbXbXbXbXbXbXbXbXbXbXbXbXbXbXbX",
"X X q E o.k /.uXK & X X X - m w.x.x.x.x.x.x.x.x.x.x.x.x.x.x.x.x.x.x.x.x.x.x.x.0.I 5 Z Z k L [ ].aXbXbXbXbXbXbXbXbXbXbXbXbXbXbXbX",
"X X 6 S ..A T.bXtXQ ; X O , q v 6.x.x.x.x.x.x.x.x.x.x.x.x.x.x.x.x.x.x.x.x.9.Y q , 2 I | ..! A S J.8XlXbXbXbXbXbXbXbXbXbXbXbXbXbX",
"X X : 3 g q D.bXbXfX{ O X & 2 : : m 8.x.x.x.x.x.x.x.x.x.x.x.x.x.x.x.x.g.4.c - % A F f g D ~  .Y h [ XXiXbXbXbXbXbXbXbXbXbXbXbXbX",
"> X = 8 F f ( wXcXiX~.& & l Z.B.E q :.x.x.x.x.x.x.x.x.x.x.x.x.x.x.x.g.4.m @ X - ^ | Z.Z.' D l D j : f R.jXbXbXbXbXbXbXbXbXbXbXbX",
"A X > S A.Q H }.yXZ.= $ j O.N...f $ 5 M 3.x.x.x.x.x.x.x.x.x.x.x.y.q.5.M @ X X @ - 3 h ` L.Q.| T 6 3 q K rXbXbXbXbXbXbXbXbXbXbXbX",
"Q X , w J S G ].OX1 @ d  .N. .d O X @ - k &.9.%.I I %.5.e.x.x.x.6.I 7 - X X X X X X X @ w J.3X].f 8 d Q wXbXbXbXbXbXbXbXbXbXbXbX",
"{ X < J [ ^ Z.3X7XS & l .. .f X X X X X $ z m 6 : : 6 m T <.6.w.,.q X % h ] ( q @ X X X O 1 ) { g 9 , | bXbXbXbXbXbXbXbXbXbXbXbX",
"[ X & Q OX1XrXgX`.4 4 6 7 1 O X X X X X X - - O X X X X * 5 m $.I < q {.0XeX9X.XL.^ w @ X X @ < L ) Z P.bXbXbXbXbXbXbXbXbXbXbXbX",
"Q X X g }.bXlX,XR X K ^ 9 X X X X X X X X X X X X X X X X X X * % 9 }.kXbXbXbXbXgX6X).| K , O d | Y R OXbXbXbXbXbXbXbXbXbXbXbXbX",
"| = X f ].bX0X{ % X q d = w W.J.A $ X X X X X X X X X X X X X O w ^.kXbXbXbXbXbXbXbXbXjX].8 3 ~ o.j Z.aXbXbXbXbXbXbXbXbXbXbXbXbX",
"2XF.W Z.3XgXK.7 X X l E 7 } yXfX1X) % X 8 J G q $ X X X X X @ ,  .fXbXbXbXbXbXbXbXbXbXhXZ.: L C.! Z  XbXbXbXbXbXbXbXbXbXbXbXbXbX",
"cXpX1XrXkXqXQ X X X  .N.g Z.iXbXlXOXF ; { :X+XW.{ D q * O X w J.yXbXbXbXbXbXbXbXbXbXbX>Xw 9 ..V.h | wXbXbXbXbXbXbXbXbXbXbXbXbXbX",
"bXbXbXbXbXwXR X X X X.N.S / wXbXbXgX|.K.<XbXbXbXgX,XE.Q d q Z.yXbXbXbXbXbXbXbXbXbXbXrX{ $ Y V.` q .XjXbXbXbXbXbXbXbXbXbXbXbXbXbX",
"bXbXbXbXbXqXG X X X ..N.~ q 9XbXbXbXgXsXhXbXbXbXbXbXbXfX;X>XfXbXbXbXbXbXbXbXbXbXbXlXW.6 > ..N.S W qXbXbXbXbXbXbXbXbXbXbXbXbXbXbX",
"bXbXbXbXbX0XA X X X ! B.V.< ^.hXbXbXbXbXbXbXbXbXbXbXbXbXbXbXbXbXbXbXbXbXbXbXbXbXbX1XK O l V.V.9 Y.fXbXbXbXbXbXbXbXbXbXbXbXbXbXbX",
"bXbXbXbXbX9Xg X X X A C.C.h Q hXbXbXbXbXbXbXbXbXbXbXbXbXbXbXbXbXbXbXbXbXbXbXbXbXbXD.3 X ( N.! 8 6XcXbXbXbXbXbXbXbXbXbXbXbXbXbXbX",
"bXbXbXbXbX5Xq X X X = D g < H bXbXbXbXbXbXbXbXbXbXbXbXbXbXbXbXbXbXbXbXbXbXbXbXbXaXF O X j E q ' jXbXbXbXbXbXbXbXbXbXbXbXbXbXbXbX",
"bXbXbXbXbX0X9 X X X O 8 h 9 A bXbXbXbXbXbXbXbXbXbXbXbXbXbXbXbXbXbXbXbXbXbXbXbXbX_.7 O d F g & ).bXbXbXbXbXbXbXbXbXbXbXbXbXbXbXbX",
"bXbXbXbXbXkXq O X X @ f f d XXbXbXbXbXbXbXbXbXbXbXbXbXbXbXbXbXbXbXbXbXbXbXbXbXlXT $ O w Q R >  XbXbXbXbXbXbXbXbXbXbXbXbXbXbXbXbX",
"bXbXbXbXbXbXF O X X X h !.rXbXbXbXbXbXbXbXbXbXbXbXbXbXbXbXbXbXbXbXbXbXbXbXbXbXwX3 O X $ q A F 8XbXbXbXbXbXbXbXbXbXbXbXbXbXbXbXbX",
"bXbXbXbXbXcX) X X X X H bXbXbXbXbXbXbXbXbXbXbXbXbXbXbXbXbXbXbXbXbXbXbXbXbXbXbXZ.@ X X X F U. XbXbXbXbXbXbXbXbXbXbXbXbXbXbXbXbXbX"
};
