/* XPM */
static char *uhooi_dancing_6[] = {
/* columns rows colors chars-per-pixel */
"64 64 256 2 ",
"   c #000100",
".  c black",
"X  c black",
"o  c black",
"O  c black",
"+  c black",
"@  c #010101",
"#  c #020201",
"$  c #030302",
"%  c #050504",
"&  c #080805",
"*  c #0A0A07",
"=  c #0A0B08",
"-  c #0C0C08",
";  c #0D0D08",
":  c #0E0E09",
">  c #0E100A",
",  c #0F110C",
"<  c #10130D",
"1  c #12150F",
"2  c #161710",
"3  c #191912",
"4  c #1E1C14",
"5  c #182016",
"6  c #1A2218",
"7  c #1C241A",
"8  c #1E241C",
"9  c #20251F",
"0  c #212620",
"q  c #232723",
"w  c #252824",
"e  c #252924",
"r  c #252B24",
"t  c #252D23",
"y  c #253123",
"u  c #263423",
"i  c #263823",
"p  c #273C23",
"a  c #283E24",
"s  c #283F24",
"d  c #293F25",
"f  c #2A4025",
"g  c #2C4026",
"h  c #2D3F26",
"j  c #2E3F27",
"k  c #323C28",
"l  c #353928",
"z  c #383728",
"x  c #3D3627",
"c  c #433526",
"v  c #483424",
"b  c #4D3323",
"n  c #563220",
"m  c #5B321F",
"M  c #5E3220",
"N  c #603320",
"B  c #613523",
"V  c #5F3625",
"C  c #5E3827",
"Z  c #5B3A2B",
"A  c #5A3D2F",
"S  c #564238",
"D  c #514943",
"F  c #4E4C47",
"G  c #4E4E4A",
"H  c #4E504C",
"J  c #4F514E",
"K  c #505250",
"L  c #515351",
"P  c #525452",
"I  c #535653",
"U  c #505A4F",
"Y  c #505F4D",
"T  c #50654D",
"R  c #526B4F",
"E  c #52724E",
"W  c #52784C",
"Q  c #537F4D",
"!  c #55854E",
"~  c #56894F",
"^  c #588D50",
"/  c #588C51",
"(  c #5A8D52",
")  c #5B8A54",
"_  c #5C8855",
"`  c #5F8858",
"'  c #60835B",
"]  c #61805C",
"[  c #627D5D",
"{  c #62795F",
"}  c #637760",
"|  c #637760",
" . c #647661",
".. c #657662",
"X. c #657563",
"o. c #677466",
"O. c #6A7368",
"+. c #6C736B",
"@. c #6F736D",
"#. c #72736F",
"$. c #747470",
"%. c #767672",
"&. c #777973",
"*. c #787C74",
"=. c #798176",
"-. c #778875",
";. c #788F75",
":. c #779573",
">. c #769C70",
",. c #74A36D",
"<. c #72AB69",
"1. c #70B067",
"2. c #70B466",
"3. c #71B766",
"4. c #72B967",
"5. c #73BC68",
"6. c #75C069",
"7. c #76C46A",
"8. c #78C76C",
"9. c #79C86C",
"0. c #7ACA6D",
"q. c #7BCC6E",
"w. c #7CCE6F",
"e. c #7DCF70",
"r. c #7ED171",
"t. c #7FD372",
"y. c #7FD372",
"u. c #7FD473",
"i. c #80D573",
"p. c #80D573",
"a. c #80D573",
"s. c #80D573",
"d. c #80D573",
"f. c #80D573",
"g. c #80D573",
"h. c #80D573",
"j. c #80D573",
"k. c #80D573",
"l. c #80D573",
"z. c #80D573",
"x. c #80D574",
"c. c #81D574",
"v. c #81D574",
"b. c #81D574",
"n. c #81D574",
"m. c #81D574",
"M. c #81D574",
"N. c #81D574",
"B. c #81D574",
"V. c #81D574",
"C. c #82D376",
"Z. c #85CF79",
"A. c #87CC7C",
"S. c #89C67F",
"D. c #8BC282",
"F. c #8CBE85",
"G. c #8DBB87",
"H. c #8FB589",
"J. c #90B18C",
"K. c #92AD8E",
"L. c #94AA91",
"P. c #96A494",
"I. c #99A698",
"U. c #9DA59C",
"Y. c #A1A6A0",
"T. c #A2A5A2",
"R. c #A4A4A4",
"E. c #A4A4A4",
"W. c #A5A5A5",
"Q. c #A7A7A7",
"!. c #A9A9A9",
"~. c gray67",
"^. c gray68",
"/. c #AFAFAF",
"(. c #B1B1B1",
"). c #B2B2B2",
"_. c gray70",
"`. c gray71",
"'. c gray72",
"]. c gray73",
"[. c #BCBCBC",
"{. c gray75",
"}. c #C0C0C0",
"|. c gray76",
" X c gray77",
".X c #C5C5C5",
"XX c #C6C6C6",
"oX c gray78",
"OX c #C8C8C8",
"+X c gray79",
"@X c #CACACA",
"#X c #CBCBCB",
"$X c gray80",
"%X c #CECECE",
"&X c gray81",
"*X c #D0D0D0",
"=X c #D0D0D0",
"-X c #D0D0D0",
";X c #D0D0D0",
":X c gray82",
">X c #D2D2D2",
",X c #D2D2D2",
"<X c LightGray",
"1X c gray83",
"2X c #D5D5D5",
"3X c #D5D5D5",
"4X c gray84",
"5X c #D7D7D7",
"6X c #D8D8D8",
"7X c gray85",
"8X c #DADADA",
"9X c #DDDDDD",
"0X c #E1E1E1",
"qX c #E4E4E4",
"wX c #E7E7E7",
"eX c #E9E9E9",
"rX c #ECECEC",
"tX c gray93",
"yX c #EEEEEE",
"uX c #EFEFEF",
"iX c #EFEFEF",
"pX c gray94",
"aX c gray94",
"sX c gray94",
"dX c gray94",
"fX c #F1F1F1",
"gX c #F1F1F1",
"hX c #F1F1F1",
"jX c gray95",
"kX c gray95",
"lX c #F4F4F4",
"zX c gray96",
"xX c #F6F6F6",
"cX c gray97",
"vX c #F8F8F8",
"bX c #F9F9F9",
"nX c #F9F9F9",
"mX c #F9F9F9",
"MX c gray98",
"NX c #FBFBFB",
"BX c #FBFBFB",
"VX c gray99",
"CX c #FDFDFD",
"ZX c #FDFDFD",
"AX c None",
"SX c #FEFEFE",
"DX c #FEFEFE",
"FX c #FEFEFE",
"GX c #FEFEFE",
"HX c #FEFEFE",
"JX c #FEFEFE",
"KX c #FEFEFE",
"LX c #FEFEFE",
"PX c #FEFEFE",
"IX c #FEFEFE",
"UX c #FEFEFE",
/* pixels */
"AXAXAXAXAXcXlXAXAXAXAXAXAXAXAXAXAXAXAXAXAXAXAXAXAXAXAXAXAXAXAXAXAXAXAXAXAXAXAXAXAXgX=.4 -.kXAXAXAXAXAXAXAXAXAXAXAXAXAXAXAXAXAXAX",
"AXAXAXAXAX$X!.kXAXAXAXAXAXAXAXAXAXAXAXAXAXAXAXAXAXAXAXAXAXAXAXAXAXAXAXAXAXAXAXAXAXwX&.o r R.AXAXAXAXAXAXAXAXAXAXAXAXAXAXAXAXAXAX",
"AXAXAXAXMXU.x XXAXAXAXAXAXAXAXAXAXAXAXAXAXAXAXAXAXAXAXAXAXAXAXAXAXAXAXAXAXAXAXAXAX6XI o % P tXAXAXAXAXAXAXAXAXAXAXAXAXAXAXAXAXAX",
"AXAXAXAXMXQ.9 P.AXAXAXAXAXAXAXAXAXAXAXAXAXAXAXAXAXAXAXAXAXAXAXAXAXAXAXAXAXAXAXAXAX1Xx o o q Q.AXAXAXAXAXAXAXAXAXAXAXAXAXAXAXAXAX",
"AXAXAXAXxXR.& L lXAXAXAXAXAXAXAXAXAXAXAXAXAXAXAXAXAXAXAXAXAXAXAXAXAXAXAXAXAXAXAXAX-X1 o o & G gXAXAXAXAXAXAXAXAXAXAXAXAXAXAXAXAX",
"AXAXAXAXgXK.o q ].AXAXAXAXAXAXAXAXAXAXAXAXAXAXAXAXAXAXAXAXAXAXAXAXAXAXAXAXAXAXAXBX`.o o o o 3 `.AXAXAXBX<XP.=._.AXAXAXAXAXAXAXAX",
"AXAXAXAXrXI o * I lXAXAXAXAXAXAXAXAXAXAXAXAXAXAXAXAXAXAXAXAXAXAXAXAXAXAXAXAXAXAXlX$.@ % % o = &.AXAXAXwXI 4 2 z zXAXAXAXAXAXAXAX",
"AXAXAXAXrXx o o 1 R.zXAXAXAXAXAXAXAXAXAXAXAXAXAXAXAXAXAXAXAXAXAXAXAXAXAXAXAXAXVX[.% $ : : o % O.AXAXZX,X$ o o * qXAXAXAXAXAXAXAX",
"AXAXAXAXlXD o o @ 9 P.0XAXAXAXAXAXAXAXAXAXAXAXAXAXAXAXAXAXAXAXAXAXAXAXAXAXAXAXgXl o % 2 , % o } AXAXAXXX@ o o o 9XAXAXAXAXAXAXAX",
"AXAXAXAXxXG o o o o , X._.kXAXAXAXXXtXAXAXAXAXVXvXAXAXAXgXoXeXAXAXAXAXAXAXAXBXO.% o * N B 4 o I cXAXAX`.* o o o ,XZXAXAXAXAXAXAX",
"AXAXAXAXgXI % % o o o # l X.-.`.T.l F eXAXAXAX%X).xXtX$XP.D R.vXnX,X~.Y.U.`.I , @ o % 4 b N % x iXAXAXY.: o o o ,XZXAXAXAXAXAXAX",
"AXAXAXAXrXX.; : o o o o o # 3 l q $ & I tXAX|.w q ).-.l % o P R.=.G l w 0 w - @ o o & 4 & N 2 e eXAXAX&.& 0 q # $XAXAXAXAXAXAXAX",
"AXAXAXAXsXo.@ & # o o o o o o o o o o * %.*.1 o o o o o o o 3 w * @ o o o o o o o $ N V & B 4 l eXAXZXK # w 3 @ [.AXAXAXAXAXAXAX",
"AXAXAXAXcXO.# , % o o o o o o o o o o o * % o o o o o o o o o o o o o o o o o o o : 3 N % C 4 D nXAXAXF $ S S @ `.AXAXAXAXAXAXAX",
"AXAXAXAXAX$.& < * % o o o o o o o o o o o o o o o o o o o o o o o o o o o o o o - M & * v B 4 J cXAXAXG ; @.-.& ~.ZXAXAXAXAXAXAX",
"AXAXAXAXAXP.: 4 4 < < 2 & o o o o o o o o o o o o o o o o $ o o o o o o o o o o n B 4 2 M 2 * I iXAXAXG 5 :.;.> (.ZXAXAXAXAXAXAX",
"AXAXAXAXZX#.$ * 2 4 b v - # : & @ k 5 $ o o o % $ o $ < i 5 % o o % 5 7 % $ < : 2 V C N ; 4 < I eXAXAXx t ;.@.2 [.AXAXAXAXAXAXAX",
"AXAXAXAXyXI o & 2 4 4 4 4 b N b , ` ` 5 # o # j 7 5 u W 2.E 1 5 g W ( ^ 1 m B m : B C , 2 B 2 &.eXAXAXl D ;.} 9 {.AXAXAXAXAXAXAX",
"AXAXAXAXyXO.% o % v N N N B V 4 k 5.r.^ 1 < Q 0.w.6.w.s.v.<.W ~ 2.e.v.1.6 B C B > B M * m N 2 /.nXAXAXl F ;.T r .XAXAXAXAXAXAXAX",
"AXAXAXAXAXU.9 o @ 4 B N 4 4 4 2 ^ r.v.e.<.5.u.v.v.v.v.v.v.v.v.v.v.v.v.7.g 3 M B B B < v N 3 I 8XAXgXOXw D ;.U l %XAXAXAXAXAXAXAX",
"AXAXAXAXAX{.x % = < 4 : j W i i <.v.v.v.t.N.v.v.v.v.v.v.v.v.v.v.v.v.v.u.1.T 4 & & 4 N B 4 I 4XlX,XP.G * z ;.F z 4XAXAXAXAXAXAXAX",
"AXAXAXAXZX*.7 s k T z j ` e.W W 5.v.v.v.v.v.v.v.v.v.v.v.v.v.v.v.v.v.v.v.u.6.^ k k p > ; z /.8XT.L , o o S ;.F z 0XAXAXAXAXAXAXAX",
"AXAXAXAXyXI T 8.v.v.e.5.0.v.4.5.r.v.v.v.v.v.v.v.v.v.v.v.v.v.v.v.v.v.9.5.w.v.e.8.q.0.^ i q o.G * o o o o z ;.F z wXAXAXAXAXAXAXAX",
"AXAXAXAXeXP Y 6.v.v.v.v.v.v.v.v.v.v.v.v.v.v.v.v.v.v.v.v.v.v.v.s.7.^ k g ^ s.v.v.v.v.t.` i # o o o o o # k @.D I sXAXAXAXAXAXAXAX",
"AXAXAXvX'.8 7 ( v.v.v.v.v.v.5.^ ` 0.v.v.v.v.v.v.v.v.v.v.v.u.5.^ Y k } F k 5.v.v.v.0.W > o o o o @ , r q 5 l e *.VXAXAXAXAXAXAXAX",
"AXAXvX).w o = T w.v.v.v.v.r.~ i i j ( w.v.v.v.v.v.v.v.v.0.` R F X.U.,XP.k <.v.v.v.1.g o o o # , w D z 8 9 z w -.AXAXAXAXAXAXAXAX",
"AXzXT.: o o o i ` v.v.v.v.4.T I Q.O.y 7 f T ` 8.e.v.v.0.^ k I I.9XMXcXI.f 1.v.v.v.1.f o @ ; w F D l k y x #.D =.AXAXAXAXAXAXAXAX",
"cXU.= o o o o = z 0.v.v.v.1.U -.vX0X}.P.&.S * 5 ^ v.v.<.j o.#XBXMXBX1XI k w.v.v.v.9.W # % x J e D O.;.U 8 F x -.AXAXAXAXAXAXAXAX",
"!.- o o o o % , 7 ( v.v.v.2.Y %.BXrXeXlXkX-XI 7 <.v.v.` l /.kX].=.=.#.j ` v.v.v.v.s.<.5 $ 2 k +.:.-.R k 4 D X.OXAXAXAXAXAXAXAXAX",
"1 o o o # - y F 7 ~ v.v.v.9.Q z P.F P %X!.l 6 ` v.v.v.2.j I U.F $ 1 k ^ r.v.v.v.v.u.` % 8 O.:.-.R S D } P.'.%XvXAXAXAXAXAXAXAXAX",
"* o o o > S ;.} 5 1.v.v.v.u.3.k q % * w 5 k 6.v.v.v.v.e.( g z d s T ( w.v.v.v.v.v.N.2.6 Y ;.R D l @.`.0XZXAXAXAXAXAXAXAXAXAXAXAX",
"1 o o = D >.K.-.1 <.v.v.v.v.y.2.! T R W 2.e.v.v.v.v.v.v.y.2.( ( <.6.v.v.v.v.v.v.v.v.q.T 1 5 2 O.).VXAXAXAXAXAXAXAXAXAXAXAXAXAXAX",
"8 o & H K.K.K.;.3 ~ v.v.v.v.v.N.e.6.7.q.u.v.v.v.v.v.v.v.v.v.v.v.v.v.v.v.v.v.v.v.v.v.s.3.= #  .eXAXAXAXAXAXAXAXAXAXAXAXAXAXAXAXAX",
"4 # y :.K.;.X.U 5 ( v.v.v.v.v.v.v.v.v.v.v.v.v.v.v.v.v.v.v.s.5.` W ( v.v.v.v.v.v.v.v.v.N.Y , Y.kXAXAXAXAXAXAXAXAXAXAXAXAXAXAXAXAX",
"% , & 8 } t e 3 6 1.t.v.v.v.v.v.v.v.v.v.v.v.v.v.v.N.e.7.1.^ Y i z y <.u.v.v.v.v.v.v.v.v.5.= U.BXAXAXAXAXAXAXAXAXAXAXAXAXAXAXAXAX",
"$ I D $ * X.<XP.z k ! 8.N.v.v.v.v.v.v.v.v.v.v.w.7.2.^ E j i j < o.D z q.v.v.v.v.v.v.v.v.v.5 $.9XnXAXAXAXAXAXAXAXAXAXAXAXAXAXAXAX",
"= & @ o 0 '.AXAX.X@.l T 2.t.v.v.v.v.v.v.r.i > = < 1 5 s R ( 8.k I o.h 6.v.v.v.v.v.v.v.t.r.s > } ].eXZXAXAXAXAXAXAXAXAXAXAXAXAXAX",
"2 H D * $ K.zXAXAXBXK.6 E 0.v.v.v.v.v.v.N.7 H , W ` 7.u.v.v.v.Q y l T 7.v.v.v.v.v.5.Q ! ! i % # l =.].eXAXAXAXAXAXAXAXAXAXAXAXAX",
"q o.-.3 o X.9XAXAXyXK.i ! q.v.v.v.v.v.v.v.i z 6 <.t.v.v.v.v.v.^ 7 k <.r.v.v.v.v.v.R < @ # # @ o o % l U.xXAXAXAXAXAXAXAXAXAXAXAX",
"z T :.t # D +XAXAX7Xx p <.t.v.v.v.v.v.v.v.^ 5 $ k 5.v.v.v.v.v.3.~ 2.y.v.v.v.v.v.3.i P.&XI.P l w ; o o I qXAXAXAXAXAXAXAXAXAXAXAX",
"} F ;.D = l `.AXAXkXP.l k ` w.v.v.v.v.v.v.y.4.R T 2.v.v.v.v.v.v.v.v.v.v.v.v.v.s.W 1 3 r L -.'.U.l o o I tXAXAXAXAXAXAXAXAXAXAXAX",
"K.S @.R 5 4 U.AXAXAXxXP.q u ~ 8.v.v.v.v.v.v.v.v.v.v.v.v.v.v.v.v.v.v.v.v.v.v.v.` p k R T F r w L 8 o # I AXAXAXAXAXAXAXAXAXAXAXAX",
"].D } -.y * @.sXAXAXxX/.w @ f 1.v.v.v.v.v.v.v.v.v.v.v.v.v.v.v.v.v.v.v.v.v.2.E 6 = q Y -.:.;.} l , # * o.AXAXAXAXAXAXAXAXAXAXAXAX",
"qXI F :.D $ w ^.AXZX,XJ @ < R 6.v.v.v.v.v.v.v.v.v.v.v.v.v.v.v.v.v.v.v.v.<.k 0 F *.+.e = 8 D T T u - ; O.xXAXAXAXAXAXAXAXAXAXAXAX",
"ZX*.l +.Y > 1 -.AXtX=.& # 5 k ( q.v.v.v.v.v.v.v.v.v.v.v.v.v.v.v.v.v.v.4.Y I '.0XgXzXxX9XT.L 2 % & 4 0 I qXAXAXAXAXAXAXAXAXAXAXAX",
"AX_.D R } 6 q R.VXOXw o # < 5 7 j ! 9.v.v.v.v.v.v.v.v.v.v.v.v.v.v.v.0.Q D /.vXAXAXAXAXAXZX#X2 o o 4 w I tXAXAXAXAXAXAXAXAXAXAXAX",
"AX#XI F R l #.xXcX~.o o # 7 U T z g <.v.v.v.v.v.v.v.v.v.v.v.v.v.w.<.E z =.gXAXAXAXAXAXAXlX%.o o - q 5 I AXAXAXAXAXAXAXAXAXAXAXAX",
"AX0X#.@ * 4 $.sXMX[.o o 1 U :.;.S : 8 T <.s.v.u.0.6.5.8.r.v.v.v.5.T 1 F 2XAXAXAXAXAXAXAXgXq o $ y +.D @.AXAXAXAXAXAXAXAXAXAXAXAX",
"AXqX$.q %.I z ^.ZX.Xo * z ;.:.U l =.-.I 8 E 8.Q u i j E ^ ` 1.7.2.k z R.MXAXAXAXAXAXAXAX-Xo o > U +.l Q.AXAXAXAXAXAXAXAXAXAXAXAX",
"AXqX#.x -.#.D -.AX|.$ 7 o.>.} l U.eXtX9XU.9 g 8 *.T.*.F z D F T T k U.iXAXAXAXAXAXAXAXAX@.% $ y ;.R l qXAXAXAXAXAXAXAXAXAXAXAXAX",
"AXnX{.q 3 r z R.VXW.$ 3 F Y y &.yXAXAXAXrXP.: G AXAXAXBX9X/.-.} I =.eXAXAXAXAXAXAXAXAXnXw @ > R :.D I AXAXAXAXAXAXAXAXAXAXAXAXAX",
"AXAXVXrX_.~.].xXcXK.& c r 1 1 #XAXAXAXAXAXgX}.4XAXAXAXAXAXAXZXeX:XrXAXAXAXAXAXAXAXAXAX6X8 $ r K.-.6 /.AXAXAXAXAXAXAXAXAXAXAXAXAX",
"AXAXAXAXAXAXAXAXMXR.- #.x o & _.vXAXAXAXAXAXZXAXAXAXAXAXAXAXAXAXAXAXAXAXAXAXAXAXAXAXAX#., % Y K.R q iXAXAXAXAXAXAXAXAXAXAXAXAXAX",
"AXAXAXAXAXAXAXAXZX|.$ z y $ o o.qXAXAXAXAXAXAXAXAXAXAXAXAXAXAXAXAXAXAXAXAXAXAXAXAXAXAXX.= % ;.K.l I AXAXAXAXAXAXAXAXAXAXAXAXAXAX",
"AXAXAXAXAXAXAXAXAX-Xo R ..* o x :XAXAXAXAXAXAXAXAXAXAXAXAXAXAXAXAXAXAXAXAXAXAXAXAXAXAX/.2 r K.K.5 P.MXAXAXAXAXAXAXAXAXAXAXAXAXAX",
"AXAXAXAXAXAXAXAXAX,X% :.K.8 # q }.AXAXAXAXAXAXAXAXAXAXAXAXAXAXAXAXAXAXAXAXAXAXAXAXAXAXnX4 Y K.O.3 ,XZXAXAXAXAXAXAXAXAXAXAXAXAXAX",
"AXAXAXAXAXAXAXAXAX,X, ;.K.F & G ,XAXAXAXAXAXAXAXAXAXAXAXAXAXAXAXAXAXAXAXAXAXAXAXAXAXAX6X8 R -.k I wXAXAXAXAXAXAXAXAXAXAXAXAXAXAX",
"AXAXAXAXAXAXAXAXAX9X0 ..K.O.3 =.yXAXAXAXAXAXAXAXAXAXAXAXAXAXAXAXAXAXAXAXAXAXAXAXAXAXAX#.1 : 4 : =.tXAXAXAXAXAXAXAXAXAXAXAXAXAXAX",
"AXAXAXAXAXAXAXAXAXBXD U :.>.l O.qXAXAXAXAXAXAXAXAXAXAXAXAXAXAXAXAXAXAXAXAXAXAXAXAXAXAXX.S #.I 3 =.rXAXAXAXAXAXAXAXAXAXAXAXAXAXAX",
"AXAXAXAXAXAXAXAXAXAX#.z } } u D :XAXAXAXAXAXAXAXAXAXAXAXAXAXAXAXAXAXAXAXAXAXAXAXAXAXAX/.z x G e P.sXAXAXAXAXAXAXAXAXAXAXAXAXAXAX",
"AXAXAXAXAXAXAXAXAXAXP.q r l 0 t }.AXAXAXAXAXAXAXAXAXAXAXAXAXAXAXAXAXAXAXAXAXAXAXAXAXAXAX|.%.K #.5XAXAXAXAXAXAXAXAXAXAXAXAXAXAXAX",
"AXAXAXAXAXAXAXAXAXAX/.l 3 e 4 I ,XAXAXAXAXAXAXAXAXAXAXAXAXAXAXAXAXAXAXAXAXAXAXAXAXAXAXAXAXAXAXAXAXAXAXAXAXAXAXAXAXAXAXAXAXAXAXAX",
"AXAXAXAXAXAXAXAXAXAXqXK.I P @.[.lXAXAXAXAXAXAXAXAXAXAXAXAXAXAXAXAXAXAXAXAXAXAXAXAXAXAXAXAXAXAXAXAXAXAXAXAXAXAXAXAXAXAXAXAXAXAXAX",
"AXAXAXAXAXAXAXAXAXAXAXeX|.'.6XcXAXAXAXAXAXAXAXAXAXAXAXAXAXAXAXAXAXAXAXAXAXAXAXAXAXAXAXAXAXAXAXAXAXAXAXAXAXAXAXAXAXAXAXAXAXAXAXAX"
};
