/* XPM */
static char *uhooi_dancing_9[] = {
/* columns rows colors chars-per-pixel */
"64 64 256 2 ",
"   c black",
".  c black",
"X  c black",
"o  c black",
"O  c #010101",
"+  c #020302",
"@  c #040403",
"#  c #070604",
"$  c #080706",
"%  c #090806",
"&  c #0A0907",
"*  c #0B0B09",
"=  c #0D0D0A",
"-  c #0E0F0C",
";  c #10110D",
":  c #12130F",
">  c #13140F",
",  c #141510",
"<  c #151710",
"1  c #161710",
"2  c #171710",
"3  c #181710",
"4  c #191610",
"5  c #1C1711",
"6  c #1E1812",
"7  c #1E1914",
"8  c #1E1A16",
"9  c #1F1B17",
"0  c #201C1A",
"q  c #21201C",
"w  c #23231E",
"e  c #252620",
"r  c #262822",
"t  c #272A23",
"y  c #292D24",
"u  c #293124",
"i  c #293325",
"p  c #2A3326",
"a  c #2E3427",
"s  c #313227",
"d  c #363026",
"f  c #3A2E23",
"g  c #3E2C22",
"h  c #412B22",
"j  c #492D21",
"k  c #482F24",
"l  c #463128",
"z  c #41362E",
"x  c #3F3A33",
"c  c #3D3D38",
"v  c #3F3F3A",
"b  c #40423B",
"n  c #42463D",
"m  c #43493D",
"M  c #434B3D",
"N  c #434C3D",
"B  c #424D3D",
"V  c #414F3C",
"C  c #41503C",
"Z  c #40543C",
"A  c #415A3C",
"S  c #435E3E",
"D  c #44633F",
"F  c #466441",
"G  c #486543",
"H  c #4A6645",
"J  c #4D6848",
"K  c #516C4C",
"L  c #546C4E",
"P  c #55694F",
"I  c #556750",
"U  c #566450",
"Y  c #566151",
"T  c #565E51",
"R  c #565B51",
"E  c #565851",
"W  c #565651",
"Q  c #575552",
"!  c #585654",
"~  c #585755",
"^  c #5A5956",
"/  c #5B5A57",
"(  c #5C5C59",
")  c #5D5F5B",
"_  c #5F615E",
"`  c #60625F",
"'  c #60635F",
"]  c #616361",
"[  c #626461",
"{  c #646563",
"}  c #666865",
"|  c #676A66",
" . c #6A6B68",
".. c #6B6D69",
"X. c #6C6E6B",
"o. c #6E706C",
"O. c #6F716E",
"+. c #717370",
"@. c #737573",
"#. c #767775",
"$. c #787A78",
"%. c #7C7F7B",
"&. c #80847F",
"*. c #828981",
"=. c #828B81",
"-. c #848C82",
";. c #868D83",
":. c #838F81",
">. c #80917E",
",. c #7F927D",
"<. c #7C9379",
"1. c #799475",
"2. c #769671",
"3. c #73986E",
"4. c #71996B",
"5. c #6F9C67",
"6. c #6D9F65",
"7. c #6CA364",
"8. c #6BA762",
"9. c #6BAB61",
"0. c #6CB061",
"q. c #6CB362",
"w. c #6EB663",
"e. c #70B965",
"r. c #71BC66",
"t. c #73BF67",
"y. c #74C168",
"u. c #75C369",
"i. c #77C66B",
"p. c #79CA6D",
"a. c #7CCE70",
"s. c #7ED171",
"d. c #7ED271",
"f. c #7FD272",
"g. c #7FD372",
"h. c #7FD372",
"j. c #7FD472",
"k. c #7FD472",
"l. c #80D473",
"z. c #80D573",
"x. c #80D573",
"c. c #80D573",
"v. c #80D573",
"b. c #80D573",
"n. c #80D573",
"m. c #80D573",
"M. c #80D573",
"N. c #80D573",
"B. c #80D574",
"V. c #81D574",
"C. c #81D574",
"Z. c #81D574",
"A. c #81D574",
"S. c #81D574",
"D. c #81D574",
"F. c #81D574",
"G. c #81D574",
"H. c #81D574",
"J. c #81D574",
"K. c #81D574",
"L. c #84CD79",
"P. c #87C77D",
"I. c #89C181",
"U. c #8CBC84",
"Y. c #8EB887",
"T. c #91B38C",
"R. c #95AC91",
"E. c #98A596",
"W. c #9AA299",
"Q. c #9DA39D",
"!. c #A0A3A0",
"~. c #A4A4A4",
"^. c #A7A7A7",
"/. c #AAAAAA",
"(. c gray68",
"). c #AFAFAF",
"_. c #B2B2B2",
"`. c gray71",
"'. c #B7B7B7",
"]. c gray73",
"[. c #BBBBBB",
"{. c #BCBCBC",
"}. c gray",
"|. c #C0C0C0",
" X c #C1C1C1",
".X c #C1C1C1",
"XX c #C1C1C1",
"oX c gray76",
"OX c gray76",
"+X c gray76",
"@X c gray76",
"#X c #C3C3C3",
"$X c #C3C3C3",
"%X c #C3C3C3",
"&X c gray77",
"*X c gray77",
"=X c gray77",
"-X c #C6C6C6",
";X c gray78",
":X c #C8C8C8",
">X c #CACACA",
",X c #CBCBCB",
"<X c #CECECE",
"1X c gray82",
"2X c gray83",
"3X c gray84",
"4X c #D8D8D8",
"5X c #DADADA",
"6X c gainsboro",
"7X c gray87",
"8X c gray88",
"9X c #E2E2E2",
"0X c gray90",
"qX c #E6E6E6",
"wX c gray91",
"eX c #EAEAEA",
"rX c gray92",
"tX c gray92",
"yX c #ECECEC",
"uX c #ECECEC",
"iX c #ECECEC",
"pX c gray93",
"aX c #EEEEEE",
"sX c #EFEFEF",
"dX c gray94",
"fX c #F1F1F1",
"gX c #F3F3F3",
"hX c #F4F4F4",
"jX c gray96",
"kX c #F6F6F6",
"lX c gray97",
"zX c #F8F8F8",
"xX c #F9F9F9",
"cX c gray98",
"vX c #FBFBFB",
"bX c gray99",
"nX c gray99",
"mX c #FDFDFD",
"MX c #FDFDFD",
"NX c #FDFDFD",
"BX c #FDFDFD",
"VX c #FEFEFE",
"CX c #FEFEFE",
"ZX c #FEFEFE",
"AX c #FEFEFE",
"SX c #FEFEFE",
"DX c #FEFEFE",
"FX c #FEFEFE",
"GX c #FEFEFE",
"HX c #FEFEFE",
"JX c #FEFEFE",
"KX c #FEFEFE",
"LX c white",
"PX c None",
"IX c white",
"UX c white",
/* pixels */
"PXPXPXPXPXPXPXPXPXPXPXPXPXPXPXPXPXPXPXPXPXPXPXPXPXPXPXPXPXPXPXPXPXPXPXPXPXPXPXPXPXPXPXPXPXPXPXPXPXPXPXPXPXPXPXPXPXPXPXPXPXPXPXPX",
"PXPXPXPXPXPXPXPXPXPXPXPXPXPXPXPXPXPXPXPXPXPXPXPXPXPXPXPXPXPXPXPXPXPXPXPXPXPXPXPXPXPXPXPXPXPXPXPXPXPXPXPXPXPXPXPXPXPXPXPXPXPXPXPX",
"PXPXPXPXPXPXPXPXPXPXPXPXPXPXPXPXPXPXPXPXPXPXPXPXPXPXPXPXPXPXPXPXPXPXPXPXPXPXPXPXPXPXPXPXPXPXPXPXPXPXPXPXPXPXPXPXPXPXPXPXPXPXPXPX",
"PXPXPXPXPXPXPXPXPXPXPXPXPXPXPXPXPXPXPXPXPXPXPXPXPXPXPXPXPXPXPXPXPXPXPXPXPXPXPXPXPXPXPXPXPXPXPXPXPXPXPXPXPXPXPXPXPXPXPXPXPXPXPXPX",
"PXPXPXPXPX6X0XDXPXPX6X0XDXPXPXPXPXPXPXPXPXPXPXPXPXPXPXPXPXPXPXPXPXPXPXPXPXPXPXPXPXPXPXPXPXPXPXPXPXPXPXPXPXPXPXPXPXPXPXPXPXPXPXPX",
"PXPXPXPXzX&.W.sXPXzX&.W.sXPXPXPXPXPXPXPXPXPXPXPXPXPXPXPXPXPXPXPXPXPXPXPXPXPXPXPXPXPXPXPXPXPXPXPXPXPXPXPXPXPXPXPXPXPXPXPXPXPXPXPX",
"PXPXPXPXjXW ] 6XPXjXW ] 6XPXPXPXPXPXPXPXPXPXPXPXPXPXPXPXPXPXPXPXPXPXPXPXPXPXPXPXPXPX1X7XvXPXPX1X7XvXPXPXPXPXPXPXPXPXPXPXPXPXPXPX",
"PXPXPXPXuXb s ,XPXuXb s ,XPXPXPXPXPXPXPXPXPXPXPXPXPXPXPXPXPXPXPXPXPXPXPXPXPXPXPXPXtX` ^ 1XPXtX` ^ 1XPXPXPXPXPXPXPXPXPXPXPXPXPXPX",
"PXPXPXPX4Xs * _.xX4Xs * _.xXPXPXPXPXPXPXPXPXPXPXPXPXPXPXPXPXPXPXPXPXPXPXPXPXPXPXPX1Xc = &.wX1Xc : &.wXPXPXPXPXPXPXPXPXPXPXPXPXPX",
"PXPXPXPX/.0 X +.eX/.r = @.eXPXPXPXPXPXPXPXPXPXPXPXPXPXPXPXPXPXPXPXPXPXPXPXPXPXPXPX~.q X t <X~.r 5 d <XDXPXPXPXPXPXPXPXPXPXPXPXPX",
"PXPXPXPX;.; X w 1X;.5 & e 1XNXPXPXPXPXPXPXPXPXPXPXPXPXPXPXPXPXPXPXPXPXPXPXPXPXPXPX$.; X # Q.@.q 5 & Q.hXPXPXPXPXPXPXPXPXPXPXPXPX",
"PXPXPXPX%.* X + #.+.* = # #.eXDXPXPXPXPXPXPXPXPXPXPXPXPXPXPXPXPXPXPXPXPXPXPXPXPXPXb # X X M c j j 6 W wXPXPXPXPXPXPXPXPXPXPXPXPX",
"PXPXPXPX#.@ X X , c & = + , &.8XDXPXPXPXPXPXPXPXPXPXPXPXPXPXPXPXPXPXPXPXPXPXPXPXqX2 X X X - : 6 j j 4 -XnXPXPXPXPXPXPXPXPXPXPXPX",
"PXPXPXNX&.X X X X % & g 5 # - O.;XzXPXPXPXlXDXPXPXPXPXPXPXPXPXPXPXPXPXPXPXPXPXPXW.# X X X X # 6 & j 5 %.*X,X0XDXeX;X,X0XDXPXPXPX",
"PXPXPXvX'.+ X X X X @ 5 6 5 5 5 x E.1XeXqX~.9XPXPXPXPXPXPXPXPXPXPXPXPXPXPXPXDX+X; X X X X O j k + j g s y e { gX%.v x { NXPXPXPX",
"PXPXPXDX8Xx X X X X O = 6 h j j & @ v $._ = s ,XPXPXvX*XW.tXPXNX9X`.tXPXPXNX9Xr X X X X O = h j # k h + X X = *X$ d d = aXPXPXPX",
"PXPXPXPXhXW.$ X X X O $ 5 h g 6 5 5 j = - F q y uX`.( , 0 /.[.&.W c !.uXaX*Xc + X X X + 5 j % 5 h k h X X X 2 !.$ a 8 2 9XPXPXPX",
"PXPXPXPXNX4XM X X X X O = j j j j k k h i a.6.* e 1 * i % q a V A q r N W < * % X O O % j j 5 5 j h 5 X X X q ;.9 | U w 0XPXPXPX",
"PXPXPXPXjX<X%.- X X X X & j j j j j j 9 6.G.i.D # i L w.6.K L 0.0.Z - 8 i Z D i + 5 6 5 j l k j 5 5 5 X X X y @.a ;.| a wXPXPXPX",
"PXPXPX2X .n x * X X @ * ; 6 6 5 a i - A l.G.G.p.9.u.s.K.d.a.l.G.p.6.H L e.l.p.H 5 l k j 6 m j 5 h j 5 X X O c ) B :.Y b lXPXPXPX",
"PXPXlXQ.- X X X X 9 H L K F Z D p.6.a L G.G.G.G.l.G.G.G.G.G.G.G.G.G.G.G.G.G.p.F 6 k k j 6 k g 5 j j = X X % m b ) ,.Z ) PXPXPXPX",
"PXPXfX&.X X X X X a u.G.G.d.y.y.G.q.L t.G.G.G.G.G.G.G.G.G.G.G.G.G.G.G.G.G.G.h.6.9 6 j k k j 5 j j 9 * X X , ^ c X.2.N &.PXPXPXPX",
"PXPXnXE.; X X X X i 9.G.G.G.G.G.G.G.G.G.G.G.G.G.G.G.G.G.G.G.G.G.G.G.G.G.G.G.G.d.7.i @ + 5 j j j d Q 2 X X r  .b o...B Q.PXPXPXPX",
"PXPXPX'.x X X X X < L G.G.G.G.G.G.p.t.p.l.G.G.G.G.G.G.G.G.G.G.G.G.G.G.G.G.s.a.h.G.e.D A a 4 5 f &.;.2 X X c O.n +.) W `.PXPXPXPX",
"PXPXPX9X^ O X X X @ D p.G.G.G.G.d.L A G q.s.G.G.G.G.G.G.G.G.G.G.G.G.c.p.0.L L e.G.G.G.c.p.K q t Q.;.= X X Q +.n 1.E ( 1XPXPXPXPX",
"PXPXPXcX;.3 X X X X i 9.G.G.G.G.w.Z c s a L p.G.G.G.G.G.G.G.G.G.h.w.L D C x q J d.G.G.G.G.a.L i M _ $ X X X.o.M <.N O.0XPXPXPXPX",
"PXPXPX1X{ , X X X X & J a.G.G.G.K N ].6X+.q < i G w.f.G.G.G.G.q.J Z N Q &.{.~ D t.G.G.G.i.D 9 a &._ # X X &.} B 2.x &.pXPXPXPXPX",
"PXlXW.b 2 @ X X + t 8 A r.G.G.G.K H ,XnXcX2X~. .t < D t.G.G.7.Z M @.).0XnXzX{ D r.G.G.G.6.c E.'.!.v + X % O.v p Z t !.xXPXPXPXPX",
"wX@.w # X X X : Z ' q D y.G.G.G.6.a _.<X$XaXNXcXE.q D u.G.G.Z R /.tXcXnXNX*Xc J p.G.G.G.K c +.` s * X X ; a , r 8 t +XPXPXPXPXPX",
"n ; + X X X q ' >.,.9 K a.G.G.G.p.a ^ e @ E.{.! 0 D e.h.G.G.i } 0X2XW.!.].W N w.G.G.G.G.0.8 : @ X X # e M n 0 | m v 1XPXPXPXPXPX",
"# X X X X a +.;.T.;.0 K a.G.G.G.G.9.i < * > % i 6.p.l.G.G.G.J a &.] ; = s a 9.h.G.G.G.G.h.a # X * s Y ..:.+.9 Q m m 6XPXPXPXPXPX",
"X X X X e 1.;.T.>.1.9 F a.G.G.G.G.G.p.6.L L t.s.h.G.G.G.G.G.i.D Z a i i D q.h.G.G.G.G.G.a.1 # m { 1.:.o.Y B < x x $.uXPXPXPXPXPX",
"X X X ; * p X.b t t q 8.l.G.G.G.G.G.G.G.G.G.G.G.G.G.G.G.G.G.G.u.8.6.6.q.l.G.G.G.G.G.G.G.h.< M <.,.' n a m ( $.W.Q.0XNXPXPXPXPXPX",
"X # + [ b @ , & X X < 6.d.G.G.G.G.G.G.G.G.G.G.G.G.G.G.G.G.G.G.G.G.G.G.G.G.G.G.G.G.G.G.G.G.D w c r v ^ E.}.7XvXPXPXPXPXPXPXPXPXPX",
"1 ;.X @ # % * X X X @ i G p.G.G.G.G.G.G.G.G.G.G.G.G.G.G.G.G.G.h.q.6.K 9.G.G.G.G.G.G.G.G.K.q.& n W.}.1XNXPXPXPXPXPXPXPXPXPXPXPXPX",
"s `.= U x y ;.e X X X O ; F u.G.G.G.G.G.G.G.K.G.G.G.G.s.e.6.J S p i x a y.G.G.G.G.G.G.G.G.p.a W gXPXPXPXPXPXPXPXPXPXPXPXPXPXPXPX",
"t ^.8 >.) y 7X@.+ X X X O < L G.G.G.G.G.G.c.q.< < 8 q i u i a Z A 8 } a J G.G.G.G.G.G.G.G.s.6.w =XPXPXPXPXPXPXPXPXPXPXPXPXPXPXPX",
"t Q.0 1.X.y W.m + X X X % i 7.G.G.G.G.G.G.G.0.9 n ; F K L 6.8.e.q.s ] ) Z G.G.G.G.G.G.G.G.K.0.e ].PXPXPXPXPXPXPXPXPXPXPXPXPXPXPX",
"e *.a { o.c X.= X X X X = D s.G.G.G.G.G.G.G.8.9 c i p.a.f.G.G.G.t.S a m D G.G.G.G.G.G.G.G.G.0.s (.PXPXPXPXPXPXPXPXPXPXPXPXPXPXPX",
"3 X.W T @.n +.} : X X X # i L p.G.G.G.G.G.G.r.Z # 9 7.G.G.G.G.G.t.D < D w.G.G.G.G.G.a.8.K 6.J c ~.PXPXPXPXPXPXPXPXPXPXPXPXPXPXPX",
"# ! } N <.M { 1X+.q X X X O 8 K p.G.G.G.G.G.G.i.J a L G.G.G.G.G.p.6.K i.G.G.G.G.G.c.8.i 0 u p Q *XPXPXPXPXPXPXPXPXPXPXPXPXPXPXPX",
"X W X.c >.R Q 7X5X` + X X X O i 8.G.G.G.G.G.G.K.a.u.p.G.G.G.G.G.G.G.G.G.G.G.G.G.G.y.D W 3X9X4X5XgXPXPXPXPXPXPXPXPXPXPXPXPXPXPXPX",
"X m #.x o.Y Q  X`.W # X X X & a 9.G.G.G.G.G.G.G.G.G.G.G.G.G.G.G.G.G.G.G.G.G.G.G.s.L 8 : c _ Q.7XPXPXPXPXPXPXPXPXPXPXPXPXPXPXPXPX",
"X n ;.W [ I ^ *.c # X X X + 2 D q.f.G.G.G.G.G.G.G.G.G.G.G.G.G.G.G.G.G.G.G.G.a.u.6.i p I T m s b W.eXPXPXPXPXPXPXPXPXPXPXPXPXPXPX",
"X c ;.M U Y W #.r + X X X + < q Z 6.u.l.G.G.G.G.G.G.G.G.G.G.G.G.G.G.G.G.G.i.L a = # e T 2.,.@.E c #.1XvXPXPXPXPXPXPXPXPXPXPXPXPX",
"X t E.n & = y ;.b @ X X X + e c p q F i.G.G.G.G.G.G.G.G.G.G.G.G.G.G.G.G.u.G 8 X X X X @ - y T | U c Q Q.0XPXPXPXPXPXPXPXPXPXPXPX",
"X % _ s m ' a c 3 X X X X e ' ;.@.p p 6.p.l.G.G.G.G.G.G.G.G.G.G.G.G.G.p.H c ;.`.$.r + X X # , q y < , s /.zXPXPXPXPXPXPXPXPXPXPX",
"X X x s ..;.Q 8 O X X O q ) ;.<.V ; + < S q.c.G.G.G.G.G.G.G.G.G.G.i.8.J a ;.tXvXaX3X`.) : X X ] ( , z 8 ;.sXPXPXPXPXPXPXPXPXPXPX",
"X X W n 8 a 0 $ X X O : W >.,.B - X X X X q 9.0.A i a J q.s.G.G.G.7.i < @.9XPXPXPXPXvX&.8 X X !.&.8 0 ; !.kXPXPXPXPXPXPXPXPXPXPX",
";.&. XqXW.r $ O X X = = a ) M c s # X n @.0 i 1 % @ # < u A J 9.a.H e n ,XnXPXPXPXPXeXM $ X $ _.M m b , $XPXPXPXPXPXPXPXPXPXPXPX",
"fXpXxXDX<X0 X X X , : m z 0 q ~.$Xe 0 <XdX'.q : Q s * O O p M s D i { >XxXPXPXPXPXPX;.2 X X s $.y o.W v 5XPXPXPXPXPXPXPXPXPXPXPX",
"PXPXPXPX2X: X X X ( : ^ v # X.gXPX>X-XzXPXPX>X|.4X{.;.! ( _.].;.) ` ,XcXPXPXPXPXPX+Xy + X X { a Y ,.e *.dXPXPXPXPXPXPXPXPXPXPXPX",
"PXPXPXPX1X% X X X W.% x a @ '.nXPXPXNXPXPXPXPXNXPXPXgX2X0XNXPXgX2X0XNXPXPXPXPXPXxXM # X X * v c ,.| < 1XnXPXPXPXPXPXPXPXPXPXPXPX",
"PXPXPXDX<XX X X O W.O | | & [.PXPXPXPXPXPXPXPXPXPXPXPXPXPXPXPXPXPXPXPXPXPXPXPXPX!.= X X X x 8 @.T.a Q zXPXPXPXPXPXPXPXPXPXPXPXPX",
"PXPXPXnX+XX X X & $.& T.;.q !.PXPXPXPXPXPXPXPXPXPXPXPXPXPXPXPXPXPXPXPXPXPXPXPXvXc X X X # y n ;.2.= }.PXPXPXPXPXPXPXPXPXPXPXPXPX",
"PXPXPXxX`.X X X & m : ;.:.c } PXPXPXPXPXPXPXPXPXPXPXPXPXPXPXPXPXPXPXPXPXPXPXnX<X# X X + s - +.;.C v jXPXPXPXPXPXPXPXPXPXPXPXPXPX",
"PXPXPXvX+X@ X X + t 1 1.;.Y c eXPXPXPXPXPXPXPXPXPXPXPXPXPXPXPXPXPXPXPXPXPXPXaX .X X X - c y ;.>.a *.PXPXPXPXPXPXPXPXPXPXPXPXPXPX",
"PXPXPXPX<X2 X X X 8 e { ;.o.a ).PXPXPXPXPXPXPXPXPXPXPXPXPXPXPXPXPXPXPXPXPXDX2X, X X X 0 q ) ;.| r ,XPXPXPXPXPXPXPXPXPXPXPXPXPXPX",
"PXPXPXPX1Xc X X X : t b ..T a &.PXPXPXPXPXPXPXPXPXPXPXPXPXPXPXPXPXPXPXPXPXjX^.O X X * c 0 1.<.m ^ kXPXPXPXPXPXPXPXPXPXPXPXPXPXPX",
"PXPXPXPX<Xn X X X ; w , x a e $.PXPXPXPXPXPXPXPXPXPXPXPXPXPXPXPXPXPXPXPXPX<Xv X X X q r @ 9 t x ~.PXPXPXPXPXPXPXPXPXPXPXPXPXPXPX",
"PXPXPXPX6X{ @ X O q c ; r r s E.PXPXPXPXPXPXPXPXPXPXPXPXPXPXPXPXPXPXPXPXPX}.w X X X r s Q ( d c =XPXPXPXPXPXPXPXPXPXPXPXPXPXPXPX",
"PXPXPXPXjX'._ b W *.!.} W ^ ;.8XPXPXPXPXPXPXPXPXPXPXPXPXPXPXPXPXPXPXPXPXPX2XQ X X X c m r Q x n <XPXPXPXPXPXPXPXPXPXPXPXPXPXPXPX",
"PXPXPXPXPXgX<X`.,XgXgX<X`.,XgXPXPXPXPXPXPXPXPXPXPXPXPXPXPXPXPXPXPXPXPXPXPXPX<X .a s ;.*XO.c c ;.gXPXPXPXPXPXPXPXPXPXPXPXPXPXPXPX",
"PXPXPXPXPXPXPXPXPXPXPXPXPXPXPXPXPXPXPXPXPXPXPXPXPXPXPXPXPXPXPXPXPXPXPXPXPXPXnXdX8X4XeXnXdX8X4XeXPXPXPXPXPXPXPXPXPXPXPXPXPXPXPXPX"
};
