/* XPM */
static char *uhooi_dancing_5[] = {
/* columns rows colors chars-per-pixel */
"64 64 256 2 ",
"   c black",
".  c black",
"X  c #010100",
"o  c #020101",
"O  c #030202",
"+  c #050504",
"@  c #080806",
"#  c #0B0A08",
"$  c #0F0E0C",
"%  c #12120F",
"&  c #181512",
"*  c #1A1915",
"=  c #1D1D18",
"-  c #1E1F1A",
";  c #1F1F1B",
":  c #20211C",
">  c #21231D",
",  c #22241D",
"<  c #24261F",
"1  c #272720",
"2  c #292821",
"3  c #2C2820",
"4  c #30281F",
"5  c #37281C",
"6  c #3C271A",
"7  c #3F2719",
"8  c #422619",
"9  c #46291A",
"0  c #472B1C",
"q  c #432D20",
"w  c #3C2E24",
"e  c #393027",
"r  c #37332A",
"t  c #34332B",
"y  c #31352C",
"u  c #31362C",
"i  c #30382D",
"p  c #313B2D",
"a  c #313F2D",
"s  c #30432C",
"d  c #30452C",
"f  c #31472C",
"g  c #32492C",
"h  c #324A2C",
"j  c #324C2C",
"k  c #334E2B",
"l  c #34502C",
"z  c #35502C",
"x  c #36512C",
"c  c #37522D",
"v  c #39522D",
"b  c #3B502C",
"n  c #3E4C2B",
"m  c #43482B",
"M  c #45462D",
"N  c #47442E",
"B  c #474331",
"V  c #484234",
"C  c #494236",
"Z  c #494239",
"A  c #48433B",
"S  c #47443D",
"D  c #47453F",
"F  c #484741",
"G  c #484843",
"H  c #484845",
"J  c #484946",
"K  c #494947",
"L  c #4A4A47",
"P  c #4B4E48",
"I  c #4D5249",
"U  c #4D554A",
"Y  c #4E594B",
"T  c #4F5D4B",
"R  c #50604C",
"E  c #4F634B",
"W  c #4F654A",
"Q  c #4E664A",
"!  c #4F674A",
"~  c #516B4D",
"^  c #556D50",
"/  c #576F52",
"(  c #596B55",
")  c #5C6C59",
"_  c #5E6A5C",
"`  c #606B5E",
"'  c #626B60",
"]  c #646C63",
"[  c #676C66",
"{  c #6A7069",
"}  c #6C726B",
"|  c #6E746D",
" . c #70756F",
".. c #737571",
"X. c #757673",
"o. c #777774",
"O. c #797875",
"+. c #7B7976",
"@. c #7D7D78",
"#. c #7F807A",
"$. c #81827B",
"%. c #83847C",
"&. c #83867C",
"*. c #82887D",
"=. c #818D7B",
"-. c #7F9278",
";. c #7B9873",
":. c #789D70",
">. c #74A16B",
",. c #74A66A",
"<. c #73AB69",
"1. c #75B36B",
"2. c #77BA6C",
"3. c #78C26D",
"4. c #7AC96E",
"5. c #7BCD6F",
"6. c #7CCF70",
"7. c #7ED171",
"8. c #7FD372",
"9. c #7FD473",
"0. c #80D473",
"q. c #80D473",
"w. c #80D573",
"e. c #80D573",
"r. c #80D573",
"t. c #80D573",
"y. c #80D573",
"u. c #81D574",
"i. c #81D574",
"p. c #81D574",
"a. c #81D574",
"s. c #81D574",
"d. c #81D574",
"f. c #81D574",
"g. c #81D574",
"h. c #81D574",
"j. c #81D574",
"k. c #81D574",
"l. c #81D574",
"z. c #83D075",
"x. c #85CB77",
"c. c #87C578",
"v. c #89BF7B",
"b. c #8CB77E",
"n. c #90AB83",
"m. c #93A187",
"M. c #959A8A",
"N. c #97968C",
"B. c #98948D",
"V. c #98938E",
"C. c #99938E",
"Z. c #99938F",
"A. c #999390",
"S. c #999491",
"D. c #999492",
"F. c #999593",
"G. c #999593",
"H. c #999594",
"J. c #999695",
"K. c #989695",
"L. c #989796",
"P. c #989797",
"I. c #989898",
"U. c #989898",
"Y. c #989898",
"T. c #989898",
"R. c #999898",
"E. c gray60",
"W. c gray60",
"Q. c #9A9999",
"!. c #9A9A9A",
"~. c #9A9A9A",
"^. c #9B9B9B",
"/. c gray61",
"(. c #9D9D9D",
"). c gray62",
"_. c #9F9F9F",
"`. c gray63",
"'. c #A2A2A2",
"]. c #A4A4A4",
"[. c gray65",
"{. c #A7A7A7",
"}. c #A7A7A7",
"|. c gray66",
" X c #AAAAAA",
".X c gray68",
"XX c gray69",
"oX c gray70",
"OX c gray71",
"+X c #B7B7B7",
"@X c gray73",
"#X c #BCBCBC",
"$X c gray",
"%X c #C3C3C3",
"&X c gray79",
"*X c #CECECE",
"=X c gray83",
"-X c gray85",
";X c gainsboro",
":X c gray88",
">X c #E2E2E2",
",X c gray89",
"<X c #E4E4E4",
"1X c #E4E4E4",
"2X c gray90",
"3X c #E6E6E6",
"4X c #E7E7E7",
"5X c #E7E7E7",
"6X c gray91",
"7X c #E9E9E9",
"8X c #EAEAEA",
"9X c gray92",
"0X c #ECECEC",
"qX c gray93",
"wX c #EEEEEE",
"eX c gray94",
"rX c #F1F1F1",
"tX c #F1F1F1",
"yX c gray95",
"uX c #F3F3F3",
"iX c #F3F3F3",
"pX c #F4F4F4",
"aX c gray96",
"sX c #F6F6F6",
"dX c gray97",
"fX c #F8F8F8",
"gX c #F8F8F8",
"hX c #F9F9F9",
"jX c #FBFBFB",
"kX c #FBFBFB",
"lX c gray99",
"zX c gray99",
"xX c gray99",
"cX c gray99",
"vX c gray99",
"bX c gray99",
"nX c #FDFDFD",
"mX c #FDFDFD",
"MX c #FEFEFE",
"NX c #FEFEFE",
"BX c #FEFEFE",
"VX c #FEFEFE",
"CX c #FEFEFE",
"ZX c #FEFEFE",
"AX c #FEFEFE",
"SX c #FEFEFE",
"DX c #FEFEFE",
"FX c #FEFEFE",
"GX c #FEFEFE",
"HX c #FEFEFE",
"JX c #FEFEFE",
"KX c white",
"LX c white",
"PX c None",
"IX c white",
"UX c white",
/* pixels */
"PXPXPXPXPXPXPXPXPXPXPXPXPXPXPXPXPXPXPXPXPXPXPXPXPXPXPXPXPXPXPXPXPXPXPXPXPXPXPXPXPXPXPXPXPXPXPXPXPXPXPXPXPXPXPXPXPXPXPXPXPXPXPXPX",
"PXPXPXPXPXPXPXPXPXPXPXPXPXPXPXPXPXPXPXPXPXPXPXPXPXPXPXPXPXPXPXPXPXPXPXPXPXPXPXPXPXPXPXPXPXPXPXPXPXPXPXPXPXPXPXPXPXPXPXPXPXPXPXPX",
"PXPXPXPXPXPXPXPXPXPX=XiXPXPXPXPXPXPXPXPXPXPXPXPXPXPXPXPXPXPXPXPXPXPXPXPXPXPXPXPXPXPXPXPXPXPXPXPXPXPXPXPXPXPXPXPXPXPXPXPXPXPXPXPX",
"PXPXPXPXPXPXPXPXPXdX` $XhXPXPXPXPXPXPXPXPXPXPXPXPXPXPXPXPXPXPXPXPXPXPXPXPXPXPXPXPXPXPXPXPXPXPXPXPXPXPXPXPXPXPXPXPXPXPXPXPXPXPXPX",
"PXPXPXPXPXPXPXPXPXyX= %.iXPXPXPXPXPXPXPXPXPXPXPXPXPXPXPXPXPXPXPXPXPXPXPXPXPXPXPXPXPXPXPXPXPXPX%X0XmXPXPXPXPXPXPXPXPXPXPXPXPXPXPX",
"PXPXPXPXPXPXPXPXPX5X% H yXPXPXPXPXPXPXPXPXPXPXPXPXPXPXPXPXPXPXPXPXPXPXPXPXPXPXPXPXPXPXPXPXPX3XD X.eXPXPXPXPXPXPXPXPXPXPXPXPXPXPX",
"PXPXPXPXPXPXPXPX=X%X+ % 1XPXPXPXPXPXPXPXPXPXPXPXPXPXPXPXPXPXPXPXPXPXPXPXPXPXPXPXPXPXPXPXPXPX%X$ & }.jXPXPXPXPXPXPXPXPXPXPXPXPXPX",
"PXPXPXPXPXPXPXdX`  .. + P.PXPXPXPXPXPXPXPXPXPXPXPXPXPXPXPXPXPXPXPXPXPXPXPXPXPXPXPXPXPXPXPXPXV.O . S dXPXPXPXPXPXPXPXPXPXPXPXPXPX",
"PXPXPXPXPXPXPXyX= p . O A tXPXPXPXPXPXPXPXPXPXPXPXPXPXPXPXPXPXPXPXPXPXPXPXPXPXPXPXPXPXPXPX%XU . . $ &XPXPXPXPXPXPXPXPXPXPXPXPXPX",
"PXPXPXPXPXPXPX5X$ = . . % ^.sXPXPXPXPXPXPXPXPXPXPXPXPXPXPXPXPXPXPXPXPXPXPXPXPXPXPXPXPXPX3XA % . . @ { PXPXPXPXPXPXPXPXPXPXPXPXPX",
"PXPXPXPXPXPXPX*X+ @ . . + y ].0XPXPXPXPXPXPXPXPXPXPXPXPXPXPXPXPXPXPXPXPXPXPXPXPXPXPXPXPX%X$ + . . O y :XPXPXPXPXPXPXPXPXPXPXPXPX",
"PXPXPXPXPXPXcXH.# $ . . . O 1 V.:XkXPXPXmXmXPXPXPXPXPXPXPXPXPXPXPXPXPXPXPXPXPXPXPXPXPXPX$.# % . . . * [.PXPXPXkX3X*X;XeXPXPXPXPX",
"PXPXPXPXPXPXpX| @ $ . . . . o & [ #X>XeX;X#XeXPXPXPXPXPXPXPXPXPXPXPXPXPXPXPXPXPXPXPXPXqXp % % . . . * *.PXPXmX;XX.y y V.AXPXPXPX",
"PXPXPXPXPXPX0X' O # + . . . . . o % P @.P $ { dXPXPXaX;X,XPXPXgX-X&XyXPXPXPXPXPXPXPXkX.X# 9 0 & . . = V.PXPXsX].+ . . D iXPXPXPX",
"PXPXPXPXPXPX2X_ @ $ + o . . . . . . . . . . : W.PX9XW.P D.,XOX%.( ' *XAXpX5X2X0XaXhX$Xy + 8 0 0 X . : H.PXPXqX*.. . . H 8XPXPXPX",
"PXPXPXPXPXPX>X[ $ 5 $ O . . . . . . . . . . o A V.` = @ 1 P t % . 1 &.+X^..._ ] @...= o @ & & 0 # . < /.PXkX*X_ . . . U 9XPXPXPX",
"PXPXPXPXPXPXwXV.# 5 & & % $ O . . . . . . . . + $ # . . . . . . . $ 2 : O . . . . . o # 0 0 $ 0 & . 2 ].mX;X[ ; # . . ` wXPXPXPX",
"PXPXPXPXPXPXkXOX: % 6 8 8 6 @ O + o O O . . . . . . . . . . . . . . . . . . . . . . + % 8 9 & 0 & . y oXsX].% r 2 . o ..hXPXPXPX",
"PXPXPXPXPXPXPX-Xt # & 8 6 & & * 6 # - v % . . . . . . . . . o o . . . . . . . . . + & 8 $ & 8 q & . _ -XqX*.% 1 $ . # V.PXPXPXPX",
"PXPXPXPXPXPXPX5Xp O & 0 0 0 0 N q 5 ! 3.! + . . % = + O % d d % . . o + @ + . . . % 0 0 & 7 9 8 # & _.gX>X..t ] D . ;  XPXPXPXPX",
"PXPXPXPXPXPXAX8XL O % 0 q 0 9 0 8 d <.s.1.f @ h / ,.~ ! / 1./ a $ * < k c = + % & % 0 N 0 8 & % $ _ 2XPX=X] U m.U . u $XPXPXPXPX",
"PXPXPXPXPXPX$X{ y % % = & , a & % ! 0.s.u.1.<.3.7.0.6.6.r.s.3.~ ! / 3.0.3.c 8 M q 5 9 m 0 % 8 8 4 }.PXPX#XU ( -.S . I *XPXPXPXPX",
"PXPXPXPXPXpX .h ! ! ! v s ~ 4.! l ,.s.s.s.0.8.s.s.s.s.s.s.s.s.s.s.s.s.s.2.k 8 m q 6 9 q & 5 0 8 L =XPXPXW.G { X.y . X.1XPXPXPXPX",
"PXPXPXPXPX8XI ! 4.s.s.6.2.4.s.>./ 3.s.s.s.s.s.s.s.s.s.s.s.s.s.s.s.s.s.s.7.! * 8 q N q 7 & 0 8 $ D :XPXPX$.G =.[ < . K.tXPXPXPXPX",
"PXPXPXPXPXgX' ! 3.s.s.s.s.s.s.s.s.s.s.s.s.s.s.s.s.s.s.s.s.s.s.s.s.s.s.s.s.6.~ & o @ 8 9 0 8 # ; $.wXPXPX@.P =.( * . .XdXPXPXPXPX",
"PXPXPXPXPXPXV.p <.s.s.s.s.s.s.4.3.6.u.s.s.s.s.s.s.s.s.s.s.s.s.s.s.s.s.6.7.r.r.<.c v < & & $ [ $X7XmXPXAX` P -.I $ @ *XmXPXPXPXPX",
"PXPXPXPXPX1XI # / 7.s.s.s.s.7.! c / 3.u.s.s.s.s.s.s.s.s.s.s.s.s.0.3.<./ / 4.s.s.8.5.2.! % $ +XkXPXgX&XA.: P -.p + 2 eXPXPXPXPXPX",
"PXPXPXmX$Xy $ . c 3.s.s.s.s.<.< S - k <.8.s.s.s.s.s.s.s.s.s.8.1./ ! g t & <.r.s.s.s.r.3.! $ ` ;XoX[ H % . T -.2 O S hXPXPXPXPXPX",
"PXPXgX].: O . . $ ,.8.s.s.s.! A >X*XK # * l ~ 3.r.s.s.s.s.<.! c S P %.&X2 ~ 5.s.s.s.3.c * + 2 L y @ . . . R -.* O K PXPXPXPXPXPX",
"PXPXK.$ o . O t $ ! 7.s.s.s.! U yXmXcX%XH.( - * ! 6.s.s./ g F ..+XwXAXgXp ! 5.s.s.s.~ $ o . @ + . . . . . A R $ - &.PXPXPXPXPXPX",
"cXjX+ . . & T ' # ! 0.s.s.s.~ 1 1X=X*XmXcXeX..+ ~ 8.s.s.< _ +XgXkXcXmX#X% >.8.s.s.s.! + . . . . . . O $ # 2 % = K.wXPXPXPXPXPXPX",
"jXpX. o < [ M.=.+ ,.s.s.s.s.3.* } & O %X$XH * ! 3.s.s.r.% %.AX*X/.XX&Xi g r.s.s.s.s.>.o . . . . @ 2 D a & $.r D hXPXPXPXPXPXPXPX",
"yX/.+ Z X.m.m.-.% >.s.s.s.s.8./ * # @ $ $ h ,.4.s.s.s.7.Q i ).( O % Z s 3.s.s.s.s.s.4.* . . % a R } m.[ @ { D L PXPXPXPXPXPXPXPX",
"D.% y -.m.m.-.} * ~ s.s.s.s.s.0.3./ ~ / 2.4.8.s.s.s.s.0.1.c b p - < ! 3.s.s.s.s.s.u.2.@ # P ] =.-.} ( G $ r t &.PXPXPXPXPXPXPXPX",
"@ $ & S [ S t 2 a <.s.s.s.s.s.s.s.s.s.s.u.s.s.s.s.s.s.s.8.2.>./ >.2.s.s.s.s.s.s.s.u.2.& I -.=.) D p P Y X.D._.wXPXPXPXPXPXPXPXPX",
"* Y r # * < [ i < <.8.s.s.s.s.s.s.s.s.s.s.s.s.s.s.s.s.s.s.s.s.s.s.s.s.s.s.s.s.s.s.s.3.l 2 A 2 < P H.$X:XcXPXPXPXPXPXPXPXPXPXPXPX",
"O # @ . . A oX XY c / 6.s.s.s.s.s.s.s.s.s.s.s.s.s.s.s.s.s.5.1.>./ 2.s.s.s.s.s.s.s.s.6.~ @ @ . y ].mXPXPXPXPXPXPXPXPXPXPXPXPXPXPX",
"> U < . . 3 XXiX%X} f / 4.s.s.s.s.s.s.s.s.s.s.s.r.5.1.>.! v h i i ! 4.s.s.s.s.s.s.s.u.<.- . . D $XPXPXPXPXPXPXPXPXPXPXPXPXPXPXPX",
"p =.F . . # P.kXAX*XU < <.s.s.s.s.s.s.q./ * = , < 2 2 d k c s t Y a / s.s.s.s.s.s.s.s.3.! # * [ =XPXPXPXPXPXPXPXPXPXPXPXPXPXPXPX",
"p -.Y O . o #.0XeX|.P c <.s.s.s.s.s.s.s.! 2 y - ! ! ~ / >.2./ n ] U ! s.s.s.s.s.s.s.s.0.! Z _.-XaXPXPXPXPXPXPXPXPXPXPXPXPXPXPXPX",
"Z  .R % . . } >X8XX., ^ 8.s.s.s.s.s.s.s.! 2 y Q 3.4.8.s.s.s.,.c i n ^ s.s.s.s.s.s.s.s.s.~ t *.0XPXPXPXPXPXPXPXPXPXPXPXPXPXPXPXPX",
"J ] ` > . . ' :XgX+XY v ,.6.s.s.s.s.s.s.,.2 @ j 1.s.s.s.s.s.<.f = ! 2.s.s.s.s.s.4.>./ >.! % - ( @XpXPXPXPXPXPXPXPXPXPXPXPXPXPXPX",
"P ) ..2 . . I :XPXhX@XY g >.6.s.s.s.s.s.0.1.v l ,.s.s.s.s.s.3.~ / 4.s.s.s.s.s.s.~ = $ % $ + . @ p D.2XmXPXPXPXPXPXPXPXPXPXPXPXPX",
"P R -.p o . p :XPXPXPX%X2 c 1.s.s.s.s.s.s.0.3.2.4.s.s.s.s.s.s.s.s.s.s.s.s.s.s.2.f H H % o . . . o < [ +XiXPXPXPXPXPXPXPXPXPXPXPX",
"' F -.Z @ . $ ].dXPXwXP., v 2.s.s.s.s.s.s.s.s.s.s.s.s.s.s.s.s.s.s.s.s.s.s.s.8.! % > H [ o.( % o . . @ A =XcXPXPXPXPXPXPXPXPXPXPX",
"V.F o.F # . . [ sXkXV.& , ~ 3.0.s.s.s.s.s.s.s.s.s.s.s.s.s.s.s.s.s.s.s.s.6.4.^ = S ( Y S u I V.^.D @ . . +XhXPXPXPXPXPXPXPXPXPXPX",
"!.i | D # . . [ cXkXD + = = ! <.5.u.s.s.s.s.s.s.s.s.s.s.s.s.s.s.s.s.s.3.~ a $ @ t ) =.=.{ D D V.Y @ . . *XcXPXPXPXPXPXPXPXPXPXPX",
"@X; % $ >  .+.&XAX-X* O 2 p < = / 6.s.s.s.s.s.s.s.s.s.s.s.s.s.s.s.s.3.v 2 p ..H.( - * p ` ] U i % o . @ hXPXPXPXPXPXPXPXPXPXPXPX",
"XX& ( ( = R.>XkXkX[.. 2 | m. .* c 2.8.s.s.s.s.s.s.s.s.s.s.s.s.s.s.4.! t +XgXPXAXsX:X X[ 2 < y % % O O S PXPXPXPXPXPXPXPXPXPXPXPX",
"!.- %.C.r } sXPXqXU ; } m.=.A , ; < ! 5.s.s.s.s.s.s.s.s.s.s.s.3.,.! , .XgXPXPXPXPXAXsX>X%X).y O A # # K.PXPXPXPXPXPXPXPXPXPXPXPX",
"2X< ; r = { cXPXA.& ( m.-.a y @X&X&.* s 5.<.k j c / 3.u.s.s.s./ , % *.hXPXPXPXPXPXPXPXPXAX-X& . t + : ,XPXPXPXPXPXPXPXPXPXPXPXPX",
"mX;XH.%.@.&XAX-X> $ F [ S # ].PXPXPX:X* c & ( &.( p s ! / 2.0.v & H eXPXPXPXPXPXPXPXPXPXqX+.o F p o } PXPXPXPXPXPXPXPXPXPXPXPXPX",
"PXmXyX9X6XkXkX#X@ G 3 = O : @XPXPXPXkXXX$ 3 3X8X-X+XV._ D c ! <  .;XPXPXPXPXPXPXPXPXPXPX*X* = -.D # &XPXPXPXPXPXPXPXPXPXPXPXPXPX",
"PXPXPXPXPXPXhXOX$ _ V . . = A.PXPXPXPXdX@X%XPXPXPXAXeX*X|. .U ' ;XPXPXPXPXPXPXPXPXPXPXeX .$ ) -.% S sXPXPXPXPXPXPXPXPXPXPXPXPXPX",
"PXPXPXPXPXPXsX X# i 2 O . @ [ iXPXPXPXPXkXjXPXPXPXPXPXPXmX9X*X6XPXPXPXPXPXPXPXPXPXPXAX+X= S -.( @ A.PXPXPXPXPXPXPXPXPXPXPXPXPXPX",
"PXPXPXPXPXPXpX_.* ' Y + . . D &XPXPXPXPXPXPXPXPXPXPXPXPXPXPXPXPXPXPXPXPXPXPXPXPXPXPX0X( , O.=.2 : =XPXPXPXPXPXPXPXPXPXPXPXPXPXPX",
"PXPXPXPXPXPXyXK.2 m.} $ . . 2 }.PXPXPXPXPXPXPXPXPXPXPXPXPXPXPXPXPXPXPXPXPXPXPXPXPXPX%X2 Y M._ @ ] dXPXPXPXPXPXPXPXPXPXPXPXPXPXPX",
"PXPXPXPXPXPXwX*.y m. .< . . : ].PXPXPXPXPXPXPXPXPXPXPXPXPXPXPXPXPXPXPXPXPXPXPXPXPXaX| < X.=.a * OXPXPXPXPXPXPXPXPXPXPXPXPXPXPXPX",
"PXPXPXPXPXPXsXV.y -.-.S X o t OXPXPXPXPXPXPXPXPXPXPXPXPXPXPXPXPXPXPXPXPXPXPXPXPXPX=Xp S m.{ = p -XPXPXPXPXPXPXPXPXPXPXPXPXPXPXPX",
"PXPXPXPXPXPXAX/.p  .m.R * p ^.8XPXPXPXPXPXPXPXPXPXPXPXPXPXPXPXPXPXPXPXPXPXPXPXPXmX].y ] M.Y @ ( :XPXPXPXPXPXPXPXPXPXPXPXPXPXPXPX",
"PXPXPXPXPXPXPX XA Y { I y V.dXPXPXPXPXPXPXPXPXPXPXPXPXPXPXPXPXPXPXPXPXPXPXPXPXPXqX+.p -.| y = }.aXPXPXPXPXPXPXPXPXPXPXPXPXPXPXPX",
"PXPXPXPXPXPXPX.Xt > p 1 t ].PXPXPXPXPXPXPXPXPXPXPXPXPXPXPXPXPXPXPXPXPXPXPXPXPXPX.Xy # < 2 D W.eXPXPXPXPXPXPXPXPXPXPXPXPXPXPXPXPX",
"PXPXPXPXPXPXPX%XD & 3 1 A OXPXPXPXPXPXPXPXPXPXPXPXPXPXPXPXPXPXPXPXPXPXPXPXPXPXPXA.Z I I < _ -XPXPXPXPXPXPXPXPXPXPXPXPXPXPXPXPXPX",
"PXPXPXPXPXPXPX0XP.( P I ^.8XPXPXPXPXPXPXPXPXPXPXPXPXPXPXPXPXPXPXPXPXPXPXPXPXPXPX+XS r U 2 { :XPXPXPXPXPXPXPXPXPXPXPXPXPXPXPXPXPX"
};
