/* XPM */
static char *uhooi_dancing_1[] = {
/* columns rows colors chars-per-pixel */
"64 64 256 2 ",
"   c #010101",
".  c #010101",
"X  c black",
"o  c black",
"O  c black",
"+  c #010101",
"@  c #020101",
"#  c #040302",
"$  c #050403",
"%  c #070604",
"&  c #0A0806",
"*  c #0D0906",
"=  c #0F0906",
"-  c #130A07",
";  c #150C07",
":  c #170D08",
">  c #180E0A",
",  c #19100C",
"<  c #19120E",
"1  c #181410",
"2  c #1B1612",
"3  c #201814",
"4  c #231915",
"5  c #251B16",
"6  c #271C17",
"7  c #271D18",
"8  c #261E19",
"9  c #241F1B",
"0  c #24201C",
"q  c #23231E",
"w  c #232620",
"e  c #252B22",
"r  c #262E23",
"t  c #283025",
"y  c #2A3027",
"u  c #2B3028",
"i  c #2C2F28",
"p  c #2D2F28",
"a  c #2E2E29",
"s  c #2F2F2A",
"d  c #30302A",
"f  c #31312A",
"g  c #343229",
"h  c #373329",
"j  c #3E3326",
"k  c #473323",
"l  c #473826",
"z  c #423D2A",
"x  c #403F2B",
"c  c #3D422B",
"v  c #3B442C",
"b  c #3A452D",
"n  c #38462E",
"m  c #36472F",
"M  c #354730",
"N  c #334731",
"B  c #344632",
"V  c #354533",
"C  c #364535",
"Z  c #384536",
"A  c #394638",
"S  c #3B473A",
"D  c #3E473C",
"F  c #434741",
"G  c #454844",
"H  c #464945",
"J  c #474B46",
"K  c #484C48",
"L  c #494D49",
"P  c #4A4E4A",
"I  c #4B4F4A",
"U  c #4F524D",
"Y  c #525550",
"T  c #555852",
"R  c #595B55",
"E  c #5B5D57",
"W  c #5C5E58",
"Q  c #5C6058",
"!  c #5C6157",
"~  c #5C6358",
"^  c #5A6455",
"/  c #586553",
"(  c #556750",
")  c #516A4C",
"_  c #4D6D48",
"`  c #4C7047",
"'  c #4B7145",
"]  c #497243",
"[  c #487440",
"{  c #487541",
"}  c #497641",
"|  c #497842",
" . c #4A7A42",
".. c #4A7A43",
"X. c #4A7B43",
"o. c #4B7B43",
"O. c #4D7F45",
"+. c #4F8347",
"@. c #528749",
"#. c #568E4D",
"$. c #599450",
"%. c #5D9A53",
"&. c #62A257",
"*. c #65A85B",
"=. c #68AC5D",
"-. c #6AB05F",
";. c #6BB260",
":. c #6CB461",
">. c #6DB662",
",. c #6EB863",
"<. c #70BA64",
"1. c #71BC65",
"2. c #72BD66",
"3. c #72BE67",
"4. c #73BF67",
"5. c #74C168",
"6. c #75C269",
"7. c #76C46A",
"8. c #76C56A",
"9. c #77C76B",
"0. c #79C96C",
"q. c #7ACB6E",
"w. c #7CCE6F",
"e. c #7DD070",
"r. c #7ED271",
"t. c #7FD372",
"y. c #7FD473",
"u. c #80D473",
"i. c #80D573",
"p. c #80D573",
"a. c #80D573",
"s. c #80D573",
"d. c #80D573",
"f. c #80D573",
"g. c #80D573",
"h. c #81D574",
"j. c #81D574",
"k. c #81D574",
"l. c #81D574",
"z. c #81D574",
"x. c #81D574",
"c. c #81D574",
"v. c #81D474",
"b. c #80CB75",
"n. c #80C276",
"m. c #80B778",
"M. c #7FAA79",
"N. c #7E9A7A",
"B. c #7D8F7A",
"V. c #7B897A",
"C. c #798278",
"Z. c #7B827A",
"A. c #7C847B",
"S. c #7D857C",
"D. c #80877F",
"F. c #828982",
"G. c #878E86",
"H. c #8B918A",
"J. c #8D928C",
"K. c #8F938E",
"L. c #919590",
"P. c #939792",
"I. c #969995",
"U. c #979996",
"Y. c #979997",
"T. c #999A98",
"R. c #9A9B9A",
"E. c #9B9C9B",
"W. c gray62",
"Q. c #A0A0A0",
"!. c gray63",
"~. c gray64",
"^. c #A4A4A4",
"/. c gray65",
"(. c #A7A7A7",
"). c gray66",
"_. c gray67",
"`. c #AFAFAF",
"'. c #B4B4B4",
"]. c gray72",
"[. c gray74",
"{. c #C0C0C0",
"}. c #C3C3C3",
"|. c gray78",
" X c #CACACA",
".X c #CDCDCD",
"XX c gray82",
"oX c gray83",
"OX c gray83",
"+X c #D5D5D5",
"@X c gray84",
"#X c gray84",
"$X c gray84",
"%X c #D7D7D7",
"&X c #D8D8D8",
"*X c gray85",
"=X c #DADADA",
"-X c gray86",
";X c gainsboro",
":X c #DDDDDD",
">X c gray87",
",X c #DFDFDF",
"<X c gray88",
"1X c gray88",
"2X c #E1E1E1",
"3X c #E2E2E2",
"4X c gray89",
"5X c gray89",
"6X c gray90",
"7X c #E6E6E6",
"8X c #E7E7E7",
"9X c #E9E9E9",
"0X c #EAEAEA",
"qX c gray92",
"wX c gray93",
"eX c gray93",
"rX c #EEEEEE",
"tX c #EEEEEE",
"yX c #EFEFEF",
"uX c #EFEFEF",
"iX c #EFEFEF",
"pX c #EFEFEF",
"aX c gray94",
"sX c gray94",
"dX c gray94",
"fX c #F1F1F1",
"gX c gray95",
"hX c #F3F3F3",
"jX c #F4F4F4",
"kX c gray96",
"lX c gray97",
"zX c #F9F9F9",
"xX c #FBFBFB",
"cX c gray99",
"vX c #FDFDFD",
"bX c #FDFDFD",
"nX c #FEFEFE",
"mX c #FEFEFE",
"MX c #FEFEFE",
"NX c #FEFEFE",
"BX c #FEFEFE",
"VX c #FEFEFE",
"CX c #FEFEFE",
"ZX c #FEFEFE",
"AX c None",
"SX c #FEFEFE",
"DX c #FEFEFE",
"FX c #FEFEFE",
"GX c #FEFEFE",
"HX c #FEFEFE",
"JX c #FEFEFE",
"KX c #FEFEFE",
"LX c #FEFEFE",
"PX c #FEFEFE",
"IX c #FEFEFE",
"UX c #FEFEFE",
/* pixels */
"AXAXAXAXAXAXAXAXAXAXAXAXAXAXAXAXAXAXAXAXAXAXAXAXAXAXAXAXAXAXAXAXAXAXAXAXAXAXAXAXAXAXAXAXAXAXAXAXAXAXAXAXAXAXAXAXAXAXAXAXAXAXAXAX",
"AXAXAXAXAXAXAXAXAXAXAXAXAXAXAXAXAXAXAXAXAXAXAXAXAXAXAXAXAXAXAXAXAXAXAXAXAXAXAXAXAXAXAXAXAXAXAXAXAXAXAXAXAXAXAXAXAXAXAXAXAXAXAXAX",
"AXAXAXAXAXAXAXAXAXAXAXAXAXAXAXAXAXAXAXAXAXAXAXAXAXAXAXAXAXAXAXAXAXAXAXAXAXAXAXAXAXAXAXAXAXAXAXAXAXAXAXAXAXAXAXAXAXAXAXAXAXAXAXAX",
"AXAXAXAXAXAXAXAXAXAXAX XtXAXAXAXAXAXAXAXAXAXAXAXAXAXAXAXAXAXAXAXAXAXAXAXAXAXAXAXAXAXAXAXAXAXAXAXAXAXAXAXAXAXAXAXAXAXAXAXAXAXAXAX",
"AXAXAXAXAXAXAXAXAXAXkXY `.lXAXAXAXAXAXAXAXAXAXAXAXAXAXAXAXAXAXAXAXAXAXAXAXAXAXAXAXAXAXAXAXAXAXAXAXAXAXAXAXAXAXAXAXAXAXAXAXAXAXAX",
"AXAXAXAXAXAXAXAXAXAXgXq C.iXAXAXAXAXAXAXAXAXAXAXAXAXAXAXAXAXAXAXAXAXAXAXAXAXAXAXAXAXAXAXAXAXAXAX[.8XbXAXAXAXAXAXAXAXAXAXAXAXAXAX",
"AXAXAXAXAXAXAXAXAXAX7X1 S eXAXAXAXAXAXAXAXAXAXAXAXAXAXAXAXAXAXAXAXAXAXAXAXAXAXAXAXAXAXAXAXAXAX5Xd E 0XAXAXAXAXAXAXAXAXAXAXAXAXAX",
"AXAXAXAXAXAXAXAXAXAX X& * `.tXAXAXAXAXAXAXAXAXAXAXAXAXAXAXAXAXAXAXAXAXAXAXAXAXAXAXAXAXAXAXAXAX}.1 , P.lXAXAXAXAXAXAXAXAXAXAXAXAX",
"AXAXAXAXAXAXAXAXAXAXK.; , a `.lXAXAXAXAXAXAXAXAXAXAXAXAXAXAXAXAXAXAXAXAXAXAXAXAXAXAXAXAXAXAXAXG.> < s fXAXAXAXAXAXAXAXAXAXAXAXAX",
"AXAXAXAXAXAXAXAXAXlXC.% - % C.iXAXAXAXAXAXAXAXAXAXAXAXAXAXAXAXAXAXAXAXAXAXAXAXAXAXAXAXAXAXAXbXT , > $ _.bXAXAXAXAXAXAXAXAXAXAXAX",
"AXAXAXAXAXAXAXAXAXiX~ # > $ 9 2XAXAXAXAXAXAXAXAXAXAXAXAXAXAXAXAXAXAXAXAXAXAXAXAXAXAXAXAXAXAXfX0 k l 4 9 0XAXAXAXAXAXAXAXAXAXAXAX",
"AXAXAXAXAXAXAXAXAX9XQ = ; # + C.5XAXAXAXAXAXAXAXAXAXAXAXAXAXAXAXAXAXAXAXAXAXAXAXAXAXAXAXAXxX|.% 7 k k @ S.lXAXAXAXAXAXAXAXAXAXAX",
"AXAXAXAXAXAXAXAXAX7X~ : 7 , % > C..XzXAXAXxXjXbXAXAXAXAXAXAXAXAXAXAXAXAXAXAXAXAXAXAXAXAXAX0XC.= 4 > k > 9 fXAXAXxX-X'.{.1XAXAXAX",
"AXAXAXAXAXAXAXAXAXgXY.= 4 4 4 4 7 R W. X1X X!.;XAXAXAXAXAXAXAXAXAXAXAXAXAXAXAXAXAXAXAXAXiXY.> k k : k 4 # [.AXcX%X~ D D Z.cXAXAX",
"AXAXAXAXAXAXAXAXAXbX{.g , 5 k k 5 = 1 G ~ K 2 W tXAXAXjX%X;XAXAXlXXX].wXAXAXAXAXAXAXAXkX`.9 , k k , k 4 @ R AXlX/.> s q S fXAXAX",
"AXAXAXAXAXAXAXAXAXAX0XC.- 4 7 6 5 4 7 k : r [ N G.cX9XJ.g D.,X^.~ F Y }.bXsX&XXX*X6X8X`.h 4 k = < k l 4 + q %XeXH.1 f 2 F 9XAXAX",
"AXAXAXAXAXAXAXAXAXAXcX`.9 4 k k k k l k 7 [ 0.O.C Z.P w r 9 g C D M N C.W.D.~ ~ Q ~ ~ 9 , k k 4 7 k 4 = o 1 R.5XC.f C.G Z `.1XAX",
"AXAXAXAXAXAXAXAXAXAXeX].S : k k k k k 7 N -.h.<.M & M *.2.&.%.&.1.&.M N S N [ [ r = 4 5 , k z l 7 < < = o 1 F.+X~ J G.U * a Z.cX",
"AXAXAXAXAXAXAXAXAX'.U A t 1 4 < r M r 1 O.u.h.h.6.3.e.u.k.t.r.i.h.9.%.#.&.7.i.5.M 7 l l 5 k z k , k k = o 2 G.[.Y / B.D o o S fX",
"AXAXAXAXAXAXAXAXgXC.N #.%.$.o.M #.w.o.M *.h.h.h.h.h.h.h.h.h.h.h.h.h.h.h.h.h.h.5.m k l l 7 k k < 5 k 7 # o 9 K.R.F C.C.f o o F 9X",
"AXAXAXAXAXAXAXAX0XT [ 0.h.h.r.5.0.h.*.&.0.h.h.h.h.h.h.h.h.h.h.h.h.h.h.h.h.h.h.r.+.e 7 k l l 5 4 k k = o o q Y.G.F V.~ w o o P qX",
"AXAXAXAXAXAXAXAXcX~ S <.h.h.h.h.h.h.h.h.h.h.h.h.h.h.h.h.h.h.h.h.h.h.h.h.h.h.h.h.e.$.r & & 4 k k 7 * o o o e Q.D.J V.^ 2 o o R iX",
"AXAXAXAXAXAXAXAXAX!.C *.h.h.h.h.h.h.5.:.9.u.h.h.h.h.h.h.h.h.h.h.h.h.h.h.h.h.q.q.t.i.;.[ [ r : > = o o o o g `.C.J V.J * o @ C.zX",
"AXAXAXAXAXAXAXAXAX:XC @.w.h.h.h.h.e.{ M | ;.e.h.h.h.h.h.h.h.h.h.h.h.h.u.4.%. .+.6.h.h.h.h.w.O.1 @ o o o o Q :XW I B.V $ o > H.AX",
"AXAXAXAXAXAXAXAXAXxX~ N 3.h.h.h.h.*.t T S N $.4.w.i.h.h.h.h.h.h.h.r.*. .M A F 8 %.t.h.h.h.h.e.@.1 o o o w ^.zXP T N.r + o q (.AX",
"AXAXAXAXAXAXAXAXAX[.H * %.r.h.h.h.[ F ,X#X~ e r N X.5.u.h.h.h.i.&.[ N U ~ T.XXg O.q.h.h.h.4.N * # o o g ~.wXAXD / V.9 o o A [.AX",
"AXAXAXAXAXAXAXhXC.a D 2 [ w.h.h.h.[ I eXxXzX.X^.~ 2 & [ q.h.h.@.r U K.}.fXAXhXA O.q.h.h.h.+.* o o o a _.gXoXT.9 f G * o o Y XXAX",
"AXAXAXAXAXAX1XP w ~ C.& O.t.h.h.h.$.w XX].`.hXzXfXF.& @.r.h.h.r C.|.zXxXxXcX_.8 &.t.h.h.h.{ % o o o g K.C.P a , j 2 # o o C.5XAX",
"AXAXAXAXzX].2 y C.G.B.+ *.h.h.h.h.0.r W 1 o )._.Z & @.e.h.h.h.1 C.cX}.Z.L.`.g M t.h.h.h.h.=.$ o o o @ 2 A Y F 1 Z.z $ o o L.sXAX",
"AXAXAXsXY., F N.H.H.N.1 %.h.h.h.h.u.&.t 2 1 2 1 N 2.t.h.h.h.t.| e F.P + > C N 9.h.h.h.h.h.t.e o o < F ~ C.H.C.$ Q z + o o _.lXAX",
"AXAXiXG.& f N.H.H.B.C.2 +.h.h.h.h.h.i.8.%.$.%.9.h.h.h.h.h.h.i.5.[ S N r N  .7.h.h.h.h.h.k.4.$ & Y C.B.N.~ J C , s 1 + o > .XbXAX",
"AXxX[.$ 1 * f ~ f 8 q t >.h.h.h.h.h.h.h.h.h.h.h.h.h.h.h.h.h.h.u.7.=.*.=.3.h.h.h.h.h.h.h.h.3.2 Y N.V.Y f f G C a 1 @ o o d 0XAXAX",
"AXkX~.1 R x $ 2 , # # r &.t.h.h.h.h.h.h.h.h.h.h.h.h.h.h.h.h.h.h.h.h.h.h.h.h.h.h.h.h.h.h.h.7.M 0 u 0 F P h e * + o o o o D kXAXAX",
"AXgXY.# % # D & + o o & r O.q.h.h.h.h.h.h.h.h.h.h.h.h.h.h.h.h.h.q.*.#.o.=.h.h.h.h.h.h.h.h.r.%.% $ 9 a 2 $ o o o o o o o P AXAXAX",
"AXiXK.q / f g o o o o o # 2  .7.h.h.h.h.h.h.h.e.w.h.h.i.q.-.#.[ N r r V M 5.h.h.h.h.h.h.h.h.:.r o @ @ o o o o o + 1 a f I.AXAXAX",
"AXfXG.f B.K o o o o o o o @ r &.h.h.h.h.h.h.u.#.1 & 1 1 2 w r N [ M u W Z #.h.h.h.h.h.h.h.h.q.| + o o o o @ 1 U C.K.).`.sXAXAXAX",
"AXcXL.f B.T # o + 2 ~ H.w 1 A :.h.h.h.h.h.h.h.@.i A r +.$.&.*.;.6.%.S Q U [ h.h.h.h.h.h.h.h.k.#.% o o % h ~ `.XX8XbXAXAXAXAXAXAX",
"AXAXE.S C.^ < # F oXqX1XQ 2 +.r.h.h.h.h.h.h.h.+.e f [ e.e.u.h.h.h.=.M a A #.h.h.h.h.h.i.t.h.h.#.1 * R `.XX3XAXAXAXAXAXAXAXAXAXAX",
"AXAX`.K ~ ~ q % ~ bXAXxX}.T v $.q.h.h.h.h.h.h.=.N + t =.h.h.h.h.h.-.N r +.6.h.h.h.h.h.6.$.+.$.[ 1 * C.zXAXAXAXAXAXAXAXAXAXAXAXAX",
"AXAX XU / V.u o Y hXAXAXxX.XW t #.q.h.h.h.h.h.h.6.{ N &.h.h.h.h.h.9.%.&.q.h.h.h.h.h.t.+.1 + % % # @ D .XAXAXAXAXAXAXAXAXAXAXAXAX",
"AXAX9XT I N.Z + H &XAXAXAXeXZ., N :.h.h.h.h.h.h.h.i.w.r.h.h.h.h.h.h.h.h.h.h.h.h.h.h.;.t o o o o o o D  XAXAXAXAXAXAXAXAXAXAXAXAX",
"AXAXAXC.D V.D & C {.AXAXAX*XP 1 [ 2.h.h.h.h.h.h.h.h.h.h.h.h.h.h.h.h.h.h.h.h.h.h.h.q.[ 1 $ o o o o o D {.AXAXAXAXAXAXAXAXAXAXAXAX",
"AXAXAXP.F C.G * 0 (.AXAXxXF.0 r { <.t.h.h.h.h.h.h.h.h.h.h.h.h.h.h.h.h.h.h.h.h.9.:.X.w A ~ T V 1 + o A [.AXAXAXAXAXAXAXAXAXAXAXAX",
"AXAXAX!.g C.F * $ J.zXAXcXG.q 2 q Z $.7.u.h.h.h.h.h.h.h.h.h.h.h.h.h.h.h.h.h.,.} r & % e ^ B.N.V.G 1 h ].cXAXAXAXAXAXAXAXAXAXAXAX",
"AXAXAX[.q @ $ + o C.8XAXAX).e B F N w #.w.h.h.h.h.h.h.h.h.h.h.h.h.h.h.h.h.<.M & o o o o o $ e ^ C.^ f P !.tXAXAXAXAXAXAXAXAXAXAX",
"AXAXAX`.2 ~ ~ 1 + ~ :XAX-XY A C.H.C.2 N &.8.u.h.h.h.h.h.h.h.h.h.h.h.h.h.7.A & o o o o o o @ * , 2 w * 2 s |.xXAXAXAXAXAXAXAXAXAX",
"AXAXAX!.q D.K.F $ R -XsX~ f C.H.C.f $ # 2 S <.u.i.h.h.h.h.h.h.h.h.h.3.$.[ & o o o o o o o o o o $ & $ F = `.zXAXAXAXAXAXAXAXAXAX",
"AXAXAXwXf * w 1 + L =XF.8 ~ H.V.f # o o o o r 4.&.r r r @.1.u.h.h.h.#.w & + o o o @ & 1 1 & + o o o o 9 $ '.xXAXAXAXAXAXAXAXAXAX",
"AXAXAXAXjX_.C.@ o g '.2 & f ^ N & @ o o o o o N & + @ $ 1 w N O.-.t.S + o o o o $ g T F.!.~ 9 @ o o U F $ K !.tXAXAXAXAXAXAXAXAX",
"AXAXAXAXAXbX`.o o % C.% E h 2 1 & o o o o o o o o o o o o o % 1 r S 2 o o o o o Z [.zXAXAXAXlX|.d 9 N.A o $ a |.xXAXAXAXAXAXAXAX",
"AXAXAXAXAXAX!.o o o H & Y g $ % o o o # g C 9 $ o o o o o o o o O % o o o o o w '.zXAXAXAXAXxX).2 ~ B.1 % o o `.zXAXAXAXAXAXAXAX",
"AXAXAXAXAXAXwX+ o o K & V u $ o o o # P }.XXR.S $ o o o o o o o o o o o o o & P.lXAXAXAXAXAX2Xf F N.^ 1 & o o XXcXAXAXAXAXAXAXAX",
"AXAXAXAXAXAXAX_.I.H.K.2 C.^ % o o o G #XAXAXAX8Xa + + Q P.~ 2 o o o o o o 9 Q tXAXAXAXAXAXeXD.w B.B.f > + o & hXAXAXAXAXAXAXAXAX",
"AXAXAXAXAXAXAXbXzX9XT.e H.C.1 o @ a |.AXAXAXAXbX{.2 a cXzXeX%X_.~ g $ o % D.2XAXAXAXAXAXAXXXC Y G.~ 2 o o o F AXAXAXAXAXAXAXAXAX",
"AXAXAXAXAXAXAXAXAXiXJ.y H.C.r o > K.AXAXAXAXAXAXxX XoXAXAXAXAXlX1X}.K.Q Z.5XAXAXAXAXAXAXjXQ.w V.V.D $ o o & ^.AXAXAXAXAXAXAXAXAX",
"AXAXAXAXAXAXAXAXAXzXT.u B.B.F + 9  XAXAXAXAXAXAXAXAXAXAXAXAXAXAXAXAXfX=XeXAXAXAXAXAXAXAXXXT D H.C.0 o o @ w qXAXAXAXAXAXAXAXAXAX",
"AXAXAXAXAXAXAXAXAXAX^.C C.H.^ , 9 |.AXAXAXAXAXAXAXAXAXAXAXAXAXAXAXAXAXAXAXAXAXAXAXAXAXcX^.u C.N.U $ o o 1 C.AXAXAXAXAXAXAXAXAXAX",
"AXAXAXAXAXAXAXAXAXAX`.S F ~ D 1 2 `.AXAXAXAXAXAXAXAXAXAXAXAXAXAXAXAXAXAXAXAXAXAXAXAXAX9XZ.f B.C.i o o + a XXAXAXAXAXAXAXAXAXAXAX",
"AXAXAXAXAXAXAXAXAXAX`.f 2 h t * > F.AXAXAXAXAXAXAXAXAXAXAXAXAXAXAXAXAXAXAXAXAXAXAXAXAX_.a @ 1 8 & o o , ~ zXAXAXAXAXAXAXAXAXAXAX",
"AXAXAXAXAXAXAXAXAXAX XL 1 i 9 & $ R wXAXAXAXAXAXAXAXAXAXAXAXAXAXAXAXAXAXAXAXAXAXAXAXAXY.D W W e # o o e ~.AXAXAXAXAXAXAXAXAXAXAX",
"AXAXAXAXAXAXAXAXAXAXhX`.H 1 % o o A [.AXAXAXAXAXAXAXAXAXAXAXAXAXAXAXAXAXAXAXAXAXAXAXAX}.F a U a @ o o L -XAXAXAXAXAXAXAXAXAXAXAX",
"AXAXAXAXAXAXAXAXAXAXAXhXI.q o o o w !.AXAXAXAXAXAXAXAXAXAXAXAXAXAXAXAXAXAXAXAXAXAXAXAXAX}.W 9 % o o 2 F.zXAXAXAXAXAXAXAXAXAXAXAX",
"AXAXAXAXAXAXAXAXAXAXAXAX`.f o o o 9 W.AXAXAXAXAXAXAXAXAXAXAXAXAXAXAXAXAXAXAXAXAXAXAXAXAXAX).e o o o F {.AXAXAXAXAXAXAXAXAXAXAXAX",
"AXAXAXAXAXAXAXAXAXAXAXAX XP # o @ S ].AXAXAXAXAXAXAXAXAXAXAXAXAXAXAXAXAXAXAXAXAXAXAXAXAXAXY.2 o o o R #XAXAXAXAXAXAXAXAXAXAXAXAX"
};
